<?xml version="1.0" encoding="utf-8"?>
<!-- Generator: Adobe Illustrator 16.0.0, SVG Export Plug-In . SVG Version: 6.00 Build 0)  -->
<!DOCTYPE svg PUBLIC "-//W3C//DTD SVG 1.1//EN" "http://www.w3.org/Graphics/SVG/1.1/DTD/svg11.dtd">
<svg version="1.1" id="Calque_1" xmlns="http://www.w3.org/2000/svg" xmlns:xlink="http://www.w3.org/1999/xlink" x="0px" y="0px"
	 width="52px" height="50px" viewBox="0 0 52 50" enable-background="new 0 0 52 50" xml:space="preserve">
<g>
	<path fill="#161B20" d="M46.048,2.52c1.893,0,3.433,1.54,3.433,3.434v38.094c0,1.894-1.54,3.434-3.433,3.434H7.953
		c-1.893,0-3.433-1.54-3.433-3.434V5.953c0-1.894,1.541-3.434,3.433-3.434H46.048 M46.048,0H7.953C4.666,0,2,2.665,2,5.953v38.094
		C2,47.335,4.666,50,7.953,50h38.095C49.335,50,52,47.335,52,44.047V5.953C52,2.665,49.335,0,46.048,0L46.048,0z"/>
	<g>
		<path fill="#161B20" d="M21.969,36.148l-2.487-4.566c-0.988-1.771-1.635-2.998-2.283-4.327h-0.102
			c-0.545,1.329-1.159,2.556-2.079,4.327l-2.283,4.566H7.931l6.814-11.619L8.204,13.183h4.804l2.487,4.736
			c0.75,1.431,1.295,2.556,1.908,3.85h0.068c0.613-1.431,1.09-2.453,1.806-3.85l2.453-4.736h4.804l-6.712,11.21l6.985,11.755H21.969
			z"/>
		<path fill="#161B20" d="M44.489,11.956V31.48c0,1.704,0.068,3.543,0.136,4.668h-3.748l-0.17-2.624h-0.068
			c-0.988,1.84-2.999,2.999-5.417,2.999c-3.953,0-7.087-3.374-7.087-8.484c-0.034-5.554,3.441-8.859,7.428-8.859
			c2.283,0,3.918,0.954,4.668,2.181h0.068v-9.404H44.489z M40.298,26.471c0-0.341-0.034-0.75-0.102-1.09
			c-0.375-1.635-1.704-2.964-3.612-2.964c-2.692,0-4.191,2.385-4.191,5.486c0,3.032,1.499,5.247,4.157,5.247
			c1.704,0,3.203-1.158,3.612-2.964c0.102-0.375,0.136-0.784,0.136-1.227V26.471z"/>
	</g>
</g>
<g>
	<path fill="#FFFFFF" d="M44.048,2.52c1.893,0,3.433,1.54,3.433,3.434v38.094c0,1.894-1.54,3.434-3.433,3.434H5.953
		c-1.893,0-3.433-1.54-3.433-3.434V5.953c0-1.894,1.541-3.434,3.433-3.434H44.048 M44.048,0H5.953C2.666,0,0,2.665,0,5.953v38.094
		C0,47.335,2.666,50,5.953,50h38.095C47.335,50,50,47.335,50,44.047V5.953C50,2.665,47.335,0,44.048,0L44.048,0z"/>
	<g>
		<path fill="#FFFFFF" d="M19.969,36.148l-2.487-4.566c-0.988-1.771-1.635-2.998-2.283-4.327h-0.102
			c-0.545,1.329-1.159,2.556-2.079,4.327l-2.283,4.566H5.931l6.814-11.619L6.204,13.183h4.804l2.487,4.736
			c0.75,1.431,1.295,2.556,1.908,3.85h0.068c0.613-1.431,1.09-2.453,1.806-3.85l2.453-4.736h4.804l-6.712,11.21l6.985,11.755H19.969
			z"/>
		<path fill="#FFFFFF" d="M42.489,11.956V31.48c0,1.704,0.068,3.543,0.136,4.668h-3.748l-0.17-2.624h-0.068
			c-0.988,1.84-2.999,2.999-5.417,2.999c-3.953,0-7.087-3.374-7.087-8.484c-0.034-5.554,3.441-8.859,7.428-8.859
			c2.283,0,3.918,0.954,4.668,2.181h0.068v-9.404H42.489z M38.298,26.471c0-0.341-0.034-0.75-0.102-1.09
			c-0.375-1.635-1.704-2.964-3.612-2.964c-2.692,0-4.191,2.385-4.191,5.486c0,3.032,1.499,5.247,4.157,5.247
			c1.704,0,3.203-1.158,3.612-2.964c0.102-0.375,0.136-0.784,0.136-1.227V26.471z"/>
	</g>
</g>
</svg>
