<?xml version="1.0" encoding="utf-8"?>
<!-- Generator: Adobe Illustrator 16.0.0, SVG Export Plug-In . SVG Version: 6.00 Build 0)  -->
<!DOCTYPE svg PUBLIC "-//W3C//DTD SVG 1.1//EN" "http://www.w3.org/Graphics/SVG/1.1/DTD/svg11.dtd">
<svg version="1.1" id="Calque_1" xmlns="http://www.w3.org/2000/svg" xmlns:xlink="http://www.w3.org/1999/xlink" x="0px" y="0px"
	 width="52px" height="50px" viewBox="0 0 52 50" enable-background="new 0 0 52 50" xml:space="preserve">
<g>
	<path fill="#161B20" d="M46.047,2.52c1.893,0,3.433,1.54,3.433,3.434v38.094c0,1.894-1.54,3.434-3.433,3.434H7.953
		c-1.893,0-3.433-1.54-3.433-3.434V5.953c0-1.894,1.54-3.434,3.433-3.434H46.047 M46.047,0H7.953C4.665,0,2,2.665,2,5.953v38.094
		C2,47.335,4.665,50,7.953,50h38.095C49.335,50,52,47.335,52,44.047V5.953C52,2.665,49.335,0,46.047,0L46.047,0z"/>
	<g>
		<path fill="#161B20" d="M14.626,29.636l-1.975,6.502H8.329l7.353-22.943h5.344l7.455,22.943h-4.494l-2.076-6.502H14.626z
			 M21.196,26.47l-1.804-5.65c-0.443-1.396-0.817-2.962-1.158-4.289h-0.068c-0.34,1.327-0.681,2.927-1.089,4.289l-1.77,5.65H21.196z
			"/>
		<path fill="#161B20" d="M34.03,29.023c0.102,2.995,2.451,4.289,5.106,4.289c1.94,0,3.336-0.272,4.595-0.749l0.613,2.894
			c-1.43,0.578-3.404,1.021-5.787,1.021c-5.378,0-8.544-3.302-8.544-8.374c0-4.595,2.792-8.918,8.102-8.918
			c5.378,0,7.149,4.425,7.149,8.067c0,0.783-0.068,1.396-0.136,1.771H34.03z M41.314,26.096c0.034-1.532-0.647-4.051-3.438-4.051
			c-2.587,0-3.676,2.349-3.846,4.051H41.314z"/>
	</g>
</g>
<g>
	<path fill="#FFFFFF" d="M44.047,2.52c1.893,0,3.433,1.54,3.433,3.434v38.094c0,1.894-1.54,3.434-3.433,3.434H5.953
		c-1.893,0-3.433-1.54-3.433-3.434V5.953c0-1.894,1.54-3.434,3.433-3.434H44.047 M44.047,0H5.953C2.665,0,0,2.665,0,5.953v38.094
		C0,47.335,2.665,50,5.953,50h38.095C47.335,50,50,47.335,50,44.047V5.953C50,2.665,47.335,0,44.047,0L44.047,0z"/>
	<g>
		<path fill="#FFFFFF" d="M12.626,29.636l-1.975,6.502H6.329l7.353-22.943h5.344l7.455,22.943h-4.494l-2.076-6.502H12.626z
			 M19.196,26.47l-1.804-5.65c-0.443-1.396-0.817-2.962-1.158-4.289h-0.068c-0.34,1.327-0.681,2.927-1.089,4.289l-1.77,5.65H19.196z
			"/>
		<path fill="#FFFFFF" d="M32.03,29.023c0.102,2.995,2.451,4.289,5.106,4.289c1.94,0,3.336-0.272,4.595-0.749l0.613,2.894
			c-1.43,0.578-3.404,1.021-5.787,1.021c-5.378,0-8.544-3.302-8.544-8.374c0-4.595,2.792-8.918,8.102-8.918
			c5.378,0,7.149,4.425,7.149,8.067c0,0.783-0.068,1.396-0.136,1.771H32.03z M39.314,26.096c0.034-1.532-0.647-4.051-3.438-4.051
			c-2.587,0-3.676,2.349-3.846,4.051H39.314z"/>
	</g>
</g>
</svg>
