<?xml version="1.0" encoding="utf-8"?>
<!-- Generator: Adobe Illustrator 16.0.0, SVG Export Plug-In . SVG Version: 6.00 Build 0)  -->
<!DOCTYPE svg PUBLIC "-//W3C//DTD SVG 1.1//EN" "http://www.w3.org/Graphics/SVG/1.1/DTD/svg11.dtd">
<svg version="1.1" id="Calque_1" xmlns="http://www.w3.org/2000/svg" xmlns:xlink="http://www.w3.org/1999/xlink" x="0px" y="0px"
	 width="46.068px" height="64.933px" viewBox="0 0 46.068 64.933" enable-background="new 0 0 46.068 64.933" xml:space="preserve">
<g>
	<g>
		<polygon fill="#FFFFFF" points="23.016,28.113 21.516,28.534 15.084,30.313 15.254,32.204 15.404,33.953 30.695,33.953 
			30.846,32.184 31.004,30.333 24.596,28.554 		"/>
		<path fill="#FFFFFF" d="M0,12.599l4.119,47.086l18.924,5.248l18.906-5.244l4.119-47.09H0z M36.975,27.284l-0.07,0.75l-0.33,3.84
			l-0.129,1.45l-0.051,0.629l-0.5,5.67l-1.039,11.961l-5.852,1.619l1.191-13.58H15.904l1.191,13.591l-5.852-1.62l-1.039-11.971
			l-0.5-5.67l-0.061-0.62l-0.119-1.47l-0.34-3.83l-0.061-0.74l-0.109-1.18l3.379-0.94h0.01l2.18-0.61l7.451-2.07h0.01l0.51-0.14
			l0.461-0.13h0.01l0.459,0.13l0.58,0.16l7.439,2.07h0.012l2.129,0.59l1.82,0.5v0.01l1.609,0.44L36.975,27.284z"/>
	</g>
	<g>
		<polygon fill="#FFFFFF" points="21.676,0 21.676,0.01 21.666,0 		"/>
		<polygon fill="#FFFFFF" points="31.766,2.89 31.766,5.69 33.035,5.69 33.035,3.69 35.926,3.69 35.926,8.57 28.875,8.57 28.875,0 
			35.926,0 35.926,2.89 		"/>
		<path fill="#FFFFFF" d="M10.143,0.003v0.012v2.871v0.808v2.883v1.995h2.883V6.576h0.002h1.273h0.002v1.995h2.883V6.576V3.693
			V2.886V0.015V0.003H10.143z M13.027,3.693V2.886h1.273v0.808H13.027z"/>
		<polygon fill="#FFFFFF" points="21.676,0 21.676,0.01 21.666,0 		"/>
		<polygon fill="#FFFFFF" points="27.285,0 27.285,8.56 24.406,8.56 24.396,8.55 22.275,5.68 21.676,4.87 21.676,8.56 18.795,8.56 
			18.795,0 21.666,0 21.676,0.01 23.725,2.79 24.396,3.7 24.396,0 		"/>
	</g>
</g>
<g>
</g>
<g>
</g>
<g>
</g>
<g>
</g>
<g>
</g>
<g>
</g>
</svg>
