<?xml version="1.0" encoding="utf-8"?>
<!-- Generator: Adobe Illustrator 16.0.0, SVG Export Plug-In . SVG Version: 6.00 Build 0)  -->
<!DOCTYPE svg PUBLIC "-//W3C//DTD SVG 1.1//EN" "http://www.w3.org/Graphics/SVG/1.1/DTD/svg11.dtd">
<svg version="1.1" id="Calque_1" xmlns="http://www.w3.org/2000/svg" xmlns:xlink="http://www.w3.org/1999/xlink" x="0px" y="0px"
	 width="122.057px" height="119.252px" viewBox="0 0 122.057 119.252" enable-background="new 0 0 122.057 119.252"
	 xml:space="preserve">
<g>
	<path fill="#161B20" d="M39.853,68.228c7.816,0,14.172-6.355,14.172-14.172S47.669,39.88,39.853,39.88
		c-1.563,0-2.836,1.273-2.836,2.836c0,1.566,1.273,2.836,2.836,2.836c4.688,0,8.504,3.816,8.504,8.504
		c0,4.684-3.813,8.5-8.496,8.504c-0.004,0-0.004,0-0.008,0c-7.816,0-14.176,6.355-14.176,14.172c0,1.567,1.27,2.833,2.836,2.833
		s2.836-1.266,2.836-2.833c0-4.684,3.809-8.5,8.496-8.504H39.853z"/>
	<path fill="#161B20" d="M85.204,62.56h-0.008c-4.688-0.004-8.492-3.816-8.492-8.5c0-4.695,3.813-8.512,8.5-8.512
		c1.566,0,2.836-1.266,2.836-2.828c0-1.57-1.27-2.84-2.836-2.84c-7.813,0-14.172,6.359-14.172,14.18
		c0,7.809,6.359,14.168,14.172,14.168h0.008c4.688,0.004,8.5,3.816,8.5,8.504c0,1.567,1.27,2.837,2.836,2.837
		c1.563,0,2.836-1.27,2.836-2.837C99.384,68.915,93.024,62.56,85.204,62.56"/>
	<path fill="#161B20" d="M107.884,79.568c-1.566,0-2.836,1.27-2.836,2.836c0,3.059-1.656,5.895-4.336,7.402
		c-1,0.566-1.563,1.688-1.414,2.832c0.047,0.363,0.078,0.727,0.078,1.102c0,4.691-3.813,8.508-8.5,8.508
		c-1.129,0-2.246-0.234-3.289-0.676c-0.621-2.441-1.867-4.684-3.703-6.512c-1.102-1.113-2.898-1.113-4.008,0
		c-1.102,1.102-1.102,2.898,0,4.004c1.594,1.594,2.477,3.707,2.492,5.953c0,0.02,0,0.043,0,0.063c0,0.582-0.059,1.152-0.172,1.703
		c-0.008,0.059-0.039,0.117-0.055,0.18c-0.109,0.488-0.25,0.969-0.438,1.418c-0.008,0.023-0.023,0.043-0.031,0.063
		c-0.516,1.184-1.305,2.199-2.266,3.031c-0.27,0.234-0.531,0.477-0.82,0.668c-0.195,0.137-0.422,0.23-0.633,0.348
		c-0.281,0.152-0.555,0.324-0.848,0.445c-0.172,0.07-0.359,0.105-0.535,0.168c-0.359,0.121-0.711,0.242-1.07,0.316
		c-0.078,0.016-0.156,0.012-0.234,0.023c-0.93,0.152-1.867,0.152-2.797,0c-0.078-0.012-0.16-0.008-0.234-0.023
		c-0.367-0.074-0.719-0.195-1.07-0.316c-0.18-0.063-0.367-0.098-0.539-0.168c-0.297-0.121-0.57-0.293-0.855-0.449
		c-0.207-0.117-0.426-0.207-0.625-0.34c-0.293-0.199-0.566-0.449-0.844-0.688c-1.785-1.559-2.941-3.824-2.941-6.379V88.045
		c2.375,1.785,5.313,2.863,8.508,2.863c1.563,0,2.836-1.27,2.836-2.836s-1.273-2.832-2.836-2.832c-4.688,0-8.508-3.816-8.508-8.509
		V14.368c0-4.688,3.82-8.504,8.508-8.504s8.5,3.816,8.5,8.504v0.004c0,4.691-3.813,8.5-8.5,8.5c-1.566,0-2.836,1.27-2.836,2.836
		s1.27,2.832,2.836,2.832c6.695,0,12.313-4.676,13.785-10.934c3.492,1.059,6.059,4.27,6.059,8.102c0,1.566,1.266,2.832,2.836,2.832
		c4.688,0,8.5,3.816,8.5,8.504c0,0.531-0.063,1.043-0.156,1.543c-0.023,0.141-0.063,0.277-0.094,0.422
		c-0.094,0.379-0.203,0.746-0.344,1.102c-0.043,0.121-0.086,0.242-0.141,0.363c-1.324,2.984-4.297,5.082-7.766,5.082
		c-1.57,0-2.836,1.262-2.836,2.832c0,1.566,1.266,2.836,2.836,2.836c3.992,0,7.598-1.668,10.18-4.336
		c2.438,1.531,3.992,4.211,3.992,7.172c0,1.043-0.211,2.063-0.582,3.023c-0.738-0.117-1.492-0.191-2.254-0.191
		c-3.785,0-7.344,1.469-10.023,4.148c-1.105,1.105-1.105,2.902,0,4.008c1.109,1.109,2.902,1.109,4.008,0
		c1.609-1.605,3.742-2.488,6.016-2.488c1.023,0,2.008,0.199,2.941,0.547c0.266,0.094,0.52,0.215,0.773,0.34
		c0.199,0.098,0.402,0.203,0.598,0.316c0.219,0.133,0.438,0.266,0.648,0.418c0.234,0.168,0.453,0.359,0.672,0.559
		c0.156,0.133,0.313,0.254,0.453,0.398c0.329,0.336,0.626,0.699,0.892,1.086c0.117,0.172,0.219,0.359,0.328,0.543
		c0.148,0.246,0.281,0.496,0.402,0.75c0.098,0.207,0.176,0.414,0.254,0.621c0.105,0.281,0.188,0.57,0.262,0.859
		c0.047,0.188,0.098,0.375,0.137,0.566c0.082,0.473,0.133,0.953,0.141,1.445c0,0.016,0,0.035,0,0.055
		c0,0.582-0.059,1.156-0.172,1.703c-0.008,0.051-0.031,0.098-0.039,0.148C115.318,76.712,111.935,79.568,107.884,79.568
		 M25.681,93.74c0-0.375,0.031-0.738,0.078-1.102c0.148-1.145-0.414-2.266-1.414-2.832c-2.672-1.508-4.337-4.348-4.337-7.406
		c0-1.566-1.273-2.832-2.836-2.832c-3.5,0-6.508-2.13-7.813-5.157c0-0.016-0.016-0.031-0.023-0.043
		c-0.191-0.453-0.328-0.938-0.445-1.426c-0.008-0.063-0.039-0.117-0.047-0.176c-0.117-0.547-0.172-1.121-0.172-1.703
		c0-0.02,0-0.039,0-0.055c0.008-0.492,0.063-0.973,0.145-1.445c0.035-0.191,0.09-0.379,0.133-0.566
		c0.074-0.289,0.16-0.578,0.262-0.859c0.078-0.207,0.164-0.414,0.254-0.621c0.121-0.254,0.262-0.504,0.402-0.75
		c0.109-0.184,0.211-0.371,0.328-0.543c0.27-0.387,0.563-0.75,0.895-1.086c0.137-0.145,0.301-0.266,0.449-0.398
		c0.219-0.199,0.441-0.391,0.68-0.559c0.203-0.152,0.422-0.285,0.641-0.418c0.195-0.113,0.398-0.219,0.598-0.316
		c0.254-0.125,0.508-0.246,0.777-0.34c0.93-0.348,1.914-0.547,2.938-0.547c2.273,0,4.411,0.883,6.017,2.488
		c1.105,1.109,2.902,1.109,4.008,0c1.105-1.105,1.105-2.902,0-4.008c-2.68-2.68-6.238-4.148-10.024-4.148
		c-0.762,0-1.516,0.074-2.254,0.191c-0.371-0.961-0.582-1.98-0.582-3.023c0-2.961,1.563-5.641,4-7.172
		c2.575,2.668,6.181,4.336,10.181,4.336c1.563,0,2.828-1.27,2.828-2.836c0-1.57-1.266-2.832-2.828-2.832
		c-3.477,0-6.453-2.098-7.774-5.082c-0.055-0.121-0.094-0.242-0.141-0.363c-0.141-0.355-0.25-0.723-0.344-1.102
		c-0.031-0.145-0.07-0.281-0.094-0.422c-0.094-0.5-0.156-1.012-0.156-1.543c0-0.582,0.063-1.152,0.172-1.711
		c0.794-3.867,4.231-6.793,8.337-6.793c1.563,0,2.828-1.266,2.828-2.832v-0.004c0-3.832,2.566-7.039,6.055-8.098
		c1.477,6.258,7.09,10.934,13.789,10.934c1.566,0,2.836-1.266,2.836-2.832s-1.27-2.836-2.836-2.836c-4.688,0-8.5-3.809-8.5-8.5
		v-0.004c0-4.688,3.813-8.504,8.5-8.504s8.508,3.816,8.508,8.504v62.363c0,4.692-3.82,8.509-8.508,8.509
		c-1.563,0-2.836,1.266-2.836,2.832s1.273,2.836,2.836,2.836c3.195,0,6.133-1.078,8.508-2.863v17.035
		c0,2.555-1.156,4.824-2.945,6.383c-0.277,0.238-0.547,0.488-0.84,0.684c-0.199,0.133-0.422,0.223-0.629,0.34
		c-0.281,0.156-0.563,0.328-0.852,0.449c-0.172,0.07-0.359,0.105-0.539,0.168c-0.352,0.121-0.703,0.242-1.07,0.316
		c-0.074,0.016-0.156,0.012-0.234,0.023c-0.93,0.152-1.875,0.152-2.797,0c-0.078-0.012-0.156-0.008-0.234-0.023
		c-0.359-0.074-0.711-0.195-1.07-0.316c-0.176-0.063-0.363-0.098-0.535-0.168c-0.293-0.121-0.566-0.293-0.852-0.449
		c-0.207-0.113-0.434-0.207-0.629-0.34c-0.289-0.195-0.555-0.441-0.824-0.672c-0.957-0.836-1.746-1.852-2.262-3.031
		c-0.008-0.02-0.023-0.039-0.031-0.063c-0.188-0.449-0.328-0.93-0.438-1.418c-0.016-0.063-0.047-0.121-0.055-0.18
		c-0.113-0.551-0.172-1.121-0.172-1.703c0-0.02,0-0.043,0-0.063c0.016-2.246,0.898-4.359,2.492-5.953
		c1.105-1.105,1.105-2.902,0-4.004c-1.109-1.113-2.906-1.113-4.008,0c-1.836,1.828-3.082,4.07-3.703,6.512
		c-1.043,0.441-2.16,0.676-3.289,0.676C29.489,102.248,25.681,98.432,25.681,93.74 M118.611,80.307
		c0.039-0.047,0.086-0.094,0.133-0.145c0.195-0.234,0.375-0.48,0.555-0.723c0.07-0.098,0.145-0.191,0.219-0.289
		c0.172-0.246,0.328-0.5,0.484-0.758c0.063-0.105,0.129-0.211,0.188-0.316c0.148-0.259,0.285-0.517,0.418-0.782
		c0.059-0.121,0.113-0.238,0.168-0.363c0.117-0.262,0.234-0.52,0.336-0.789c0.055-0.145,0.102-0.289,0.152-0.434
		c0.09-0.25,0.176-0.508,0.246-0.766c0.055-0.18,0.094-0.359,0.137-0.543c0.059-0.234,0.117-0.465,0.16-0.703
		c0.047-0.242,0.078-0.496,0.113-0.742c0.023-0.184,0.055-0.363,0.07-0.551c0.043-0.441,0.066-0.891,0.066-1.34
		c0-0.57-0.039-1.125-0.105-1.676c-0.016-0.133-0.039-0.266-0.059-0.398c-0.07-0.453-0.156-0.898-0.266-1.34
		c-0.023-0.094-0.043-0.191-0.07-0.289c-0.441-1.641-1.18-3.191-2.188-4.578c-0.039-0.051-0.074-0.102-0.109-0.152
		c-0.305-0.406-0.633-0.801-0.98-1.18c-0.043-0.047-0.082-0.098-0.129-0.145c-0.086-0.082-0.16-0.18-0.242-0.266
		c-0.75-0.746-1.57-1.391-2.441-1.945c0.605-1.598,0.918-3.297,0.918-5.035c0-4.922-2.548-9.414-6.591-11.969
		c0.066-0.164,0.105-0.336,0.164-0.504c0.059-0.164,0.113-0.328,0.164-0.496c0.082-0.27,0.148-0.543,0.215-0.813
		c0.031-0.168,0.078-0.336,0.113-0.508c0.059-0.297,0.098-0.594,0.137-0.895c0.02-0.148,0.047-0.297,0.063-0.449
		c0.047-0.457,0.07-0.918,0.07-1.383c0-0.457-0.023-0.918-0.07-1.371c-0.016-0.148-0.039-0.293-0.059-0.434
		c-0.043-0.305-0.082-0.605-0.141-0.902c-0.031-0.168-0.074-0.336-0.113-0.504c-0.063-0.266-0.125-0.527-0.203-0.789
		c-0.051-0.176-0.109-0.344-0.164-0.516c-0.086-0.246-0.176-0.496-0.273-0.734c-0.066-0.168-0.133-0.332-0.211-0.496
		c-0.102-0.238-0.219-0.477-0.34-0.707c-0.082-0.156-0.16-0.313-0.246-0.465c-0.129-0.234-0.273-0.461-0.418-0.688
		c-0.09-0.141-0.172-0.281-0.262-0.414c-0.172-0.25-0.359-0.488-0.547-0.723c-0.078-0.105-0.148-0.207-0.234-0.309
		c-0.273-0.332-0.563-0.648-0.867-0.953c-0.039-0.043-0.09-0.078-0.133-0.121c-0.266-0.262-0.539-0.508-0.82-0.75
		c-0.109-0.09-0.234-0.18-0.348-0.27c-0.223-0.172-0.449-0.344-0.68-0.508c-0.141-0.098-0.285-0.188-0.426-0.277
		c-0.223-0.141-0.445-0.281-0.68-0.414c-0.156-0.086-0.313-0.168-0.469-0.25c-0.23-0.117-0.461-0.227-0.699-0.336
		c-0.164-0.074-0.332-0.145-0.5-0.211c-0.246-0.098-0.492-0.191-0.738-0.273c-0.168-0.055-0.336-0.117-0.508-0.164
		c-0.266-0.078-0.539-0.148-0.809-0.207c-0.16-0.039-0.32-0.082-0.484-0.117c-0.043-0.008-0.09-0.02-0.137-0.031
		c-1.07-5.738-5.602-10.273-11.34-11.34c-0.008-0.035-0.02-0.078-0.027-0.113c-0.039-0.195-0.086-0.383-0.133-0.574
		c-0.059-0.242-0.117-0.48-0.188-0.719c-0.055-0.195-0.117-0.383-0.188-0.574c-0.078-0.223-0.156-0.445-0.242-0.664
		c-0.078-0.191-0.156-0.375-0.242-0.563c-0.094-0.215-0.195-0.422-0.301-0.629c-0.09-0.176-0.188-0.355-0.285-0.531
		c-0.117-0.207-0.242-0.406-0.367-0.602c-0.102-0.168-0.211-0.336-0.32-0.496c-0.141-0.203-0.289-0.395-0.438-0.586
		c-0.117-0.148-0.227-0.297-0.344-0.438c-0.188-0.227-0.391-0.449-0.602-0.664c-0.094-0.098-0.176-0.199-0.266-0.293
		c-0.297-0.297-0.609-0.57-0.926-0.84c-0.129-0.105-0.262-0.199-0.395-0.305c-0.211-0.16-0.418-0.324-0.641-0.477
		c-0.148-0.102-0.305-0.199-0.461-0.297c-0.211-0.133-0.422-0.266-0.637-0.387c-0.164-0.094-0.336-0.18-0.504-0.266
		c-0.219-0.113-0.438-0.223-0.664-0.32c-0.176-0.082-0.348-0.152-0.527-0.227c-0.23-0.09-0.469-0.176-0.707-0.258
		c-0.18-0.059-0.359-0.121-0.539-0.172c-0.25-0.074-0.508-0.137-0.766-0.195c-0.176-0.047-0.348-0.09-0.523-0.121
		c-0.293-0.055-0.586-0.098-0.883-0.137c-0.148-0.02-0.297-0.047-0.453-0.059c-0.449-0.043-0.898-0.07-1.359-0.074h-0.008
		c-4.641,0-8.754,2.254-11.344,5.711c-2.582-3.457-6.695-5.711-11.336-5.711h-0.008c-0.461,0.004-0.91,0.031-1.363,0.074
		c-0.152,0.012-0.301,0.039-0.449,0.059c-0.297,0.039-0.594,0.082-0.883,0.137c-0.176,0.031-0.348,0.074-0.523,0.121
		c-0.258,0.059-0.516,0.121-0.766,0.195c-0.18,0.051-0.359,0.113-0.539,0.172c-0.238,0.082-0.477,0.168-0.707,0.258
		c-0.176,0.074-0.352,0.145-0.527,0.227c-0.227,0.098-0.445,0.207-0.664,0.32c-0.168,0.086-0.34,0.172-0.504,0.266
		c-0.215,0.121-0.426,0.254-0.637,0.387c-0.156,0.098-0.313,0.195-0.465,0.297c-0.219,0.152-0.426,0.316-0.637,0.477
		c-0.133,0.105-0.266,0.199-0.395,0.305c-0.316,0.27-0.629,0.543-0.926,0.84c-0.09,0.094-0.172,0.195-0.266,0.293
		c-0.211,0.215-0.414,0.438-0.602,0.664c-0.117,0.141-0.227,0.289-0.344,0.438c-0.148,0.191-0.297,0.383-0.438,0.586
		c-0.109,0.16-0.219,0.328-0.32,0.496c-0.125,0.195-0.25,0.395-0.367,0.602c-0.098,0.176-0.195,0.355-0.289,0.531
		c-0.102,0.207-0.203,0.414-0.297,0.629c-0.086,0.188-0.164,0.371-0.242,0.563c-0.086,0.219-0.164,0.441-0.242,0.664
		c-0.07,0.191-0.133,0.379-0.188,0.574c-0.07,0.238-0.129,0.477-0.188,0.719c-0.047,0.191-0.098,0.379-0.133,0.574
		c-0.008,0.035-0.02,0.078-0.027,0.113c-5.738,1.066-10.273,5.602-11.34,11.34c-0.047,0.012-0.094,0.023-0.137,0.031
		c-0.164,0.035-0.324,0.078-0.484,0.117c-0.27,0.059-0.543,0.129-0.809,0.207c-0.172,0.047-0.34,0.109-0.508,0.164
		c-0.25,0.082-0.496,0.176-0.734,0.273c-0.172,0.066-0.344,0.137-0.508,0.215c-0.234,0.105-0.461,0.215-0.688,0.332
		c-0.164,0.082-0.32,0.164-0.477,0.254c-0.227,0.129-0.449,0.266-0.673,0.406c-0.145,0.09-0.289,0.184-0.434,0.285
		c-0.23,0.152-0.449,0.328-0.668,0.496c-0.117,0.094-0.242,0.184-0.359,0.281c-0.273,0.23-0.539,0.473-0.797,0.723
		c-0.051,0.051-0.109,0.094-0.16,0.145c-0.301,0.305-0.59,0.621-0.859,0.949c-0.09,0.109-0.168,0.219-0.254,0.324
		c-0.18,0.23-0.359,0.465-0.523,0.707c-0.098,0.137-0.188,0.285-0.273,0.426c-0.145,0.223-0.285,0.449-0.414,0.68
		c-0.086,0.152-0.168,0.313-0.25,0.473c-0.117,0.227-0.227,0.461-0.336,0.695c-0.07,0.164-0.145,0.332-0.211,0.504
		c-0.098,0.238-0.188,0.484-0.27,0.727c-0.059,0.172-0.117,0.344-0.168,0.52c-0.078,0.262-0.141,0.523-0.203,0.785
		c-0.039,0.168-0.082,0.34-0.113,0.512c-0.059,0.293-0.098,0.594-0.141,0.895c-0.016,0.145-0.043,0.289-0.059,0.438
		c-0.047,0.453-0.07,0.914-0.07,1.371c0,0.465,0.023,0.926,0.074,1.383c0.012,0.152,0.039,0.301,0.059,0.449
		c0.039,0.301,0.078,0.598,0.137,0.895c0.035,0.172,0.082,0.34,0.121,0.508c0.059,0.27,0.125,0.543,0.207,0.813
		c0.047,0.168,0.105,0.332,0.164,0.496c0.055,0.168,0.098,0.34,0.164,0.504c-4.035,2.555-6.59,7.047-6.59,11.969
		c0,1.738,0.313,3.438,0.922,5.035c-0.875,0.555-1.695,1.199-2.445,1.945c-0.086,0.086-0.16,0.184-0.238,0.266
		c-0.051,0.047-0.09,0.098-0.133,0.145c-0.348,0.379-0.672,0.773-0.98,1.18c-0.035,0.051-0.07,0.102-0.109,0.152
		C4.68,64.169,3.941,65.72,3.5,67.36c-0.027,0.098-0.047,0.195-0.07,0.289c-0.109,0.441-0.195,0.887-0.266,1.34
		c-0.02,0.133-0.039,0.266-0.055,0.398C3.039,69.938,3,70.493,3,71.063c0,0.449,0.023,0.898,0.063,1.34
		c0.02,0.188,0.055,0.371,0.078,0.555c0.031,0.246,0.063,0.496,0.109,0.738c0.043,0.238,0.102,0.473,0.16,0.711
		c0.043,0.176,0.082,0.359,0.137,0.535c0.07,0.258,0.156,0.52,0.25,0.777c0.047,0.137,0.094,0.277,0.148,0.418
		c0.102,0.27,0.219,0.535,0.34,0.801c0.051,0.117,0.105,0.23,0.164,0.344c0.133,0.273,0.27,0.535,0.418,0.802
		c0.063,0.098,0.121,0.199,0.18,0.297c0.164,0.262,0.32,0.523,0.5,0.773c0.063,0.09,0.133,0.172,0.195,0.262
		c0.188,0.254,0.371,0.508,0.578,0.75c0.016,0.02,0.031,0.035,0.047,0.059c0.254,0.289,0.508,0.582,0.785,0.859
		c0.012,0.012,0.027,0.016,0.035,0.027c1.984,1.969,4.539,3.355,7.391,3.887c0.648,3.473,2.586,6.602,5.43,8.734v0.008
		c0,7.816,6.36,14.176,14.173,14.176c1.031,0,2.055-0.113,3.055-0.336c0.008,0.039,0.023,0.074,0.031,0.117
		c0.039,0.23,0.094,0.457,0.152,0.684c0.043,0.191,0.09,0.383,0.137,0.57c0.074,0.25,0.156,0.5,0.242,0.746
		c0.055,0.152,0.109,0.305,0.164,0.453c0.102,0.262,0.211,0.52,0.324,0.777c0.059,0.129,0.121,0.25,0.18,0.375
		c0.129,0.266,0.262,0.52,0.41,0.777c0.063,0.109,0.133,0.219,0.195,0.324c0.156,0.254,0.313,0.512,0.484,0.754
		c0.066,0.102,0.141,0.191,0.211,0.289c0.184,0.246,0.367,0.496,0.563,0.73c0.031,0.035,0.07,0.074,0.102,0.109
		c0.234,0.277,0.477,0.551,0.734,0.813c0.172,0.168,0.352,0.313,0.523,0.469c0.133,0.121,0.266,0.25,0.41,0.371
		c0.191,0.164,0.395,0.313,0.598,0.465c0.148,0.109,0.305,0.227,0.457,0.336c0.199,0.133,0.395,0.262,0.598,0.387
		c0.18,0.113,0.359,0.219,0.543,0.324c0.188,0.098,0.371,0.199,0.566,0.297c0.223,0.109,0.453,0.219,0.688,0.32
		c0.156,0.066,0.305,0.133,0.461,0.195c0.305,0.117,0.617,0.223,0.934,0.324c0.09,0.031,0.18,0.063,0.277,0.09
		c1.258,0.367,2.59,0.574,3.969,0.574c1.32,0,2.594-0.191,3.813-0.531c0.086-0.027,0.172-0.047,0.262-0.074
		c0.285-0.082,0.566-0.188,0.848-0.293c0.164-0.059,0.328-0.113,0.492-0.18c0.203-0.086,0.406-0.188,0.602-0.277
		c0.23-0.109,0.461-0.211,0.68-0.332c0.133-0.07,0.254-0.148,0.383-0.223c0.281-0.164,0.555-0.324,0.828-0.504
		c0.055-0.035,0.102-0.078,0.16-0.117c0.688-0.477,1.348-1.012,1.957-1.621c0.008-0.008,0.008-0.02,0.023-0.031
		c0.469-0.473,0.891-0.984,1.289-1.523c0.406,0.539,0.828,1.051,1.297,1.523c0.016,0.012,0.016,0.023,0.023,0.031
		c0.609,0.609,1.27,1.145,1.957,1.621c0.059,0.039,0.105,0.082,0.16,0.117c0.273,0.18,0.547,0.34,0.828,0.504
		c0.129,0.074,0.25,0.152,0.383,0.223c0.219,0.121,0.449,0.223,0.68,0.332c0.195,0.09,0.398,0.191,0.602,0.277
		c0.164,0.066,0.328,0.121,0.492,0.18c0.281,0.105,0.563,0.211,0.848,0.293c0.09,0.027,0.176,0.047,0.262,0.074
		c1.219,0.34,2.492,0.531,3.813,0.531c1.379,0,2.711-0.207,3.969-0.574c0.094-0.027,0.188-0.059,0.277-0.09
		c0.316-0.102,0.629-0.207,0.934-0.324c0.156-0.063,0.305-0.129,0.461-0.195c0.234-0.102,0.465-0.211,0.695-0.32
		c0.188-0.098,0.367-0.191,0.555-0.297c0.184-0.105,0.367-0.215,0.551-0.328c0.199-0.125,0.395-0.246,0.59-0.379
		c0.164-0.113,0.32-0.234,0.477-0.352c0.195-0.145,0.391-0.289,0.578-0.449c0.156-0.133,0.309-0.277,0.461-0.418
		c0.156-0.137,0.32-0.273,0.469-0.426c0.234-0.234,0.445-0.48,0.664-0.727c0.059-0.066,0.125-0.129,0.18-0.199
		c0.195-0.23,0.371-0.469,0.547-0.707c0.078-0.105,0.156-0.203,0.227-0.313c0.172-0.238,0.324-0.492,0.48-0.738
		c0.066-0.113,0.137-0.227,0.207-0.34c0.137-0.254,0.273-0.508,0.398-0.77c0.063-0.129,0.125-0.25,0.184-0.383
		c0.113-0.254,0.223-0.512,0.324-0.773c0.055-0.148,0.109-0.301,0.164-0.457c0.086-0.242,0.168-0.492,0.242-0.742
		c0.047-0.188,0.094-0.379,0.137-0.57c0.059-0.227,0.113-0.453,0.152-0.684c0.008-0.043,0.023-0.078,0.027-0.117
		c1,0.223,2.027,0.336,3.059,0.336c7.813,0,14.172-6.359,14.172-14.176v-0.008c2.844-2.133,4.777-5.262,5.43-8.734
		c2.859-0.531,5.407-1.922,7.392-3.891c0.008-0.008,0.023-0.012,0.039-0.023C118.154,80.834,118.385,80.572,118.611,80.307"/>
</g>
<g>
	<path fill="#FFFFFF" d="M36.853,68.228c7.816,0,14.172-6.355,14.172-14.172S44.669,39.88,36.853,39.88
		c-1.563,0-2.836,1.273-2.836,2.836c0,1.566,1.273,2.836,2.836,2.836c4.688,0,8.504,3.816,8.504,8.504
		c0,4.684-3.813,8.5-8.496,8.504c-0.004,0-0.004,0-0.008,0c-7.816,0-14.176,6.355-14.176,14.172c0,1.567,1.27,2.833,2.836,2.833
		s2.836-1.266,2.836-2.833c0-4.684,3.809-8.5,8.496-8.504H36.853z"/>
	<path fill="#FFFFFF" d="M82.204,62.56h-0.008c-4.688-0.004-8.492-3.816-8.492-8.5c0-4.695,3.813-8.512,8.5-8.512
		c1.566,0,2.836-1.266,2.836-2.828c0-1.57-1.27-2.84-2.836-2.84c-7.813,0-14.172,6.359-14.172,14.18
		c0,7.809,6.359,14.168,14.172,14.168h0.008c4.688,0.004,8.5,3.816,8.5,8.504c0,1.567,1.27,2.837,2.836,2.837
		c1.563,0,2.836-1.27,2.836-2.837C96.384,68.915,90.024,62.56,82.204,62.56"/>
	<path fill="#FFFFFF" d="M104.884,79.568c-1.566,0-2.836,1.27-2.836,2.836c0,3.059-1.656,5.895-4.336,7.402
		c-1,0.566-1.563,1.688-1.414,2.832c0.047,0.363,0.078,0.727,0.078,1.102c0,4.691-3.813,8.508-8.5,8.508
		c-1.129,0-2.246-0.234-3.289-0.676c-0.621-2.441-1.867-4.684-3.703-6.512c-1.102-1.113-2.898-1.113-4.008,0
		c-1.102,1.102-1.102,2.898,0,4.004c1.594,1.594,2.477,3.707,2.492,5.953c0,0.02,0,0.043,0,0.063c0,0.582-0.059,1.152-0.172,1.703
		c-0.008,0.059-0.039,0.117-0.055,0.18c-0.109,0.488-0.25,0.969-0.438,1.418c-0.008,0.023-0.023,0.043-0.031,0.063
		c-0.516,1.184-1.305,2.199-2.266,3.031c-0.27,0.234-0.531,0.477-0.82,0.668c-0.195,0.137-0.422,0.23-0.633,0.348
		c-0.281,0.152-0.555,0.324-0.848,0.445c-0.172,0.07-0.359,0.105-0.535,0.168c-0.359,0.121-0.711,0.242-1.07,0.316
		c-0.078,0.016-0.156,0.012-0.234,0.023c-0.93,0.152-1.867,0.152-2.797,0c-0.078-0.012-0.16-0.008-0.234-0.023
		c-0.367-0.074-0.719-0.195-1.07-0.316c-0.18-0.063-0.367-0.098-0.539-0.168c-0.297-0.121-0.57-0.293-0.855-0.449
		c-0.207-0.117-0.426-0.207-0.625-0.34c-0.293-0.199-0.566-0.449-0.844-0.688c-1.785-1.559-2.941-3.824-2.941-6.379V88.045
		c2.375,1.785,5.313,2.863,8.508,2.863c1.563,0,2.836-1.27,2.836-2.836s-1.273-2.832-2.836-2.832c-4.688,0-8.508-3.816-8.508-8.509
		V14.368c0-4.688,3.82-8.504,8.508-8.504s8.5,3.816,8.5,8.504v0.004c0,4.691-3.813,8.5-8.5,8.5c-1.566,0-2.836,1.27-2.836,2.836
		s1.27,2.832,2.836,2.832c6.695,0,12.313-4.676,13.785-10.934c3.492,1.059,6.059,4.27,6.059,8.102c0,1.566,1.266,2.832,2.836,2.832
		c4.688,0,8.5,3.816,8.5,8.504c0,0.531-0.063,1.043-0.156,1.543c-0.023,0.141-0.063,0.277-0.094,0.422
		c-0.094,0.379-0.203,0.746-0.344,1.102c-0.043,0.121-0.086,0.242-0.141,0.363c-1.324,2.984-4.297,5.082-7.766,5.082
		c-1.57,0-2.836,1.262-2.836,2.832c0,1.566,1.266,2.836,2.836,2.836c3.992,0,7.598-1.668,10.18-4.336
		c2.438,1.531,3.992,4.211,3.992,7.172c0,1.043-0.211,2.063-0.582,3.023c-0.738-0.117-1.492-0.191-2.254-0.191
		c-3.785,0-7.344,1.469-10.023,4.148c-1.105,1.105-1.105,2.902,0,4.008c1.109,1.109,2.902,1.109,4.008,0
		c1.609-1.605,3.742-2.488,6.016-2.488c1.023,0,2.008,0.199,2.941,0.547c0.266,0.094,0.52,0.215,0.773,0.34
		c0.199,0.098,0.402,0.203,0.598,0.316c0.219,0.133,0.438,0.266,0.648,0.418c0.234,0.168,0.453,0.359,0.672,0.559
		c0.156,0.133,0.313,0.254,0.453,0.398c0.329,0.336,0.626,0.699,0.892,1.086c0.117,0.172,0.219,0.359,0.328,0.543
		c0.148,0.246,0.281,0.496,0.402,0.75c0.098,0.207,0.176,0.414,0.254,0.621c0.105,0.281,0.188,0.57,0.262,0.859
		c0.047,0.188,0.098,0.375,0.137,0.566c0.082,0.473,0.133,0.953,0.141,1.445c0,0.016,0,0.035,0,0.055
		c0,0.582-0.059,1.156-0.172,1.703c-0.008,0.051-0.031,0.098-0.039,0.148C112.318,76.712,108.935,79.568,104.884,79.568
		 M22.681,93.74c0-0.375,0.031-0.738,0.078-1.102c0.148-1.145-0.414-2.266-1.414-2.832c-2.672-1.508-4.337-4.348-4.337-7.406
		c0-1.566-1.273-2.832-2.836-2.832c-3.5,0-6.508-2.13-7.813-5.157c0-0.016-0.016-0.031-0.023-0.043
		c-0.191-0.453-0.328-0.938-0.445-1.426c-0.008-0.063-0.039-0.117-0.047-0.176c-0.117-0.547-0.172-1.121-0.172-1.703
		c0-0.02,0-0.039,0-0.055c0.008-0.492,0.063-0.973,0.145-1.445c0.035-0.191,0.09-0.379,0.133-0.566
		c0.074-0.289,0.16-0.578,0.262-0.859c0.078-0.207,0.164-0.414,0.254-0.621c0.121-0.254,0.262-0.504,0.402-0.75
		c0.109-0.184,0.211-0.371,0.328-0.543c0.27-0.387,0.563-0.75,0.895-1.086c0.137-0.145,0.301-0.266,0.449-0.398
		c0.219-0.199,0.441-0.391,0.68-0.559c0.203-0.152,0.422-0.285,0.641-0.418c0.195-0.113,0.398-0.219,0.598-0.316
		c0.254-0.125,0.508-0.246,0.777-0.34c0.93-0.348,1.914-0.547,2.938-0.547c2.273,0,4.411,0.883,6.017,2.488
		c1.105,1.109,2.902,1.109,4.008,0c1.105-1.105,1.105-2.902,0-4.008c-2.68-2.68-6.238-4.148-10.024-4.148
		c-0.762,0-1.516,0.074-2.254,0.191c-0.371-0.961-0.582-1.98-0.582-3.023c0-2.961,1.563-5.641,4-7.172
		c2.575,2.668,6.181,4.336,10.181,4.336c1.563,0,2.828-1.27,2.828-2.836c0-1.57-1.266-2.832-2.828-2.832
		c-3.477,0-6.453-2.098-7.774-5.082c-0.055-0.121-0.094-0.242-0.141-0.363c-0.141-0.355-0.25-0.723-0.344-1.102
		c-0.031-0.145-0.07-0.281-0.094-0.422c-0.094-0.5-0.156-1.012-0.156-1.543c0-0.582,0.063-1.152,0.172-1.711
		c0.794-3.867,4.231-6.793,8.337-6.793c1.563,0,2.828-1.266,2.828-2.832v-0.004c0-3.832,2.566-7.039,6.055-8.098
		c1.477,6.258,7.09,10.934,13.789,10.934c1.566,0,2.836-1.266,2.836-2.832s-1.27-2.836-2.836-2.836c-4.688,0-8.5-3.809-8.5-8.5
		v-0.004c0-4.688,3.813-8.504,8.5-8.504s8.508,3.816,8.508,8.504v62.363c0,4.692-3.82,8.509-8.508,8.509
		c-1.563,0-2.836,1.266-2.836,2.832s1.273,2.836,2.836,2.836c3.195,0,6.133-1.078,8.508-2.863v17.035
		c0,2.555-1.156,4.824-2.945,6.383c-0.277,0.238-0.547,0.488-0.84,0.684c-0.199,0.133-0.422,0.223-0.629,0.34
		c-0.281,0.156-0.563,0.328-0.852,0.449c-0.172,0.07-0.359,0.105-0.539,0.168c-0.352,0.121-0.703,0.242-1.07,0.316
		c-0.074,0.016-0.156,0.012-0.234,0.023c-0.93,0.152-1.875,0.152-2.797,0c-0.078-0.012-0.156-0.008-0.234-0.023
		c-0.359-0.074-0.711-0.195-1.07-0.316c-0.176-0.063-0.363-0.098-0.535-0.168c-0.293-0.121-0.566-0.293-0.852-0.449
		c-0.207-0.113-0.434-0.207-0.629-0.34c-0.289-0.195-0.555-0.441-0.824-0.672c-0.957-0.836-1.746-1.852-2.262-3.031
		c-0.008-0.02-0.023-0.039-0.031-0.063c-0.188-0.449-0.328-0.93-0.438-1.418c-0.016-0.063-0.047-0.121-0.055-0.18
		c-0.113-0.551-0.172-1.121-0.172-1.703c0-0.02,0-0.043,0-0.063c0.016-2.246,0.898-4.359,2.492-5.953
		c1.105-1.105,1.105-2.902,0-4.004c-1.109-1.113-2.906-1.113-4.008,0c-1.836,1.828-3.082,4.07-3.703,6.512
		c-1.043,0.441-2.16,0.676-3.289,0.676C26.489,102.248,22.681,98.432,22.681,93.74 M115.611,80.307
		c0.039-0.047,0.086-0.094,0.133-0.145c0.195-0.234,0.375-0.48,0.555-0.723c0.07-0.098,0.145-0.191,0.219-0.289
		c0.172-0.246,0.328-0.5,0.484-0.758c0.063-0.105,0.129-0.211,0.188-0.316c0.148-0.259,0.285-0.517,0.418-0.782
		c0.059-0.121,0.113-0.238,0.168-0.363c0.117-0.262,0.234-0.52,0.336-0.789c0.055-0.145,0.102-0.289,0.152-0.434
		c0.09-0.25,0.176-0.508,0.246-0.766c0.055-0.18,0.094-0.359,0.137-0.543c0.059-0.234,0.117-0.465,0.16-0.703
		c0.047-0.242,0.078-0.496,0.113-0.742c0.023-0.184,0.055-0.363,0.07-0.551c0.043-0.441,0.066-0.891,0.066-1.34
		c0-0.57-0.039-1.125-0.105-1.676c-0.016-0.133-0.039-0.266-0.059-0.398c-0.07-0.453-0.156-0.898-0.266-1.34
		c-0.023-0.094-0.043-0.191-0.07-0.289c-0.441-1.641-1.18-3.191-2.188-4.578c-0.039-0.051-0.074-0.102-0.109-0.152
		c-0.305-0.406-0.633-0.801-0.98-1.18c-0.043-0.047-0.082-0.098-0.129-0.145c-0.086-0.082-0.16-0.18-0.242-0.266
		c-0.75-0.746-1.57-1.391-2.441-1.945c0.605-1.598,0.918-3.297,0.918-5.035c0-4.922-2.548-9.414-6.591-11.969
		c0.066-0.164,0.105-0.336,0.164-0.504c0.059-0.164,0.113-0.328,0.164-0.496c0.082-0.27,0.148-0.543,0.215-0.813
		c0.031-0.168,0.078-0.336,0.113-0.508c0.059-0.297,0.098-0.594,0.137-0.895c0.02-0.148,0.047-0.297,0.063-0.449
		c0.047-0.457,0.07-0.918,0.07-1.383c0-0.457-0.023-0.918-0.07-1.371c-0.016-0.148-0.039-0.293-0.059-0.434
		c-0.043-0.305-0.082-0.605-0.141-0.902c-0.031-0.168-0.074-0.336-0.113-0.504c-0.063-0.266-0.125-0.527-0.203-0.789
		c-0.051-0.176-0.109-0.344-0.164-0.516c-0.086-0.246-0.176-0.496-0.273-0.734c-0.066-0.168-0.133-0.332-0.211-0.496
		c-0.102-0.238-0.219-0.477-0.34-0.707c-0.082-0.156-0.16-0.313-0.246-0.465c-0.129-0.234-0.273-0.461-0.418-0.688
		c-0.09-0.141-0.172-0.281-0.262-0.414c-0.172-0.25-0.359-0.488-0.547-0.723c-0.078-0.105-0.148-0.207-0.234-0.309
		c-0.273-0.332-0.563-0.648-0.867-0.953c-0.039-0.043-0.09-0.078-0.133-0.121c-0.266-0.262-0.539-0.508-0.82-0.75
		c-0.109-0.09-0.234-0.18-0.348-0.27c-0.223-0.172-0.449-0.344-0.68-0.508c-0.141-0.098-0.285-0.188-0.426-0.277
		c-0.223-0.141-0.445-0.281-0.68-0.414c-0.156-0.086-0.313-0.168-0.469-0.25c-0.23-0.117-0.461-0.227-0.699-0.336
		c-0.164-0.074-0.332-0.145-0.5-0.211c-0.246-0.098-0.492-0.191-0.738-0.273c-0.168-0.055-0.336-0.117-0.508-0.164
		c-0.266-0.078-0.539-0.148-0.809-0.207c-0.16-0.039-0.32-0.082-0.484-0.117c-0.043-0.008-0.09-0.02-0.137-0.031
		c-1.07-5.738-5.602-10.273-11.34-11.34c-0.008-0.035-0.02-0.078-0.027-0.113c-0.039-0.195-0.086-0.383-0.133-0.574
		c-0.059-0.242-0.117-0.48-0.188-0.719c-0.055-0.195-0.117-0.383-0.188-0.574c-0.078-0.223-0.156-0.445-0.242-0.664
		c-0.078-0.191-0.156-0.375-0.242-0.563c-0.094-0.215-0.195-0.422-0.301-0.629c-0.09-0.176-0.188-0.355-0.285-0.531
		c-0.117-0.207-0.242-0.406-0.367-0.602c-0.102-0.168-0.211-0.336-0.32-0.496c-0.141-0.203-0.289-0.395-0.438-0.586
		c-0.117-0.148-0.227-0.297-0.344-0.438c-0.188-0.227-0.391-0.449-0.602-0.664c-0.094-0.098-0.176-0.199-0.266-0.293
		c-0.297-0.297-0.609-0.57-0.926-0.84c-0.129-0.105-0.262-0.199-0.395-0.305c-0.211-0.16-0.418-0.324-0.641-0.477
		c-0.148-0.102-0.305-0.199-0.461-0.297c-0.211-0.133-0.422-0.266-0.637-0.387c-0.164-0.094-0.336-0.18-0.504-0.266
		c-0.219-0.113-0.438-0.223-0.664-0.32c-0.176-0.082-0.348-0.152-0.527-0.227c-0.23-0.09-0.469-0.176-0.707-0.258
		c-0.18-0.059-0.359-0.121-0.539-0.172c-0.25-0.074-0.508-0.137-0.766-0.195c-0.176-0.047-0.348-0.09-0.523-0.121
		c-0.293-0.055-0.586-0.098-0.883-0.137c-0.148-0.02-0.297-0.047-0.453-0.059c-0.449-0.043-0.898-0.07-1.359-0.074h-0.008
		c-4.641,0-8.754,2.254-11.344,5.711c-2.582-3.457-6.695-5.711-11.336-5.711h-0.008c-0.461,0.004-0.91,0.031-1.363,0.074
		c-0.152,0.012-0.301,0.039-0.449,0.059c-0.297,0.039-0.594,0.082-0.883,0.137c-0.176,0.031-0.348,0.074-0.523,0.121
		c-0.258,0.059-0.516,0.121-0.766,0.195c-0.18,0.051-0.359,0.113-0.539,0.172c-0.238,0.082-0.477,0.168-0.707,0.258
		c-0.176,0.074-0.352,0.145-0.527,0.227c-0.227,0.098-0.445,0.207-0.664,0.32c-0.168,0.086-0.34,0.172-0.504,0.266
		c-0.215,0.121-0.426,0.254-0.637,0.387c-0.156,0.098-0.313,0.195-0.465,0.297c-0.219,0.152-0.426,0.316-0.637,0.477
		c-0.133,0.105-0.266,0.199-0.395,0.305c-0.316,0.27-0.629,0.543-0.926,0.84c-0.09,0.094-0.172,0.195-0.266,0.293
		c-0.211,0.215-0.414,0.438-0.602,0.664c-0.117,0.141-0.227,0.289-0.344,0.438c-0.148,0.191-0.297,0.383-0.438,0.586
		c-0.109,0.16-0.219,0.328-0.32,0.496c-0.125,0.195-0.25,0.395-0.367,0.602c-0.098,0.176-0.195,0.355-0.289,0.531
		c-0.102,0.207-0.203,0.414-0.297,0.629c-0.086,0.188-0.164,0.371-0.242,0.563c-0.086,0.219-0.164,0.441-0.242,0.664
		c-0.07,0.191-0.133,0.379-0.188,0.574c-0.07,0.238-0.129,0.477-0.188,0.719c-0.047,0.191-0.098,0.379-0.133,0.574
		c-0.008,0.035-0.02,0.078-0.027,0.113c-5.738,1.066-10.273,5.602-11.34,11.34c-0.047,0.012-0.094,0.023-0.137,0.031
		c-0.164,0.035-0.324,0.078-0.484,0.117c-0.27,0.059-0.543,0.129-0.809,0.207c-0.172,0.047-0.34,0.109-0.508,0.164
		c-0.25,0.082-0.496,0.176-0.734,0.273c-0.172,0.066-0.344,0.137-0.508,0.215c-0.234,0.105-0.461,0.215-0.688,0.332
		c-0.164,0.082-0.32,0.164-0.477,0.254c-0.227,0.129-0.449,0.266-0.673,0.406c-0.145,0.09-0.289,0.184-0.434,0.285
		c-0.23,0.152-0.449,0.328-0.668,0.496c-0.117,0.094-0.242,0.184-0.359,0.281c-0.273,0.23-0.539,0.473-0.797,0.723
		c-0.051,0.051-0.109,0.094-0.16,0.145c-0.301,0.305-0.59,0.621-0.859,0.949c-0.09,0.109-0.168,0.219-0.254,0.324
		c-0.18,0.23-0.359,0.465-0.523,0.707c-0.098,0.137-0.188,0.285-0.273,0.426c-0.145,0.223-0.285,0.449-0.414,0.68
		c-0.086,0.152-0.168,0.313-0.25,0.473c-0.117,0.227-0.227,0.461-0.336,0.695c-0.07,0.164-0.145,0.332-0.211,0.504
		c-0.098,0.238-0.188,0.484-0.27,0.727c-0.059,0.172-0.117,0.344-0.168,0.52c-0.078,0.262-0.141,0.523-0.203,0.785
		c-0.039,0.168-0.082,0.34-0.113,0.512c-0.059,0.293-0.098,0.594-0.141,0.895c-0.016,0.145-0.043,0.289-0.059,0.438
		c-0.047,0.453-0.07,0.914-0.07,1.371c0,0.465,0.023,0.926,0.074,1.383c0.012,0.152,0.039,0.301,0.059,0.449
		c0.039,0.301,0.078,0.598,0.137,0.895c0.035,0.172,0.082,0.34,0.121,0.508c0.059,0.27,0.125,0.543,0.207,0.813
		c0.047,0.168,0.105,0.332,0.164,0.496c0.055,0.168,0.098,0.34,0.164,0.504c-4.035,2.555-6.59,7.047-6.59,11.969
		c0,1.738,0.313,3.438,0.922,5.035c-0.875,0.555-1.695,1.199-2.445,1.945c-0.086,0.086-0.16,0.184-0.238,0.266
		c-0.051,0.047-0.09,0.098-0.133,0.145c-0.348,0.379-0.672,0.773-0.98,1.18c-0.035,0.051-0.07,0.102-0.109,0.152
		C1.68,64.169,0.941,65.72,0.5,67.36c-0.027,0.098-0.047,0.195-0.07,0.289c-0.109,0.441-0.195,0.887-0.266,1.34
		c-0.02,0.133-0.039,0.266-0.055,0.398C0.039,69.938,0,70.493,0,71.063c0,0.449,0.023,0.898,0.063,1.34
		c0.02,0.188,0.055,0.371,0.078,0.555c0.031,0.246,0.063,0.496,0.109,0.738c0.043,0.238,0.102,0.473,0.16,0.711
		c0.043,0.176,0.082,0.359,0.137,0.535c0.07,0.258,0.156,0.52,0.25,0.777c0.047,0.137,0.094,0.277,0.148,0.418
		c0.102,0.27,0.219,0.535,0.34,0.801c0.051,0.117,0.105,0.23,0.164,0.344c0.133,0.273,0.27,0.535,0.418,0.802
		c0.063,0.098,0.121,0.199,0.18,0.297c0.164,0.262,0.32,0.523,0.5,0.773c0.063,0.09,0.133,0.172,0.195,0.262
		c0.188,0.254,0.371,0.508,0.578,0.75c0.016,0.02,0.031,0.035,0.047,0.059c0.254,0.289,0.508,0.582,0.785,0.859
		c0.012,0.012,0.027,0.016,0.035,0.027c1.984,1.969,4.539,3.355,7.391,3.887c0.648,3.473,2.586,6.602,5.43,8.734v0.008
		c0,7.816,6.36,14.176,14.173,14.176c1.031,0,2.055-0.113,3.055-0.336c0.008,0.039,0.023,0.074,0.031,0.117
		c0.039,0.23,0.094,0.457,0.152,0.684c0.043,0.191,0.09,0.383,0.137,0.57c0.074,0.25,0.156,0.5,0.242,0.746
		c0.055,0.152,0.109,0.305,0.164,0.453c0.102,0.262,0.211,0.52,0.324,0.777c0.059,0.129,0.121,0.25,0.18,0.375
		c0.129,0.266,0.262,0.52,0.41,0.777c0.063,0.109,0.133,0.219,0.195,0.324c0.156,0.254,0.313,0.512,0.484,0.754
		c0.066,0.102,0.141,0.191,0.211,0.289c0.184,0.246,0.367,0.496,0.563,0.73c0.031,0.035,0.07,0.074,0.102,0.109
		c0.234,0.277,0.477,0.551,0.734,0.813c0.172,0.168,0.352,0.313,0.523,0.469c0.133,0.121,0.266,0.25,0.41,0.371
		c0.191,0.164,0.395,0.313,0.598,0.465c0.148,0.109,0.305,0.227,0.457,0.336c0.199,0.133,0.395,0.262,0.598,0.387
		c0.18,0.113,0.359,0.219,0.543,0.324c0.188,0.098,0.371,0.199,0.566,0.297c0.223,0.109,0.453,0.219,0.688,0.32
		c0.156,0.066,0.305,0.133,0.461,0.195c0.305,0.117,0.617,0.223,0.934,0.324c0.09,0.031,0.18,0.063,0.277,0.09
		c1.258,0.367,2.59,0.574,3.969,0.574c1.32,0,2.594-0.191,3.813-0.531c0.086-0.027,0.172-0.047,0.262-0.074
		c0.285-0.082,0.566-0.188,0.848-0.293c0.164-0.059,0.328-0.113,0.492-0.18c0.203-0.086,0.406-0.188,0.602-0.277
		c0.23-0.109,0.461-0.211,0.68-0.332c0.133-0.07,0.254-0.148,0.383-0.223c0.281-0.164,0.555-0.324,0.828-0.504
		c0.055-0.035,0.102-0.078,0.16-0.117c0.688-0.477,1.348-1.012,1.957-1.621c0.008-0.008,0.008-0.02,0.023-0.031
		c0.469-0.473,0.891-0.984,1.289-1.523c0.406,0.539,0.828,1.051,1.297,1.523c0.016,0.012,0.016,0.023,0.023,0.031
		c0.609,0.609,1.27,1.145,1.957,1.621c0.059,0.039,0.105,0.082,0.16,0.117c0.273,0.18,0.547,0.34,0.828,0.504
		c0.129,0.074,0.25,0.152,0.383,0.223c0.219,0.121,0.449,0.223,0.68,0.332c0.195,0.09,0.398,0.191,0.602,0.277
		c0.164,0.066,0.328,0.121,0.492,0.18c0.281,0.105,0.563,0.211,0.848,0.293c0.09,0.027,0.176,0.047,0.262,0.074
		c1.219,0.34,2.492,0.531,3.813,0.531c1.379,0,2.711-0.207,3.969-0.574c0.094-0.027,0.188-0.059,0.277-0.09
		c0.316-0.102,0.629-0.207,0.934-0.324c0.156-0.063,0.305-0.129,0.461-0.195c0.234-0.102,0.465-0.211,0.695-0.32
		c0.188-0.098,0.367-0.191,0.555-0.297c0.184-0.105,0.367-0.215,0.551-0.328c0.199-0.125,0.395-0.246,0.59-0.379
		c0.164-0.113,0.32-0.234,0.477-0.352c0.195-0.145,0.391-0.289,0.578-0.449c0.156-0.133,0.309-0.277,0.461-0.418
		c0.156-0.137,0.32-0.273,0.469-0.426c0.234-0.234,0.445-0.48,0.664-0.727c0.059-0.066,0.125-0.129,0.18-0.199
		c0.195-0.23,0.371-0.469,0.547-0.707c0.078-0.105,0.156-0.203,0.227-0.313c0.172-0.238,0.324-0.492,0.48-0.738
		c0.066-0.113,0.137-0.227,0.207-0.34c0.137-0.254,0.273-0.508,0.398-0.77c0.063-0.129,0.125-0.25,0.184-0.383
		c0.113-0.254,0.223-0.512,0.324-0.773c0.055-0.148,0.109-0.301,0.164-0.457c0.086-0.242,0.168-0.492,0.242-0.742
		c0.047-0.188,0.094-0.379,0.137-0.57c0.059-0.227,0.113-0.453,0.152-0.684c0.008-0.043,0.023-0.078,0.027-0.117
		c1,0.223,2.027,0.336,3.059,0.336c7.813,0,14.172-6.359,14.172-14.176v-0.008c2.844-2.133,4.777-5.262,5.43-8.734
		c2.859-0.531,5.407-1.922,7.392-3.891c0.008-0.008,0.023-0.012,0.039-0.023C115.154,80.834,115.385,80.572,115.611,80.307"/>
</g>
<g>
</g>
<g>
</g>
<g>
</g>
<g>
</g>
<g>
</g>
<g>
</g>
</svg>
