<?xml version="1.0" encoding="utf-8"?>
<!-- Generator: Adobe Illustrator 16.0.0, SVG Export Plug-In . SVG Version: 6.00 Build 0)  -->
<!DOCTYPE svg PUBLIC "-//W3C//DTD SVG 1.1//EN" "http://www.w3.org/Graphics/SVG/1.1/DTD/svg11.dtd">
<svg version="1.1" id="Calque_1" xmlns="http://www.w3.org/2000/svg" xmlns:xlink="http://www.w3.org/1999/xlink" x="0px" y="0px"
	 width="122.055px" height="96.379px" viewBox="0 0 122.055 96.379" enable-background="new 0 0 122.055 96.379"
	 xml:space="preserve">
<g>
	<path fill="#007F89" d="M17.199,90.711c-0.051-0.004-4.246-0.102-6.691-2.859c3.125-8.82,11.32-27.035,28.031-36.426
		c5.16,2.48,11.012,4.238,17.633,4.934c0.094,0.008,0.18,0.012,0.273,0.02c0.922,0.094,1.852,0.172,2.805,0.223
		c1.086,0.063,2.176,0.094,3.277,0.094c1.098,0,2.191-0.031,3.277-0.094c0.938-0.047,1.852-0.129,2.766-0.219
		c0.102-0.012,0.211-0.016,0.313-0.027c6.625-0.691,12.469-2.449,17.625-4.934c16.723,9.395,24.918,27.633,28.02,36.383
		c-0.676,0.91-1.527,1.582-2.535,2.066c-0.102,0.047-0.195,0.109-0.313,0.152c-0.449,0.188-0.941,0.328-1.457,0.434
		c-0.164,0.043-0.336,0.07-0.512,0.098c-0.578,0.09-1.172,0.156-1.828,0.156H17.199z M8.672,19
		c4.516,9.664,12.109,21.457,24.203,29.25C20.82,56.043,13.234,67.648,8.672,77.395V19z M107.883,5.672
		c0.656,0,1.25,0.063,1.828,0.156c0.176,0.027,0.348,0.055,0.512,0.09c0.52,0.113,1.012,0.25,1.457,0.441
		c0.117,0.043,0.211,0.105,0.32,0.152c1,0.484,1.852,1.156,2.531,2.066c-3.539,10.043-12.031,28.098-29.289,37.074
		c-0.02,0.008-0.039,0.012-0.063,0.023c-6.836,3.547-14.457,5.352-22.652,5.352c-8.199,0-15.82-1.805-22.656-5.352
		c-0.035-0.02-0.074-0.023-0.105-0.039C22.535,36.66,14.055,18.625,10.508,8.531c2.438-2.766,6.641-2.859,6.664-2.859H107.883z
		 M92.172,48.246c12.109-7.805,19.703-19.609,24.215-29.25v58.398C111.828,67.664,104.234,56.039,92.172,48.246 M114.477,1.375
		c-0.047-0.023-0.098-0.039-0.148-0.063c-0.484-0.227-1-0.422-1.547-0.59c-0.156-0.051-0.32-0.098-0.484-0.145
		c-0.484-0.133-0.992-0.238-1.523-0.324c-0.195-0.035-0.387-0.07-0.594-0.098C109.453,0.063,108.695,0,107.883,0H17.172h-0.008
		c-0.039,0-0.203,0.004-0.453,0.02C11.711,0.195,3,3.301,3,14.176v68.031c0,10.867,8.699,13.973,13.699,14.156
		c0.262,0.012,0.434,0.016,0.473,0.016h90.711c0.773,0,1.52-0.055,2.25-0.152c0.398-0.047,0.762-0.133,1.133-0.203
		c0.281-0.059,0.563-0.109,0.828-0.18c0.473-0.125,0.914-0.273,1.336-0.434c0.145-0.055,0.293-0.105,0.438-0.164
		c0.469-0.195,0.902-0.41,1.313-0.645c0.117-0.059,0.223-0.117,0.328-0.184c0.41-0.246,0.797-0.512,1.148-0.785
		c0.125-0.094,0.25-0.191,0.371-0.289c0.316-0.27,0.613-0.543,0.891-0.828c0.145-0.148,0.293-0.293,0.434-0.449
		c0.242-0.277,0.461-0.555,0.664-0.836c0.18-0.234,0.355-0.469,0.52-0.719c0.219-0.34,0.434-0.684,0.613-1.02
		c0.008-0.02,0.016-0.047,0.023-0.066c0.051-0.098,0.117-0.184,0.164-0.281c1.672-3.34,1.719-6.582,1.719-6.938V14.176
		C122.055,10.422,120.313,4.137,114.477,1.375"/>
</g>
<g>
	<path fill="#161B20" d="M14.199,90.711c-0.051-0.004-4.246-0.102-6.691-2.859c3.125-8.82,11.32-27.035,28.031-36.426
		c5.16,2.48,11.012,4.238,17.633,4.934c0.094,0.008,0.18,0.012,0.273,0.02c0.922,0.094,1.852,0.172,2.805,0.223
		c1.086,0.063,2.176,0.094,3.277,0.094c1.098,0,2.191-0.031,3.277-0.094c0.938-0.047,1.852-0.129,2.766-0.219
		c0.102-0.012,0.211-0.016,0.313-0.027c6.625-0.691,12.469-2.449,17.625-4.934c16.723,9.395,24.918,27.633,28.02,36.383
		c-0.676,0.91-1.527,1.582-2.535,2.066c-0.102,0.047-0.195,0.109-0.313,0.152c-0.449,0.188-0.941,0.328-1.457,0.434
		c-0.164,0.043-0.336,0.07-0.512,0.098c-0.578,0.09-1.172,0.156-1.828,0.156H14.199z M5.672,19
		c4.516,9.664,12.109,21.457,24.203,29.25C17.82,56.043,10.234,67.648,5.672,77.395V19z M104.883,5.672
		c0.656,0,1.25,0.063,1.828,0.156c0.176,0.027,0.348,0.055,0.512,0.09c0.52,0.113,1.012,0.25,1.457,0.441
		c0.117,0.043,0.211,0.105,0.32,0.152c1,0.484,1.852,1.156,2.531,2.066C107.992,18.621,99.5,36.676,82.242,45.652
		c-0.02,0.008-0.039,0.012-0.063,0.023c-6.836,3.547-14.457,5.352-22.652,5.352c-8.199,0-15.82-1.805-22.656-5.352
		c-0.035-0.02-0.074-0.023-0.105-0.039C19.535,36.66,11.055,18.625,7.508,8.531c2.438-2.766,6.641-2.859,6.664-2.859H104.883z
		 M89.172,48.246c12.109-7.805,19.703-19.609,24.215-29.25v58.398C108.828,67.664,101.234,56.039,89.172,48.246 M111.477,1.375
		c-0.047-0.023-0.098-0.039-0.148-0.063c-0.484-0.227-1-0.422-1.547-0.59c-0.156-0.051-0.32-0.098-0.484-0.145
		c-0.484-0.133-0.992-0.238-1.523-0.324c-0.195-0.035-0.387-0.07-0.594-0.098C106.453,0.063,105.695,0,104.883,0H14.172h-0.008
		c-0.039,0-0.203,0.004-0.453,0.02C8.711,0.195,0,3.301,0,14.176v68.031C0,93.074,8.699,96.18,13.699,96.363
		c0.262,0.012,0.434,0.016,0.473,0.016h90.711c0.773,0,1.52-0.055,2.25-0.152c0.398-0.047,0.762-0.133,1.133-0.203
		c0.281-0.059,0.563-0.109,0.828-0.18c0.473-0.125,0.914-0.273,1.336-0.434c0.145-0.055,0.293-0.105,0.438-0.164
		c0.469-0.195,0.902-0.41,1.313-0.645c0.117-0.059,0.223-0.117,0.328-0.184c0.41-0.246,0.797-0.512,1.148-0.785
		c0.125-0.094,0.25-0.191,0.371-0.289c0.316-0.27,0.613-0.543,0.891-0.828c0.145-0.148,0.293-0.293,0.434-0.449
		c0.242-0.277,0.461-0.555,0.664-0.836c0.18-0.234,0.355-0.469,0.52-0.719c0.219-0.34,0.434-0.684,0.613-1.02
		c0.008-0.02,0.016-0.047,0.023-0.066c0.051-0.098,0.117-0.184,0.164-0.281c1.672-3.34,1.719-6.582,1.719-6.938V14.176
		C119.055,10.422,117.313,4.137,111.477,1.375"/>
</g>
<g>
</g>
<g>
</g>
<g>
</g>
<g>
</g>
<g>
</g>
<g>
</g>
</svg>
