<?xml version="1.0" encoding="utf-8"?>
<!-- Generator: Adobe Illustrator 16.0.0, SVG Export Plug-In . SVG Version: 6.00 Build 0)  -->
<!DOCTYPE svg PUBLIC "-//W3C//DTD SVG 1.1//EN" "http://www.w3.org/Graphics/SVG/1.1/DTD/svg11.dtd">
<svg version="1.1" id="Calque_1" xmlns="http://www.w3.org/2000/svg" xmlns:xlink="http://www.w3.org/1999/xlink" x="0px" y="0px"
	 width="48.067px" height="64.926px" viewBox="0 0 48.067 64.926" enable-background="new 0 0 48.067 64.926" xml:space="preserve">
<g>
	<path fill="#161B20" d="M2,12.592l4.118,47.086l18.922,5.248l18.907-5.244l4.12-47.09H2z M39.026,26.644L39.026,26.644
		l-0.116,1.344l-0.002,0.021h-0.044L32.992,30.5l-8.115,3.447h7.814h5.699l-0.498,5.674l-0.519,5.925l-0.527,6.036l-0.861,0.238
		l-0.34,0.094l-10.62,2.945l-10.285-2.853H14.74l-0.334-0.093l0,0l-1.154-0.319l-0.528-6.037l-0.264-3.019h5.698l0.406,4.639
		l6.462,1.791l6.509-1.803l0.66-7.545H17.901h-5.697l-0.025-0.284l0,0l-0.473-5.39h-0.134l0.129-0.056l5.496-2.333l8.363-3.551
		h-8.674h-5.697l-0.498-5.676h5.699h17.316h5.699L39.026,26.644z"/>
	<polygon fill="#161B20" points="19.985,2.885 19.985,0 15.826,0 12.943,0 12.943,2.885 12.943,5.673 12.943,8.557 15.826,8.557 
		19.985,8.557 19.985,5.673 15.826,5.673 15.826,2.885 	"/>
	<polygon fill="#161B20" points="28.459,5.672 25.672,2.885 25.671,2.885 28.64,2.885 28.64,0 21.594,0 21.594,2.885 21.594,2.885 
		21.594,2.885 24.382,5.672 21.594,5.672 21.594,8.557 27.266,8.557 27.929,8.557 28.64,8.557 28.64,7.847 28.64,5.852 	"/>
	<polygon fill="#161B20" points="37.109,5.672 34.323,2.885 34.322,2.885 37.291,2.885 37.291,0 30.245,0 30.245,2.885 
		30.245,2.885 30.245,2.885 33.032,5.672 30.245,5.672 30.245,8.557 35.917,8.557 36.58,8.557 37.291,8.557 37.291,7.847 
		37.291,5.852 	"/>
</g>
<g>
	<path fill="#FFFFFF" d="M0,12.592l4.118,47.086l18.922,5.248l18.907-5.244l4.12-47.09H0z M37.026,26.644L37.026,26.644
		l-0.116,1.344l-0.002,0.021h-0.044L30.992,30.5l-8.115,3.447h7.814h5.699l-0.498,5.674l-0.519,5.925l-0.527,6.036l-0.861,0.238
		l-0.34,0.094l-10.62,2.945l-10.285-2.853H12.74l-0.334-0.093l0,0l-1.154-0.319l-0.528-6.037l-0.264-3.019h5.698l0.406,4.639
		l6.462,1.791l6.509-1.803l0.66-7.545H15.901h-5.697l-0.025-0.284l0,0l-0.473-5.39H9.572l0.129-0.056l5.496-2.333l8.363-3.551
		h-8.674H9.189l-0.498-5.676h5.699h17.316h5.699L37.026,26.644z"/>
	<polygon fill="#FFFFFF" points="17.985,2.885 17.985,0 13.826,0 10.943,0 10.943,2.885 10.943,5.673 10.943,8.557 13.826,8.557 
		17.985,8.557 17.985,5.673 13.826,5.673 13.826,2.885 	"/>
	<polygon fill="#FFFFFF" points="26.459,5.672 23.672,2.885 23.671,2.885 26.64,2.885 26.64,0 19.594,0 19.594,2.885 19.594,2.885 
		19.594,2.885 22.382,5.672 19.594,5.672 19.594,8.557 25.266,8.557 25.929,8.557 26.64,8.557 26.64,7.847 26.64,5.852 	"/>
	<polygon fill="#FFFFFF" points="35.109,5.672 32.323,2.885 32.322,2.885 35.291,2.885 35.291,0 28.245,0 28.245,2.885 
		28.245,2.885 28.245,2.885 31.032,5.672 28.245,5.672 28.245,8.557 33.917,8.557 34.58,8.557 35.291,8.557 35.291,7.847 
		35.291,5.852 	"/>
</g>
</svg>
