<?xml version="1.0" encoding="utf-8"?>
<!-- Generator: Adobe Illustrator 16.0.0, SVG Export Plug-In . SVG Version: 6.00 Build 0)  -->
<!DOCTYPE svg PUBLIC "-//W3C//DTD SVG 1.1//EN" "http://www.w3.org/Graphics/SVG/1.1/DTD/svg11.dtd">
<svg version="1.1" id="Calque_1" xmlns="http://www.w3.org/2000/svg" xmlns:xlink="http://www.w3.org/1999/xlink" x="0px" y="0px"
	 width="48.067px" height="64.925px" viewBox="0 0 48.067 64.925" enable-background="new 0 0 48.067 64.925" xml:space="preserve">
<g>
	<path fill="#161B20" d="M2,12.591l4.118,47.086l18.922,5.248l18.907-5.244l4.12-47.09H2z M39.027,26.644l-0.117,1.343l-0.003,0.021
		h-0.045H33.21h-7.65h-8.674l0.311,3.551l0.21,2.389h7.468h7.814h5.7l-0.498,5.674l-0.518,5.925l-0.528,6.036l-0.861,0.238
		l-0.339,0.094l-10.621,2.945l-10.284-2.853h-0.002l-0.333-0.093l0,0l-1.154-0.319l-0.528-6.037l-0.264-3.019h5.699l0.406,4.639
		l6.46,1.791l6.509-1.803l0.66-7.545H17.902h-5.698l-0.025-0.284l-0.472-5.39h-0.135l0.131-0.056l-0.514-5.884l-0.498-5.676h5.699
		h17.316h5.699L39.027,26.644z"/>
	<polygon fill="#161B20" points="11.644,-0.001 11.644,2.789 8.92,2.789 8.92,-0.001 6.037,-0.001 6.037,2.789 6.037,5.672 
		6.037,8.556 8.92,8.556 8.92,5.672 11.644,5.672 11.644,8.556 14.528,8.556 14.528,5.672 14.528,2.789 14.528,-0.001 	"/>
	<polygon fill="#161B20" points="24.134,-0.001 21.574,-0.001 18.689,-0.001 16.128,-0.001 16.128,2.884 18.689,2.884 18.689,8.556 
		21.574,8.556 21.574,2.884 24.134,2.884 	"/>
	<polygon fill="#161B20" points="40.057,5.671 40.057,0 37.172,0 37.172,5.671 37.172,8.556 40.057,8.556 44.199,8.556 
		44.199,5.671 	"/>
	<polygon fill="#161B20" points="32.708,0 32.575,0 32.089,0 31.118,1.441 30.626,2.168 30.136,1.441 29.164,0 28.542,0 28.117,0 
		26.191,0 25.659,0 25.659,8.556 28.542,8.556 28.542,7.598 28.542,5.26 28.542,4.234 28.889,4.747 30.628,7.323 32.367,4.747 
		32.708,4.241 32.708,5.252 32.708,7.224 32.708,8.556 35.59,8.556 35.59,1.441 35.59,0 	"/>
</g>
<g>
	<path fill="#FFFFFF" d="M0,12.591l4.118,47.086l18.922,5.248l18.907-5.244l4.12-47.09H0z M37.027,26.644l-0.117,1.343l-0.003,0.021
		h-0.045H31.21h-7.65h-8.674l0.311,3.551l0.21,2.389h7.468h7.814h5.7l-0.498,5.674l-0.518,5.925l-0.528,6.036l-0.861,0.238
		l-0.339,0.094l-10.621,2.945l-10.284-2.853h-0.002l-0.333-0.093l0,0l-1.154-0.319l-0.528-6.037l-0.264-3.019h5.699l0.406,4.639
		l6.46,1.791l6.509-1.803l0.66-7.545H15.902h-5.698l-0.025-0.284l-0.472-5.39H9.572l0.131-0.056l-0.514-5.884l-0.498-5.676h5.699
		h17.316h5.699L37.027,26.644z"/>
	<polygon fill="#FFFFFF" points="9.644,-0.001 9.644,2.789 6.92,2.789 6.92,-0.001 4.037,-0.001 4.037,2.789 4.037,5.672 
		4.037,8.556 6.92,8.556 6.92,5.672 9.644,5.672 9.644,8.556 12.528,8.556 12.528,5.672 12.528,2.789 12.528,-0.001 	"/>
	<polygon fill="#FFFFFF" points="22.134,-0.001 19.574,-0.001 16.689,-0.001 14.128,-0.001 14.128,2.884 16.689,2.884 16.689,8.556 
		19.574,8.556 19.574,2.884 22.134,2.884 	"/>
	<polygon fill="#FFFFFF" points="38.057,5.671 38.057,0 35.172,0 35.172,5.671 35.172,8.556 38.057,8.556 42.199,8.556 
		42.199,5.671 	"/>
	<polygon fill="#FFFFFF" points="30.708,0 30.575,0 30.089,0 29.118,1.441 28.626,2.168 28.136,1.441 27.164,0 26.542,0 26.117,0 
		24.191,0 23.659,0 23.659,8.556 26.542,8.556 26.542,7.598 26.542,5.26 26.542,4.234 26.889,4.747 28.628,7.323 30.367,4.747 
		30.708,4.241 30.708,5.252 30.708,7.224 30.708,8.556 33.59,8.556 33.59,1.441 33.59,0 	"/>
</g>
</svg>
