<?xml version="1.0" encoding="utf-8"?>
<!-- Generator: Adobe Illustrator 16.0.0, SVG Export Plug-In . SVG Version: 6.00 Build 0)  -->
<!DOCTYPE svg PUBLIC "-//W3C//DTD SVG 1.1//EN" "http://www.w3.org/Graphics/SVG/1.1/DTD/svg11.dtd">
<svg version="1.1" id="Calque_1" xmlns="http://www.w3.org/2000/svg" xmlns:xlink="http://www.w3.org/1999/xlink" x="0px" y="0px"
	 width="52px" height="50px" viewBox="0 0 52 50" enable-background="new 0 0 52 50" xml:space="preserve">
<g>
	<path fill="#161B20" d="M46.048,2.52c1.893,0,3.433,1.54,3.433,3.434v38.094c0,1.894-1.54,3.434-3.433,3.434H7.953
		c-1.893,0-3.433-1.54-3.433-3.434V5.953c0-1.894,1.541-3.434,3.433-3.434H46.048 M46.048,0H7.953C4.666,0,2,2.665,2,5.953v38.094
		C2,47.335,4.666,50,7.953,50h38.095C49.335,50,52,47.335,52,44.047V5.953C52,2.665,49.335,0,46.048,0L46.048,0z"/>
	<g>
		<path fill="#161B20" d="M18.916,29.636l-1.975,6.502h-4.323l7.353-22.943h5.344l7.455,22.943h-4.493l-2.077-6.502H18.916z
			 M25.486,26.47l-1.804-5.65c-0.442-1.396-0.817-2.962-1.157-4.289h-0.068c-0.34,1.327-0.681,2.927-1.089,4.289l-1.77,5.65H25.486z
			"/>
		<path fill="#161B20" d="M40.089,14.93c0,1.26-0.919,2.247-2.383,2.247c-1.396,0-2.315-0.987-2.315-2.247
			c0-1.293,0.953-2.28,2.349-2.28C39.17,12.649,40.055,13.637,40.089,14.93z M35.63,36.138V19.56h4.221v16.578H35.63z"/>
	</g>
</g>
<g>
	<path fill="#FFFFFF" d="M44.048,2.52c1.893,0,3.433,1.54,3.433,3.434v38.094c0,1.894-1.54,3.434-3.433,3.434H5.953
		c-1.893,0-3.433-1.54-3.433-3.434V5.953c0-1.894,1.541-3.434,3.433-3.434H44.048 M44.048,0H5.953C2.666,0,0,2.665,0,5.953v38.094
		C0,47.335,2.666,50,5.953,50h38.095C47.335,50,50,47.335,50,44.047V5.953C50,2.665,47.335,0,44.048,0L44.048,0z"/>
	<g>
		<path fill="#FFFFFF" d="M16.916,29.636l-1.975,6.502h-4.323l7.353-22.943h5.344l7.455,22.943h-4.493l-2.077-6.502H16.916z
			 M23.486,26.47l-1.804-5.65c-0.442-1.396-0.817-2.962-1.157-4.289h-0.068c-0.34,1.327-0.681,2.927-1.089,4.289l-1.77,5.65H23.486z
			"/>
		<path fill="#FFFFFF" d="M38.089,14.93c0,1.26-0.919,2.247-2.383,2.247c-1.396,0-2.315-0.987-2.315-2.247
			c0-1.293,0.953-2.28,2.349-2.28C37.17,12.649,38.055,13.637,38.089,14.93z M33.63,36.138V19.56h4.221v16.578H33.63z"/>
	</g>
</g>
</svg>
