<?xml version="1.0" encoding="utf-8"?>
<!-- Generator: Adobe Illustrator 16.0.0, SVG Export Plug-In . SVG Version: 6.00 Build 0)  -->
<!DOCTYPE svg PUBLIC "-//W3C//DTD SVG 1.1//EN" "http://www.w3.org/Graphics/SVG/1.1/DTD/svg11.dtd">
<svg version="1.1" id="Calque_1" xmlns="http://www.w3.org/2000/svg" xmlns:xlink="http://www.w3.org/1999/xlink" x="0px" y="0px"
	 width="52px" height="50px" viewBox="0 0 52 50" enable-background="new 0 0 52 50" xml:space="preserve">
<g>
	<path fill="#161B20" d="M46.047,2.52c1.893,0,3.433,1.54,3.433,3.434v38.094c0,1.894-1.54,3.434-3.433,3.434H7.953
		c-1.893,0-3.433-1.54-3.433-3.434V5.953c0-1.894,1.54-3.434,3.433-3.434H46.047 M46.047,0H7.953C4.665,0,2,2.665,2,5.953v38.094
		C2,47.335,4.665,50,7.953,50h38.095C49.335,50,52,47.335,52,44.047V5.953C52,2.665,49.335,0,46.047,0L46.047,0z"/>
	<g>
		<path fill="#161B20" d="M19.222,13.194v22.943h-4.187V13.194H19.222z"/>
		<path fill="#161B20" d="M39.135,11.969v19.505c0,1.702,0.068,3.54,0.136,4.664h-3.744l-0.17-2.621h-0.068
			c-0.987,1.838-2.996,2.995-5.413,2.995c-3.949,0-7.081-3.37-7.081-8.476c-0.034-5.549,3.438-8.851,7.421-8.851
			c2.28,0,3.915,0.953,4.664,2.178h0.068v-9.395H39.135z M34.948,26.47c0-0.34-0.034-0.749-0.102-1.089
			c-0.375-1.634-1.702-2.962-3.608-2.962c-2.689,0-4.187,2.383-4.187,5.48c0,3.03,1.498,5.242,4.153,5.242
			c1.702,0,3.2-1.157,3.608-2.961c0.102-0.375,0.136-0.783,0.136-1.226V26.47z"/>
	</g>
</g>
<g>
	<path fill="#FFFFFF" d="M44.047,2.52c1.893,0,3.433,1.54,3.433,3.434v38.094c0,1.894-1.54,3.434-3.433,3.434H5.953
		c-1.893,0-3.433-1.54-3.433-3.434V5.953c0-1.894,1.54-3.434,3.433-3.434H44.047 M44.047,0H5.953C2.665,0,0,2.665,0,5.953v38.094
		C0,47.335,2.665,50,5.953,50h38.095C47.335,50,50,47.335,50,44.047V5.953C50,2.665,47.335,0,44.047,0L44.047,0z"/>
	<g>
		<path fill="#FFFFFF" d="M17.222,13.194v22.943h-4.187V13.194H17.222z"/>
		<path fill="#FFFFFF" d="M37.135,11.969v19.505c0,1.702,0.068,3.54,0.136,4.664h-3.744l-0.17-2.621h-0.068
			c-0.987,1.838-2.996,2.995-5.413,2.995c-3.949,0-7.081-3.37-7.081-8.476c-0.034-5.549,3.438-8.851,7.421-8.851
			c2.28,0,3.915,0.953,4.664,2.178h0.068v-9.395H37.135z M32.948,26.47c0-0.34-0.034-0.749-0.102-1.089
			c-0.375-1.634-1.702-2.962-3.608-2.962c-2.689,0-4.187,2.383-4.187,5.48c0,3.03,1.498,5.242,4.153,5.242
			c1.702,0,3.2-1.157,3.608-2.961c0.102-0.375,0.136-0.783,0.136-1.226V26.47z"/>
	</g>
</g>
</svg>
