<?xml version="1.0" encoding="utf-8"?>
<!-- Generator: Adobe Illustrator 16.0.0, SVG Export Plug-In . SVG Version: 6.00 Build 0)  -->
<!DOCTYPE svg PUBLIC "-//W3C//DTD SVG 1.1//EN" "http://www.w3.org/Graphics/SVG/1.1/DTD/svg11.dtd">
<svg version="1.1" id="Calque_1" xmlns="http://www.w3.org/2000/svg" xmlns:xlink="http://www.w3.org/1999/xlink" x="0px" y="0px"
	 width="48.067px" height="64.926px" viewBox="0 0 48.067 64.926" enable-background="new 0 0 48.067 64.926" xml:space="preserve">
<g>
	<path fill="#161B20" d="M2,12.592l4.12,47.086l18.922,5.248l18.907-5.244l4.118-47.09H2z M38.909,28.008l-0.519,5.939l-0.497,5.674
		l-0.519,5.925l-0.527,6.036l-0.861,0.238l-0.34,0.094l-10.619,2.945l-10.285-2.853h-0.001l-0.334-0.093h-0.002l-1.152-0.319
		l-0.527-6.037l-0.265-3.019h5.697l0.406,4.639l6.463,1.791l6.507-1.803l0.661-7.545l0.496-5.674l0.52-5.939H16.887H11.19
		l-0.498-5.676h5.697h17.318h5.698L38.909,28.008z"/>
	<polygon fill="#161B20" points="21.245,5.672 21.245,0.001 24.129,0.001 24.129,5.672 24.129,8.557 21.245,8.557 17.103,8.557 
		17.103,5.672 	"/>
	<polygon fill="#161B20" points="32.586,5.672 29.799,2.885 29.798,2.885 32.765,2.885 32.765,0 25.721,0 25.721,2.885 
		25.721,2.885 25.721,2.885 28.508,5.672 25.721,5.672 25.721,8.557 31.391,8.557 32.055,8.557 32.765,8.557 32.765,7.847 
		32.765,5.852 	"/>
</g>
<g>
	<path fill="#FFFFFF" d="M0,12.592l4.12,47.086l18.922,5.248l18.907-5.244l4.118-47.09H0z M36.909,28.008l-0.519,5.939l-0.497,5.674
		l-0.519,5.925l-0.527,6.036l-0.861,0.238l-0.34,0.094l-10.619,2.945l-10.285-2.853h-0.001l-0.334-0.093h-0.002l-1.152-0.319
		l-0.527-6.037l-0.265-3.019h5.697l0.406,4.639l6.463,1.791l6.507-1.803l0.661-7.545l0.496-5.674l0.52-5.939H14.887H9.19
		l-0.498-5.676h5.697h17.318h5.698L36.909,28.008z"/>
	<polygon fill="#FFFFFF" points="19.245,5.672 19.245,0.001 22.129,0.001 22.129,5.672 22.129,8.557 19.245,8.557 15.103,8.557 
		15.103,5.672 	"/>
	<polygon fill="#FFFFFF" points="30.586,5.672 27.799,2.885 27.798,2.885 30.765,2.885 30.765,0 23.721,0 23.721,2.885 
		23.721,2.885 23.721,2.885 26.508,5.672 23.721,5.672 23.721,8.557 29.391,8.557 30.055,8.557 30.765,8.557 30.765,7.847 
		30.765,5.852 	"/>
</g>
</svg>
