<?xml version="1.0" encoding="utf-8"?>
<!-- Generator: Adobe Illustrator 16.0.0, SVG Export Plug-In . SVG Version: 6.00 Build 0)  -->
<!DOCTYPE svg PUBLIC "-//W3C//DTD SVG 1.1//EN" "http://www.w3.org/Graphics/SVG/1.1/DTD/svg11.dtd">
<svg version="1.1" id="Calque_1" xmlns="http://www.w3.org/2000/svg" xmlns:xlink="http://www.w3.org/1999/xlink" x="0px" y="0px"
	 width="46.068px" height="64.926px" viewBox="0 0 46.068 64.926" enable-background="new 0 0 46.068 64.926" xml:space="preserve">
<polygon fill="#FFFFFF" points="19.246,5.672 19.246,0.001 22.13,0.001 22.13,5.672 22.13,8.557 19.246,8.557 15.104,8.557 
	15.104,5.672 "/>
<polygon fill="#FFFFFF" points="30.586,5.672 27.799,2.885 27.799,2.885 30.766,2.885 30.766,0 23.721,0 23.721,2.885 23.721,2.885 
	23.721,2.885 26.508,5.672 23.721,5.672 23.721,8.557 29.392,8.557 30.056,8.557 30.766,8.557 30.766,7.847 30.766,5.852 "/>
<path fill="#FFFFFF" d="M0,12.592l4.12,47.086l18.923,5.248l18.906-5.244l4.119-47.09H0z M21.573,54.446l-10.33-2.859l-0.52-6.03
	l5.16,1.43V22.337h5.689V54.446z M36.903,27.987v0.02h-6.71v5.94h6.19l-1.54,17.63l-10.34,2.869v-5.89l5.029-1.39l0.67-7.551h-5.699
	V22.337h12.899L36.903,27.987z"/>
<g>
</g>
<g>
</g>
<g>
</g>
<g>
</g>
<g>
</g>
<g>
</g>
</svg>
