<?xml version="1.0" encoding="utf-8"?>
<!-- Generator: Adobe Illustrator 16.0.0, SVG Export Plug-In . SVG Version: 6.00 Build 0)  -->
<!DOCTYPE svg PUBLIC "-//W3C//DTD SVG 1.1//EN" "http://www.w3.org/Graphics/SVG/1.1/DTD/svg11.dtd">
<svg version="1.1" id="Calque_1" xmlns="http://www.w3.org/2000/svg" xmlns:xlink="http://www.w3.org/1999/xlink" x="0px" y="0px"
	 width="25px" height="25px" viewBox="0 0 25 25" enable-background="new 0 0 25 25" xml:space="preserve">
<path fill-rule="evenodd" clip-rule="evenodd" fill="#FFFFFF" d="M0,2.5v20c0,1.379,1.117,2.498,2.496,2.5h20.008
	C23.883,24.998,25,23.879,25,22.5c0,0,0,0,0-0.001V2.501c0,0,0-0.001,0-0.001C25,1.119,23.88,0,22.5,0h-20C1.119,0,0,1.119,0,2.5z
	 M8.448,17.864c0,1.65,0,1.658-1.643,1.648C5.1,19.501,5.35,19.698,5.333,18.056c-0.012-1.121-0.002-2.241-0.001-3.361
	c0-1.341,0.014-2.682-0.007-4.022c-0.007-0.473,0.154-0.668,0.637-0.646c0.604,0.027,1.213,0.031,1.817-0.001
	c0.51-0.026,0.677,0.183,0.674,0.676C8.438,13.089,8.447,15.476,8.448,17.864z M10.224,10.525c0-0.349,0.161-0.497,0.506-0.493
	c0.661,0.008,1.323,0.026,1.983-0.007c0.514-0.025,0.71,0.179,0.656,0.677c-0.016,0.14,0.017,0.285,0.04,0.593
	c0.976-1.276,2.15-1.657,3.554-1.409c1.274,0.225,2.143,0.958,2.548,2.165c0.202,0.6,0.315,1.253,0.333,1.886
	c0.045,1.633,0.001,3.269,0.025,4.903c0.007,0.5-0.164,0.7-0.667,0.68c-0.624-0.026-1.249-0.025-1.873-0.001
	c-0.487,0.019-0.636-0.195-0.63-0.659c0.019-1.396,0.007-2.792,0.005-4.187c0-0.257,0.004-0.516-0.026-0.77
	c-0.127-1.077-0.72-1.638-1.666-1.594c-0.906,0.042-1.62,0.773-1.637,1.75c-0.025,1.45-0.009,2.9-0.01,4.352
	c-0.001,1.103-0.001,1.104-1.11,1.104c-0.514,0-1.028-0.008-1.542-0.003c-0.346,0.003-0.495-0.156-0.495-0.502
	C10.225,16.18,10.225,13.352,10.224,10.525z M6.861,5.479c1.073-0.014,1.765,0.604,1.781,1.59C8.658,8.048,7.968,8.695,6.9,8.703
	C5.856,8.709,5.128,8.044,5.13,7.084C5.132,6.15,5.841,5.492,6.861,5.479z"/>
<g>
</g>
<g>
</g>
<g>
</g>
<g>
</g>
<g>
</g>
<g>
</g>
</svg>
