<?xml version="1.0" encoding="utf-8"?>
<!-- Generator: Adobe Illustrator 16.0.0, SVG Export Plug-In . SVG Version: 6.00 Build 0)  -->
<!DOCTYPE svg PUBLIC "-//W3C//DTD SVG 1.1//EN" "http://www.w3.org/Graphics/SVG/1.1/DTD/svg11.dtd">
<svg version="1.1" id="Calque_1" xmlns="http://www.w3.org/2000/svg" xmlns:xlink="http://www.w3.org/1999/xlink" x="0px" y="0px"
	 width="96.497px" height="200px" viewBox="0 0 96.497 200" enable-background="new 0 0 96.497 200" xml:space="preserve">
<g>
	<path fill="#007180" d="M41.329,200c-1.292-5.104-2.91-10.097-4.84-14.997c-1.151-2.928-2.094-5.94-3.285-8.853
		c-1.393-3.406-2.983-6.729-4.434-10.115c-2.1-4.897-4.171-9.809-6.216-14.731c-0.883-2.127-1.633-4.312-1.677-6.649
		c-0.013-0.663,0.177-1.328,0.274-1.994c0.093,0.01,0.184,0.019,0.276,0.026c0,0.247,0.021,0.494-0.004,0.739
		c-0.237,2.327,0.438,4.479,1.408,6.522c1.184,2.49,2.542,4.896,3.774,7.364c0.842,1.691,1.516,3.469,2.41,5.13
		c1.204,2.236,2.558,4.392,3.824,6.593c0.447,0.776,0.831,1.589,1.234,2.39c0.539,1.07,1.107,2.126,1.587,3.221
		c0.387,0.875,0.583,1.843,1.013,2.693c0.409,0.808,1.03,1.506,1.527,2.271c0.551,0.844,1.063,1.709,1.602,2.561
		c0.141,0.224,0.287,0.453,0.472,0.64c0.575,0.575,1.029,1.173,1.124,2.046c0.102,0.944,1.043,1.118,1.698,1.539
		c0.319,0.203,0.599,0.469,0.928,0.648c0.276,0.152,0.602,0.314,0.9,0.304c0.71-0.024,1.276-0.063,1.358,0.927
		c0.03,0.351,0.572,0.662,0.889,0.982c0.113,0.115,0.255,0.2,0.337,0.261c-0.24,0.796-0.46,1.504-0.144,2.283
		c0.294,0.728,0.523,1.483,0.75,2.236c0.045,0.153,0.007,0.417-0.1,0.51c-0.112,0.1-0.429,0.143-0.521,0.06
		c-0.731-0.668-1.51-1.2-2.537-1.314c-0.113-0.014-0.251-0.487-0.244-0.744c0.029-0.975-0.272-1.38-1.233-1.543
		c-0.239-0.039-0.48-0.065-0.718-0.117c-1.198-0.263-2.041,0.553-1.708,1.737c0.443,1.575,0.959,3.104,1.696,4.604
		c0.542,1.1,1.116,1.594,2.22,1.76c0.53,0.078,0.917,0.434,1.018,1.012H41.329z"/>
	<path fill="#007180" d="M58.508,200c0.168-0.767,0.312-1.541,0.523-2.296c0.058-0.204,0.33-0.352,0.501-0.524
		c0.13,0.184,0.359,0.359,0.373,0.551c0.057,0.754,0.044,1.513,0.06,2.27H58.508z"/>
	<path fill="#007180" d="M59.725,69.815c-0.021-0.138-0.039-0.276-0.058-0.414c-0.29,0.045-0.58,0.088-0.868,0.134
		c0.045,0.146,0.098,0.418,0.134,0.417C59.198,69.938,59.461,69.867,59.725,69.815 M57.955,74.178
		c-0.306-0.156-0.506-0.339-0.626-0.296c-0.172,0.061-0.364,0.271-0.399,0.448c-0.023,0.11,0.287,0.416,0.338,0.392
		C57.478,74.627,57.646,74.438,57.955,74.178 M38.104,138.655c0.119,0.079,0.237,0.159,0.356,0.237
		c0.171-0.262,0.342-0.523,0.512-0.786c-0.123-0.079-0.246-0.157-0.367-0.239C38.438,138.13,38.273,138.393,38.104,138.655
		 M49.165,65.963c-0.204,0.33-0.397,0.509-0.4,0.694c-0.003,0.142,0.229,0.289,0.356,0.435c0.139-0.168,0.348-0.32,0.393-0.51
		C49.546,66.454,49.35,66.27,49.165,65.963 M22.775,7.952c0.051,0.045,0.102,0.093,0.153,0.138c0.675-0.387,1.394-1.32,1.315-1.981
		C23.685,6.808,23.23,7.38,22.775,7.952 M38.608,117.101c-0.17,0.292-0.371,0.487-0.333,0.603c0.077,0.237,0.282,0.599,0.436,0.602
		c0.224,0.001,0.447-0.273,0.67-0.432C39.159,117.651,38.936,117.428,38.608,117.101 M61.547,77.764
		c-0.434,0.197-0.86,0.36-1.25,0.586c-0.111,0.066-0.166,0.319-0.146,0.476c0.007,0.065,0.276,0.156,0.416,0.138
		c0.396-0.045,0.787-0.142,1.219-0.227C61.732,78.521,61.658,78.213,61.547,77.764 M41.491,104.443
		c0.576-0.123,1.053-0.15,1.457-0.338c0.276-0.13,0.563-0.45,0.646-0.741c0.337-1.18-0.567-2.722-1.833-3.236
		c-0.512-0.21-1.043-0.382-1.538-0.632c-0.569-0.289-0.843-0.036-1.081,0.443c-0.25,0.509-0.159,0.864,0.366,1.127
		c0.361,0.183,0.704,0.415,1.035,0.65c0.352,0.25,0.364,0.519,0.146,0.929c-0.21,0.393-0.412,0.959-0.276,1.317
		C40.521,104.239,41.158,104.311,41.491,104.443 M48.61,75.338c1.212-0.594,2.322-1.063,3.354-1.669
		c1.244-0.725,2.402-1.593,3.63-2.345c0.696-0.429,1.469-0.728,2.179-1.138c0.188-0.11,0.403-0.451,0.356-0.616
		c-0.053-0.19-0.389-0.435-0.591-0.424c-0.536,0.026-1.06,0.183-1.59,0.28c-0.182,0.035-0.367,0.068-0.552,0.083
		c-0.439,0.04-0.969-0.075-1.302,0.13c-1.371,0.842-2.746,1.702-3.987,2.717C49.281,73.034,48.709,74,48.61,75.338 M62.237,65.168
		c-1.003-0.25-1.968-0.497-2.938-0.724c-0.181-0.042-0.406-0.047-0.571,0.02c-1.822,0.734-3.885,0.585-5.635,1.543
		c-0.284,0.156-0.663,0.396-0.718,0.655c-0.104,0.489,0.091,1,0.644,1.16c0.577,0.167,1.176,0.272,1.77,0.352
		c0.595,0.082,1.2,0.091,1.799,0.146c1.564,0.145,3.129,0.295,4.692,0.446c1.235,0.12,2.474,0.232,3.707,0.379
		c0.476,0.056,0.772-0.098,0.839-0.564c0.166-1.12-0.217-1.673-1.34-1.964c-0.304-0.08-0.617-0.122-0.928-0.181
		C62.944,66.318,62.293,65.646,62.237,65.168 M56.339,71.521c-0.349,0.12-0.487,0.148-0.606,0.214
		c-0.149,0.079-0.269,0.214-0.419,0.28c-1.889,0.814-3.175,2.356-4.542,3.792c-0.406,0.424-0.218,0.911,0.315,1.11
		c0.152,0.057,0.271,0.207,0.406,0.316c-0.162,0.12-0.312,0.319-0.489,0.345c-0.379,0.056-0.773,0.004-1.16,0.027
		c-1.019,0.066-1.3,0.712-0.747,1.596c0.33,0.527,0.62,1.091,0.86,1.667c0.348,0.848,0.588,1.744,0.968,2.576
		c0.247,0.542,0.142,0.851-0.25,1.27c-0.357,0.382-0.787,0.968-0.734,1.411c0.124,1.107,0.489,2.189,0.795,3.271
		c0.169,0.589,0.458,1.147,0.613,1.739c0.225,0.883,0.224,1.855,0.599,2.662c0.613,1.325,1.402,2.561,1.596,4.05
		c0.04,0.309,0.127,0.626,0.259,0.905c0.279,0.585,0.199,1.041-0.305,1.477c-0.245,0.212-0.43,0.541-0.534,0.852
		c-0.446,1.307-1.558,1.91-2.615,2.591c-0.603,0.387-1.379,0.711-1.698,1.28c-0.348,0.62-0.312,1.485-0.333,2.247
		c-0.007,0.271,0.253,0.63,0.494,0.811c0.54,0.406,1.128,0.762,1.73,1.073c0.733,0.379,1.485,0.602,2.225-0.061
		c0.124-0.112,0.496-0.123,0.629-0.021c0.533,0.403,0.964,0.218,1.475-0.053c0.299-0.157,0.704-0.139,1.064-0.161
		c0.733-0.047,1.466-0.094,2.199-0.093c1.092,0.003,2.082-1.354,3.262-0.088c0.043-0.061,0.087-0.121,0.13-0.184
		c-0.125-0.511-0.251-1.021-0.391-1.584c0.602-0.075,1.43,0.069,1.002-1.026c0.856-0.107,0.671-0.521,0.356-0.973
		c-0.069-0.099-0.15-0.204-0.177-0.317c-0.055-0.245-0.079-0.497-0.116-0.747c0.226-0.022,0.461-0.095,0.671-0.052
		c0.356,0.07,0.584-0.026,0.466-0.382c-0.185-0.569-0.386-1.161-0.715-1.654c-0.709-1.062-0.663-1.741,0.389-2.479
		c0.707-0.494,1.488-0.881,2.218-1.343c0.253-0.162,0.614-0.383,0.645-0.615c0.102-0.787,0.16-1.597,0.067-2.378
		c-0.052-0.441,0.001-0.747,0.178-1.14c0.202-0.449,0.434-0.614,0.911-0.636c0.156-0.007,0.406-0.374,0.422-0.591
		c0.102-1.4-0.035-2.789-0.895-3.944c-0.375-0.503-0.315-0.778,0.058-1.159c0.475-0.487,0.726-1.027,0.354-1.705
		c-0.078-0.139-0.09-0.331-0.082-0.497c0.045-0.815-0.512-1.198-1.095-1.573c-1.185-0.764-2.376-1.515-3.542-2.304
		c-0.538-0.363-1.016-0.821-1.55-1.191c-0.137-0.095-0.394-0.04-0.591-0.014c-0.272,0.035-0.736,0.212-0.771,0.146
		c-0.156-0.292-0.341-0.717-0.229-0.968c0.272-0.613,0.043-0.842-0.491-1.001c-0.187-0.054-0.357-0.147-0.537-0.224
		c-2.418-1.041-3.275-3.457-2.05-5.777C56.13,72.112,56.186,71.912,56.339,71.521 M72.03,169.018c0.345-0.624,0.61-1.271,0.42-2.056
		c0.069,0.014,0.139,0.024,0.209,0.037c0.065,0.189,0.13,0.38,0.257,0.741c0.395-0.314,0.709-0.565,1.129-0.898
		c-0.37-0.146-0.547-0.215-0.852-0.337c0.829-0.398-0.506-1.249,0.405-1.609c0.239,0.181,0.434,0.33,0.629,0.478
		c0.116-0.221,0.301-0.435,0.332-0.67c0.029-0.2-0.111-0.428-0.188-0.638c-0.078-0.21-0.254-0.418-0.245-0.618
		c0.056-1.022,0.184-2.026-0.142-3.047c-0.212-0.658-0.458-1.453-0.272-2.058c0.298-0.972-0.407-1.428-0.722-2.071
		c-0.21-0.431-0.573-0.499-0.961-0.014c-0.723,0.904-1.502,1.769-2.645,2.182c-0.149,0.054-0.301,0.184-0.381,0.318
		c-0.431,0.743-1.307,1.271-1.124,2.313c0.011,0.063-0.046,0.137-0.066,0.205c-0.58,1.874-1.198,3.733-1.729,5.619
		c-0.475,1.693,0.125,3.145,1.243,4.409c0.139,0.158,0.422,0.19,0.728,0.315c-0.021-0.385-0.035-0.611-0.057-1.039
		c0.836,0.383,0.763,1.118,0.98,1.655c0.227,0.561,0.4,1.145,0.598,1.719c0.072-0.014,0.145-0.026,0.217-0.042
		c-0.044-0.716-0.088-1.433-0.14-2.253c0.407,0.169,0.617,0.256,0.816,0.337c0.069-0.074,0.107-0.107,0.131-0.146
		c0.026-0.04,0.054-0.088,0.055-0.134c0.032-0.688-0.134-1.479,0.907-1.623c0.093-0.016,0.158-0.273,0.224-0.425
		c0.093-0.219,0.171-0.443,0.257-0.667c0.2,0.177,0.4,0.352,0.599,0.527c0.218-0.27,0.439-0.538,0.657-0.808
		c-0.05-0.05-0.097-0.097-0.146-0.146C72.78,168.722,72.406,168.87,72.03,169.018 M14.226,13.044
		c0.073,0.475,0.146,0.95,0.218,1.424c0.082,0.008,0.16,0.017,0.242,0.025c0.349-0.744,0.7-1.488,1.05-2.231
		c0.055,0.014,0.113,0.026,0.168,0.04c-0.094,0.43-0.19,0.859-0.284,1.288c0.058,0.033,0.116,0.063,0.177,0.095
		c0.166-0.203,0.366-0.389,0.495-0.613c0.424-0.734,0.802-1.495,1.24-2.22c0.258-0.427,0.791-0.784,0.846-1.218
		c0.066-0.567,0.384-0.835,0.725-1.152c0.042-0.04,0.134-0.026,0.156-0.029c-0.464,1.408-0.93,2.826-1.455,4.414
		c0.823-0.334,0.583,0.234,0.672,0.494c0.981-0.461,0.973-0.926,1.339-2.56c0.118,0.14,0.222,0.262,0.37,0.434
		c1.487-2.518,3.072-4.878,5.166-6.727v1.376c0.301-0.04,0.479-0.065,0.824-0.11c-0.312,0.45-0.536,0.773-0.809,1.168
		c0.174-0.02,0.298,0.002,0.383-0.046c1.016-0.56,2.206-0.736,3.051-1.702c0.549-0.63,1.393-1.049,2.176-1.41
		c0.486-0.225,1.107-0.159,1.667-0.233c0.116-0.015,0.244-0.058,0.34-0.127c1.266-0.915,2.835-0.691,4.223-1.139
		c0.366-0.118,0.716-0.338,1.025-0.573c0.583-0.446,1.134-0.936,1.698-1.408c0.047,0.052,0.095,0.104,0.142,0.153
		c-0.464,0.479-0.929,0.957-1.394,1.434c0.034,0.05,0.067,0.097,0.101,0.146c0.127-0.01,0.271,0.015,0.378-0.036
		c0.555-0.254,1.069-0.706,1.731-0.207c0.087,0.066,0.363-0.076,0.53-0.163c0.858-0.44,1.747-0.59,2.721-0.503
		c0.472,0.043,0.97-0.181,1.454-0.298c0.505-0.125,1.005-0.366,1.511-0.377c1.276-0.026,2.553,0.085,3.828,0.072
		c0.668-0.008,1.332-0.193,2.002-0.245c0.57-0.042,1.148,0.026,1.72-0.016c0.696-0.054,1.387-0.177,2.082-0.255
		c0.213-0.025,0.428-0.003,0.644-0.003c0.007,0.062,0.014,0.125,0.022,0.189c-0.719,0.287-1.438,0.574-2.159,0.863
		c0.014,0.055,0.03,0.11,0.046,0.165c1.07-0.231,2.138-0.461,3.209-0.693c0.019,0.022,0.039,0.043,0.058,0.066l-1.24,0.603
		c0.005,0.076,0.011,0.153,0.015,0.229c1.398-0.823,2.746-0.06,4.129-0.051c-0.787,0.362-1.786-0.194-2.48,0.555
		c0.675,0.828,1.496,0.217,2.395,0.258c-0.269,0.192-0.422,0.301-0.654,0.465c2.049-0.16,4.018-0.314,6.066-0.475
		c-0.085,0.266-0.119,0.367-0.163,0.501h0.873c0.02,0.052,0.04,0.105,0.061,0.156c-1.068,0.362-2.137,0.724-3.204,1.085
		c0.021,0.082,0.04,0.162,0.061,0.242c0.879,0.218,1.674-0.493,2.592-0.4c-0.15,0.334-0.271,0.61-0.388,0.871h3.845
		c-0.181,0.148-0.289,0.235-0.397,0.323c-0.014,0.062-0.029,0.124-0.043,0.185c2.004-0.11,3.335,1.883,5.439,1.634
		c-0.409,0.145-0.82,0.292-1.231,0.435c0.012,0.079,0.023,0.16,0.036,0.239c0.694-0.058,1.389-0.116,2.054-0.173
		c-0.03,0.115-0.083,0.308-0.135,0.501c0.294,0.067,0.588,0.134,0.812,0.186c-0.156,0.187-0.361,0.432-0.566,0.676
		c0.225,0.152,0.447,0.303,0.693,0.465c-0.077,0.073-0.19,0.18-0.383,0.36c0.564,0.09,1.047,0.168,1.209,0.758
		c0.028,0.106,0.384,0.148,0.596,0.174c0.671,0.085,1.345,0.149,2.021,0.342h-0.983c0.042,0.074,0.084,0.152,0.129,0.228
		c-0.303,0.341-0.606,0.681-0.894,1.005c0.609,0,1.278-0.162,1.803,0.045c0.522,0.203,0.897,0.777,1.383,1.234
		c-0.292,0.018-0.562,0.036-1,0.065c0.675,0.666,1.405,0.451,2.109,0.471c-0.348,0.306-0.657,0.579-1.085,0.953
		c0.42,0.132,0.616,0.193,0.848,0.268c-0.034,0.215-0.072,0.437-0.122,0.733c1.052-0.378,1.955-0.116,2.877,0.409
		c-0.482,0.106-0.919,0.203-1.424,0.315c0.231,0.479,0.836,0.722,0.58,1.303c0.149,0.057,0.297,0.138,0.453,0.167
		c0.224,0.044,0.456,0.051,0.707,0.212c-0.237,0.113-0.475,0.227-0.875,0.418c0.4,0.088,0.638,0.141,0.919,0.203
		c-0.122,0.746,0.367,0.74,0.903,0.652c0.16,0.95,0.986,0.798,1.608,0.999c-0.292,0.26-0.559,0.496-0.907,0.804
		c0.583,0.29,1.024,0.512,1.466,0.731c0.014,0.068,0.026,0.134,0.04,0.202c-0.512,0.178-1.023,0.356-1.694,0.589
		c1.033,0.301,1.949,0.569,2.867,0.837c-0.001,0.041-0.004,0.081-0.005,0.124h-1.567c-0.021,0.067-0.042,0.138-0.064,0.206
		c0.398,0.159,0.802,0.302,1.19,0.483c0.211,0.099,0.395,0.264,0.588,0.4c-0.193,0.122-0.375,0.268-0.583,0.356
		c-0.235,0.097-0.492,0.14-0.74,0.349c0.778,0.282,1.557,0.565,2.33,0.846c-0.084,0.097-0.235,0.272-0.45,0.518
		c0.706,0.293,1.35,0.561,2.026,0.841c-0.668,1.073-1.674,0.395-2.45,0.764c0.824,0.333,1.581,0.638,2.337,0.942
		c-1.109,0.063-1.764,0.64-2.239,1.745c0.657,0.547,1.374,1.143,2.09,1.739c-0.025,0.068-0.049,0.137-0.075,0.203
		c-0.552-0.104-1.107-0.208-1.659-0.312c-0.034,0.059-0.069,0.119-0.104,0.179c0.203,0.218,0.407,0.437,0.672,0.719
		c-0.323,0.065-0.561,0.113-0.812,0.162c0.585,0.706,1.135,1.372,1.684,2.036c-0.31,0.32,0.185,1.485,0.958,2.205h-0.685
		c0.221,0.519,0.555,0.965,0.568,1.419c0.022,0.625-0.199,1.259-0.317,1.889c-0.077,0.002-0.154,0.004-0.232,0.007
		c0.279,0.322,0.558,0.643,0.956,1.104c-0.409-0.165-0.65-0.262-0.972-0.392c0.213,0.564,0.389,1.04,0.612,1.632
		c-0.41-0.109-0.689-0.185-1.158-0.31c0.438,0.587,0.759,1.021,1.082,1.452c-0.022,0.035-0.043,0.068-0.063,0.103
		c-0.348-0.155-0.696-0.308-1.045-0.461c-0.044,0.066-0.087,0.133-0.134,0.199c0.591,0.442,1.183,0.884,1.774,1.327
		c-0.015,0.048-0.026,0.1-0.04,0.149c-0.369-0.079-0.737-0.158-1.135-0.245c-0.014,0.128-0.025,0.258-0.04,0.416
		c-0.078-0.037-0.145-0.057-0.196-0.097c-0.416-0.333-0.81-0.696-1.249-0.992c-0.165-0.111-0.434-0.066-0.654-0.093
		c0.042,0.24,0.017,0.527,0.142,0.709c0.171,0.246,0.459,0.412,0.733,0.644c-0.197,0.092-0.351,0.164-0.545,0.254
		c0.227,0.25,0.41,0.451,0.733,0.806c-0.414-0.127-0.63-0.193-1.071-0.329c0.678,1.129,1.253,2.087,1.839,3.062
		c-0.848,0.459-0.046,0.977,0.102,1.724c-0.45-0.36-0.734-0.589-0.914-0.734c-0.271,0.301-0.546,0.524-0.704,0.814
		c-0.099,0.184-0.102,0.509-0.002,0.694c0.468,0.889,0.982,1.752,1.484,2.622c-0.065,0.045-0.13,0.091-0.195,0.136
		c-0.16-0.207-0.32-0.411-0.48-0.618c-0.05,0.021-0.101,0.04-0.15,0.06c0.173,0.4,0.344,0.802,0.527,1.231
		c-0.13,0.151-0.311,0.358-0.526,0.607c-0.063-0.051-0.196-0.16-0.351-0.29c-0.057,0.107-0.125,0.175-0.113,0.226
		c0.127,0.614,0.279,1.223,0.402,1.839c0.208,1.042,0.19,1.063-0.849,1.226c-0.206,1.695-0.391,3.409-0.636,5.116
		c-0.082,0.564-0.244,1.145-0.499,1.651c-0.558,1.11-0.491,2.264-0.326,3.415c0.088,0.601-0.105,1.08-0.345,1.58
		c-0.237,0.493-0.45,0.998-0.69,1.488c-0.097,0.202-0.236,0.38-0.384,0.61c0.638,0.19,1.13-0.085,1.603-0.422
		c1.028-0.733,2.053-1.447,3.363-1.626c1.108-0.151,1.967,0.17,2.542,1.134c0.932,1.561,1.35,3.299,1.335,5.076
		c-0.016,1.612-0.203,3.248-0.557,4.822c-0.232,1.037-0.912,1.966-1.347,2.962c-1.19,2.73-2.305,5.497-3.558,8.199
		c-0.543,1.177-1.357,2.227-2.033,3.345c-0.309,0.514-0.631,1.031-0.866,1.581c-0.628,1.473-1.484,2.78-3.027,3.348
		c-0.729,0.269-1.604,0.207-2.407,0.175c-0.591-0.021-1.013-0.042-0.991,0.726c0.005,0.221-0.116,0.478-0.249,0.668
		c-0.395,0.559-0.558,1.098-0.364,1.818c0.113,0.421-0.211,0.943-0.249,1.425c-0.05,0.668-0.011,1.345-0.011,2.01
		c-0.219,0.021-0.482,0.047-0.784,0.075c0.061,0.307,0.102,0.516,0.145,0.728c0.054-0.039,0.108-0.077,0.162-0.115
		c0.102,0.134,0.308,0.283,0.292,0.399c-0.137,0.933-0.12,1.958-0.523,2.767c-0.618,1.24-0.587,2.595-1.016,3.846
		c-0.304,0.885-0.77,1.715-1.118,2.587c-0.179,0.444-0.317,0.922-0.367,1.396c-0.11,1.036-0.171,2.078-0.218,3.117
		c-0.125,2.782-0.249,5.567-0.335,8.351c-0.038,1.212-0.011,2.425,0.037,3.636c0.029,0.688,0.389,1.164,0.922,1.682
		c1.45,1.399,3.258,2.584,3.54,4.867c0.055,0.443,0.275,0.88,0.475,1.289c0.185,0.376,0.304,0.702,0.003,1.074
		c-0.066,0.084-0.025,0.272-0.011,0.409c0.055,0.586,0.206,1.177,0.164,1.756c-0.153,2.224-0.286,4.453-0.576,6.663
		c-0.614,4.68-0.977,9.407-2.364,13.958c-0.473,1.55-0.943,3.103-1.44,4.646c-0.085,0.264-0.304,0.484-0.533,0.839
		c0.014,0.133,0.044,0.43,0.074,0.725c-0.07,0.046-0.141,0.089-0.21,0.134c-0.419-0.424-0.838-0.845-1.132-1.142
		c0.31-0.756,0.604-1.413,0.839-2.091c0.083-0.232,0.105-0.567-0.005-0.768c-0.2-0.369-0.574-0.974-0.777-0.937
		c-0.438,0.079-0.99,0.417-1.178,0.803c-0.389,0.81-0.6,1.712-0.817,2.591c-0.05,0.191,0.119,0.566,0.292,0.661
		c0.855,0.458,1.745,0.852,2.618,1.268c0.158,0.864-0.654,0.883-0.988,0.982c-0.911,0.27-1.041,0.354-0.708,1.282
		c0.244,0.687,0.048,1.031-0.614,0.977c-0.204-0.017-0.406-0.247-0.58-0.412c-0.116-0.11-0.234-0.405-0.258-0.397
		c-0.686,0.289-1.448-0.339-2.108,0.176c-0.131,0.101-0.29,0.211-0.445,0.224c-1.312,0.113-1.963,1.067-2.812,1.915
		c-0.927,0.926-0.829,2.193-1.518,3.146c-0.132,0.184-0.052,0.514-0.084,0.774c-0.032,0.26-0.069,0.52-0.119,0.774
		c-0.082,0.437-0.174,0.868-0.261,1.302c-0.005,0.022,0.006,0.05,0,0.072c-0.432,1.085-0.864,2.17-1.294,3.255
		c-0.142,0.36-0.278,0.722-0.409,1.086c-0.055,0.153-0.047,0.351-0.142,0.466c-0.405,0.484-0.921,0.893-1.238,1.423
		c-0.58,0.968-1.11,1.979-1.552,3.021c-0.395,0.928-0.631,1.922-0.969,2.875c-0.08,0.22-0.298,0.391-0.453,0.587
		c-0.083-0.015-0.168-0.029-0.254-0.043c-0.076-0.819-0.152-1.639-0.224-2.457c-0.005-0.07-0.011-0.181,0.03-0.21
		c0.766-0.561,0.546-1.462,0.776-2.206c0.042-0.131,0.127-0.328,0.225-0.349c0.738-0.159,0.747-0.656,0.703-1.268
		c-0.028-0.403-0.025-0.875,0.61-0.984c0.148-0.023,0.26-0.488,0.315-0.766c0.107-0.534,0.157-1.081,0.255-1.616
		c0.015-0.09,0.162-0.153,0.214-0.201c0.144,0.231,0.271,0.432,0.395,0.633c0.101-0.24,0.273-0.475,0.29-0.72
		c0.041-0.628,0.014-1.26,0.014-1.89l0.194-0.015c0.181,0.241,0.362,0.484,0.541,0.728c0.06-0.007,0.119-0.014,0.178-0.021
		c0-0.275,0.025-0.556-0.005-0.83c-0.036-0.332-0.187-0.664-0.163-0.987c0.035-0.449,0.046-1.042,0.867-0.633
		c0-0.468-0.066-0.842,0.015-1.179c0.137-0.563,0.366-1.105,0.567-1.65c0.088-0.24,0.25-0.462,0.305-0.707
		c0.132-0.581,0.206-1.131,0.703-1.607c0.224-0.214-0.085-0.887,0.305-1.262c0.118-0.114,0.206-0.338,0.33-0.357
		c0.846-0.13,0.552-0.532,0.227-0.919c-0.182-0.216-0.4-0.418-0.641-0.567c-0.527-0.336-1.055-0.606-1.263-1.311
		c-0.145-0.492-0.663-0.591-1.208-0.586c-0.997,0.011-2.004-0.028-2.988-0.173c-0.305-0.046-0.747-0.487-0.777-0.783
		c-0.066-0.626,0.072-1.282,0.171-1.917c0.213-1.335,0.477-2.663,0.68-3.998c0.251-1.639,0.643-3.221,1.517-4.657
		c0.562-0.924,0.913-2.025,1.636-2.78c0.936-0.98,1.231-2.166,1.629-3.342c0.559-1.662,1.234-3.31,1.565-5.02
		c0.469-2.443,0.599-4.939,0.345-7.434c-0.022-0.21-0.113-0.42-0.202-0.616c-0.25-0.562-0.545-1.104-0.762-1.678
		c-0.185-0.494-0.454-0.649-0.991-0.586c-0.628,0.072-1.278,0.045-1.909-0.023c-0.813-0.087-2.204,0.725-2.823,1.307
		c-0.746,0.701-0.809,1.519-0.949,2.399c-0.248,1.568-1.118,2.881-2.207,3.928c-0.508,0.485-1.262,1.269-2.326,0.822
		c0.09-0.23,0.163-0.422,0.276-0.715c-0.979-0.106-1.116-0.87-1.353-1.592c-0.302-0.923-1.165-1.38-2.066-1.038
		c-0.599,0.227-1.108,0.673-1.695,0.938c-1.275,0.579-2.551,1.184-3.882,1.612c-0.626,0.203-1.38-0.019-2.071,0.035
		c-0.718,0.057-1.426,0.214-2.197,0.337c-0.053-0.146-0.125-0.336-0.22-0.597c-0.161,0.105-0.321,0.163-0.414,0.277
		c-0.366,0.451-0.738,0.69-1.26,0.199c-0.108-0.101-0.312-0.156-0.467-0.148c-0.588,0.033-1.173,0.103-1.975,0.177
		c0.581-0.565,0.429-0.929-0.001-1.233c-0.456-0.324-0.723,0.015-1.071,0.255c-0.436,0.306-0.95,0.503-1.476,0.77
		c-0.119-0.302-0.247-0.626-0.36-0.911c-0.527-0.24-1.083,0.603-1.509-0.143c-0.493,0.425-0.968,0.717-1.677,0.523
		c-0.614-0.166-1.281-0.13-1.917-0.239c-0.808-0.137-1.417-0.563-1.804-1.315c-0.11-0.217-0.333-0.425-0.555-0.524
		c-0.64-0.286-1.294-0.678-1.965-0.729c-1.438-0.11-2.152-1.127-2.993-2.032c-0.425-0.457-0.671-1.145-1.488-1.138
		c-0.104,0-0.262-0.416-0.313-0.656c-0.165-0.77-0.305-1.55-0.424-2.33c-0.025-0.165,0.033-0.406,0.146-0.511
		c0.111-0.101,0.365-0.145,0.514-0.092c1.361,0.471,2.319,0.056,2.797-0.859c0.508,0.255,1.013,0.508,1.516,0.762
		c0.47,0.236,0.57,0.653,0.301,1.032c-0.406,0.57-0.092,0.903,0.227,1.335c0.467,0.629,0.837,1.327,1.281,1.974
		c0.149,0.216,0.375,0.469,0.602,0.51c0.196,0.036,0.53-0.145,0.652-0.33c0.359-0.558,0.643-1.165,0.979-1.796
		c0.272,0.133,0.452,0.167,0.551,0.276c0.398,0.431,0.762,0.301,1.287,0.168c0.663-0.168,1.417-0.001,2.129,0.045
		c0.258,0.017,0.511,0.107,0.704,0.149c0.283-0.496,0.571-0.91,0.762-1.367c0.1-0.241,0.085-0.568,0.02-0.832
		c-0.246-0.994,0.252-1.626,1.496-1.565c0.02-0.737,0.03-1.477,0.058-2.214c0.007-0.189,0.085-0.379,0.075-0.564
		c-0.017-0.243-0.094-0.483-0.14-0.725c-0.047-0.255-0.171-0.535-0.114-0.769c0.196-0.798-0.097-1.385-0.881-1.621
		c-0.094-0.028-0.193-0.035-0.283-0.069c-0.604-0.217-1.481-0.129-2.033,0.198c-0.135,0.08-0.295,0.123-0.599,0.246
		c0.192-0.799,0.505-1.524-0.229-2.112c-0.116,0.048-0.283,0.119-0.51,0.214c-0.026-0.16-0.081-0.281-0.052-0.373
		c0.244-0.745,0.496-1.492,0.773-2.227c0.061-0.159,0.242-0.388,0.369-0.388c0.759,0.002,1.517,0.055,2.275,0.106
		c0.287,0.018,0.573,0.063,0.856,0.12c0.986,0.195,1.97,0.4,2.954,0.605c0.141,0.029,0.279,0.081,0.421,0.094
		c0.66,0.052,0.893,0.509,0.468,1.049c-0.384,0.486-0.185,0.794,0.184,1.107c0.868,0.745,1.741,1.486,2.616,2.225
		c0.367,0.313,0.709,0.632,1.292,0.48c0.18-0.048,0.502,0.225,0.679,0.424c0.534,0.602,1.183,0.766,2.083,0.403
		c0.64-0.258,1.048-0.698,0.907-1.462c-0.008-0.036,0.039-0.084,0.102-0.214c0.203,0.063,0.428,0.205,0.634,0.184
		c0.403-0.042,0.976-0.044,1.153-0.294c0.368-0.518,0.71-0.583,1.319-0.217c-0.085-0.542-0.112-0.969-0.228-1.372
		c-0.251-0.875,0.034-1.506,0.918-1.713c0.832-0.198,1.482-0.545,1.816-1.389c0.061-0.153,0.418-0.344,0.555-0.292
		c0.758,0.283,1.027-0.051,1.115-0.744c0.042-0.333,0.144-0.657,0.232-1.04c0.134,0.051,0.262,0.084,0.378,0.146
		c0.353,0.189,0.602,0.097,0.585-0.309c-0.065-1.346,0.958-1.739,1.877-2.258c0.221-0.126,0.515-0.467,0.478-0.644
		c-0.137-0.629-0.397-1.233-0.618-1.841c-0.03-0.091-0.141-0.173-0.135-0.254c0.069-0.979-0.721-1.158-1.361-1.318
		c-0.917-0.232-1.88-0.286-2.819-0.428c-0.604-0.094-1.205-0.224-1.811-0.312c-0.159-0.022-0.333,0.057-0.5,0.088
		c0.094,0.149,0.157,0.397,0.284,0.435c0.935,0.287,1.336,0.962,1.679,1.839c0.345,0.89,0.234,1.678,0.069,2.551
		c-0.167,0.881-0.404,1.684-1.065,2.322c-0.492,0.472-0.935,1.004-1.462,1.43c-0.427,0.345-0.983,0.326-1.278-0.166
		c-0.512-0.849-1.216-0.779-2.021-0.649c-0.372,0.06-0.783-0.059-1.164-0.147c-0.516-0.118-1.112-0.159-1.51-0.454
		c-0.911-0.677-1.688-0.32-2.61-0.04c-1.116,0.336-2.291,0.645-3.502,0.309c-0.588-0.165-0.826-0.412-0.74-1.08
		c0.098-0.754-0.03-1.532,0.011-2.297c0.014-0.261,0.254-0.504,0.373-0.765c0.102-0.228,0.248-0.472,0.231-0.7
		c-0.005-0.12-0.314-0.301-0.491-0.308c-0.232-0.011-0.563,0.051-0.69,0.212c-0.643,0.813-1.01,0.856-1.693,0.092
		c-0.162-0.181-0.308-0.376-0.446-0.575c-0.298-0.431-0.69-0.522-1.143-0.301c-0.879,0.427-1.712,0.587-2.587-0.077
		c-0.21-0.16-0.679,0.045-1.03,0.042c-0.206-0.003-0.56-0.04-0.593-0.145c-0.337-1.048-1.278-1.02-2.076-1.168
		c-0.429-0.08-0.903,0.112-1.357,0.116c-0.261,0.003-0.536-0.104-0.779-0.214c-0.067-0.029-0.097-0.351-0.048-0.378
		c0.21-0.126,0.472-0.297,0.688-0.267c1.615,0.239,3.217,0.58,4.837,0.766c1.019,0.117,2.064,0.023,3.185,0.023
		c-0.109-0.157-0.289-0.306-0.316-0.48c-0.055-0.379-0.134-0.809-0.005-1.144c0.077-0.205,0.509-0.311,0.802-0.387
		c0.463-0.12,0.943-0.159,1.41-0.264c0.773-0.174,1.541-0.373,2.123-0.516c0.439,0.301,0.759,0.521,1.08,0.743
		c0.225-0.428,0.486-0.844,0.654-1.293c0.046-0.126-0.13-0.425-0.281-0.521c-0.447-0.277-0.942-0.479-1.403-0.736
		c-0.522-0.29-1.013-0.644-1.546-0.91c-1.089-0.544-1.179-1.547-1.216-2.566c-0.015-0.395-0.001-0.7,0.623-0.827
		c0.37-0.077,0.768-0.882,0.831-1.4c0.113-0.925,0.017-1.881-0.052-2.82c-0.083-1.129-0.388-1.419-1.491-1.581
		c-1.347-0.194-1.593-0.776-0.756-1.909c0.334-0.457,0.768-0.839,1.153-1.259c0.493-0.536,0.414-1.163,0.076-1.68
		c-0.434-0.66-0.768-1.31-0.839-2.115c-0.03-0.34-0.284-0.657-0.434-0.985c-0.08-0.174-0.221-0.354-0.218-0.527
		c0.03-1.414-0.004-2.838,0.157-4.24c0.193-1.681,0.552-3.346,0.858-5.012c0.061-0.33,0.158-0.675,0.33-0.958
		c0.404-0.663,0.854-1.282,0.649-2.145c-0.045-0.187,0.132-0.467,0.277-0.65c0.548-0.681,0.595-1.465,0.514-2.276
		c-0.085-0.875-0.095-1.644,0.579-2.417c0.443-0.509,0.542-1.365,0.675-2.09c0.312-1.723,1.234-2.972,2.642-3.989
		c1.262-0.913,2.479-1.919,3.557-3.036c0.548-0.566,0.847-1.369,1.588-1.815c0.119-0.07,0.095-0.614-0.04-0.83
		c-0.743-1.182-0.685-1.594,0.457-2.452c0.169-0.127,0.319-0.282,0.614-0.548c-0.246-0.17-0.475-0.272-0.624-0.444
		c-0.404-0.47-0.384-1.194,0.036-1.672c0.504-0.579,0.966-1.218,1.92-0.998c0.247,0.057,0.591-0.076,0.824-0.227
		c0.762-0.484,1.574-0.515,2.443-0.472c1.659,0.082,3.08-0.752,4.566-1.321c0.444-0.17,0.914-0.272,1.365-0.425
		c0.311-0.106,0.669-0.177,0.901-0.385c0.997-0.896,0.806-1.946-0.432-2.5c-0.142-0.063-0.363-0.11-0.484-0.045
		c-0.666,0.352-0.867-0.079-1.036-0.577c-0.466-1.365-0.925-2.733-1.394-4.097c-0.063-0.181-0.141-0.37-0.257-0.518
		c-0.339-0.428-0.329-0.856-0.009-1.267c0.36-0.465,0.432-0.958,0.247-1.505c-0.029-0.092-0.087-0.237-0.05-0.277
		c0.519-0.536,0.419-1.25,0.574-1.891c0.113-0.479,0.295-0.964,0.29-1.447c-0.009-0.876-0.257-1.77-0.163-2.628
		c0.058-0.53,0.574-1.006,0.87-1.516c0.149-0.257,0.268-0.532,0.4-0.799c-0.289-0.127-0.577-0.254-0.864-0.381
		c-0.196-0.086-0.5-0.122-0.569-0.27c-0.389-0.828-1.242-1.458-1.107-2.517c0.012-0.091-0.014-0.196-0.051-0.28
		c-0.197-0.442-1.72-1.163-2.199-1.15c-0.315,0.009-0.636-0.167-0.953-0.27c-0.304-0.099-0.638-0.352-0.895-0.287
		c-0.798,0.197-1.46-0.073-2.057-0.494c-0.622-0.44-1.168-0.991-1.822-1.56c-0.511-0.094-1.231-0.229-1.952-0.363
		c-0.234-0.044-0.469-0.109-0.707-0.12c-0.83-0.036-1.624-0.105-2.355-0.609c-0.235-0.162-0.87-0.125-1.038,0.069
		c-0.889,1.016-1.775,0.45-2.641,0.069c-0.793-0.349-1.542-0.801-2.312-1.201c-0.104-0.055-0.24-0.137-0.335-0.107
		c-1.125,0.323-1.785-0.536-2.616-0.978c-0.322-0.171-0.74-0.16-1.118-0.217c-0.088-0.014-0.218,0.084-0.277,0.047
		c-1.128-0.701-2.113,0.308-3.201,0.261c-1.077-0.047-2.162,0.141-3.244,0.174c-0.577,0.018-1.157-0.101-1.735-0.104
		c-0.206,0-0.554,0.115-0.595,0.251c-0.138,0.44-0.413,0.429-0.781,0.455c-0.354,0.025-0.693,0.208-1.04,0.322
		c-0.374,0.123-0.759,0.22-1.121,0.37c-1,0.413-1.992,0.848-3.061,1.304c0.028,1.135-1.248,1.273-1.819,2.029
		c-0.668,0.882-1.499,1.62-2.178,2.514c-0.593,0.78-0.937,1.651-1.394,2.465c-0.9,1.607-1.673,3.296-2.375,5.002
		c-0.519,1.263-0.917,2.591-1.229,3.922c-0.297,1.263-0.406,2.568-0.61,3.853c-0.117,0.738-0.204,1.491-0.403,2.208
		c-0.444,1.599-0.966,3.175-1.423,4.771c-0.097,0.338-0.061,0.719-0.057,1.082c0.022,1.962,0.057,3.923,0.08,5.886
		c0.001,0.135-0.05,0.272-0.193,0.415c-0.29-1.278-0.578-2.558-0.865-3.836c-0.038-0.163-0.04-0.341-0.104-0.492
		c-0.695-1.609-0.295-3.133,0.315-4.764c-0.224,0.091-0.451,0.157-0.651,0.272c-0.414,0.235-0.631,0.15-0.676-0.344
		c-0.113-1.176-0.216-2.354-0.367-3.524c-0.05-0.382-0.236-0.75-0.453-1.102c0.098-0.562,0.456-1.137-0.076-1.745
		c-0.084-0.096,0.061-0.399,0.12-0.601c0.072-0.249,0.167-0.49,0.292-0.851C3.392,47.823,3.229,47.869,3,47.936
		c0.066-0.192,0.104-0.327,0.16-0.454c0.149-0.33,0.529-0.765,0.428-0.965c-0.574-1.142,0.31-1.905,0.632-2.884
		c-0.186-0.008-0.353-0.017-0.524-0.025C3.4,42.563,4.04,41.831,4.593,41.098c0.829-1.101,1.77-2.109,2.242-3.459
		C7,37.166,7.423,36.664,7.862,36.436c0.645-0.333,0.993-0.8,1.312-1.409c0.237-0.45,0.671-0.798,1.085-1.267
		c-0.367-0.192-0.668-0.352-0.972-0.511c0.004-0.042,0.011-0.083,0.017-0.125c0.607,0.088,1.216,0.177,1.825,0.265
		c0.025-0.082,0.048-0.162,0.072-0.244c-0.258-0.177-0.516-0.352-0.883-0.602h2.013c-0.257-0.596-0.69-0.685-1.237-0.641
		c-0.188,0.015-0.388-0.141-0.583-0.218c0.16-0.112,0.309-0.251,0.483-0.332c0.367-0.168,0.746-0.308,1.259-0.516
		c-0.685-0.671-1.646-1.107-1.141-2.274c0.533,1.303,1.515,0.004,2.308,0.66c-0.102-0.667-0.168-1.1-0.237-1.535
		c0.066-0.036,0.13-0.07,0.196-0.106c-0.208-0.105-0.422-0.2-0.624-0.316c-0.12-0.07-0.332-0.206-0.315-0.251
		c0.229-0.708-0.348-1.019-0.861-1.542c0.397,0.088,0.607,0.134,1.024,0.227c-0.45-1.167-0.873-2.178-1.231-3.212
		c-0.37-1.071-0.127-2.108,0.182-3.258c0.348,0.264,0.549,0.417,0.801,0.607C13.561,17.691,13.29,15.208,14.226,13.044"/>
	<path fill="#007180" d="M18.297,73.367c-0.208,0.283-0.414,0.444-0.43,0.621c-0.014,0.142,0.202,0.307,0.316,0.461
		c0.161-0.184,0.36-0.348,0.466-0.56C18.685,73.819,18.48,73.63,18.297,73.367 M25.32,74.196c-0.747,0.015-1.19,0.402-1.63,1.013
		c-0.569,0.792-1.281,1.523-2.057,2.111c-1.104,0.836-3.296,0.313-4.174-0.769c-1.118-1.377-1.327-2.79-0.47-4.359
		c0.079-0.142,0.091-0.429,0.003-0.522c-0.095-0.097-0.356-0.083-0.529-0.047c-1.681,0.335-3.251,0.966-4.691,1.894
		c-0.523,0.335-0.825,0.252-1.078-0.356c0.989-0.529,1.914-1.176,2.938-1.528c1.143-0.394,2.37-0.571,3.575-0.734
		c0.736-0.097,1.502,0.047,2.25,0.008c0.395-0.019,0.784-0.195,1.176-0.301c-0.003-0.082-0.003-0.165-0.005-0.247
		c-0.388-0.246-0.776-0.492-1.348-0.852c0.4-0.095,0.598-0.185,0.79-0.181c1.784,0.04,3.454,0.458,4.915,1.531
		c0.269,0.198,0.527,0.435,0.728,0.702c0.19,0.256,0.496,0.71,0.404,0.839c-0.256,0.372-0.7,0.637-1.198,0.36
		c-0.591-0.327-1.154-0.705-1.745-1.028c-0.177-0.095-0.414-0.079-0.624-0.115c0.115,0.168,0.202,0.372,0.349,0.502
		c0.794,0.707,1.603,1.397,2.408,2.092L25.32,74.196z"/>
	<path fill="#007180" d="M43.342,167.627c-0.106-0.594-0.011-1.145,0.644-1.271c0.611-0.117,1,0.283,1.295,0.836
		c0.271,0.501,0.725,0.901,1.021,1.392c0.648,1.072,1.272,2.164,1.858,3.272c0.185,0.354,0.188,0.8,0.337,1.179
		c0.225,0.571,0.533,1.113,0.753,1.688c0.126,0.328,0.199,0.695,0.205,1.048c0.011,0.939,0.072,1.896-0.075,2.818
		c-0.091,0.578-0.502,1.112-0.801,1.649c-0.04,0.072-0.271,0.09-0.393,0.059c-1.063-0.272-1.804-1.062-1.875-2.152
		c-0.076-1.183-0.526-2.207-0.938-3.301C44.496,172.509,43.563,170.157,43.342,167.627"/>
	<path fill="#007180" d="M21.503,63.376c-0.178,0.362-0.426,0.706-0.522,1.088c-0.237,0.963-0.502,1.071-1.43,0.683
		c-0.583-0.243-1.233-0.327-1.858-0.464c-0.486-0.106-0.981-0.181-1.474-0.276c-0.116-0.023-0.227-0.087-0.345-0.112
		c-1.068-0.239-2.16-0.412-3.206-0.733c-0.656-0.202-1.257-0.605-1.853-0.966c-0.102-0.063-0.124-0.398-0.063-0.565
		c0.345-0.951,0.619-1.134,1.676-1.096c0.381,0.012,0.691,0.125,0.998-0.297c0.153-0.214,0.669-0.21,1.022-0.222
		c0.869-0.035,1.739-0.033,2.609-0.022c0.885,0.01,1.698,0.126,2.367,0.86c0.427,0.471,1.073,0.738,1.585,1.139
		c0.316,0.249,0.564,0.577,0.845,0.871C21.738,63.302,21.622,63.341,21.503,63.376"/>
	<path fill="#007180" d="M29.549,111.34c0.828-0.616,1.46-1.08,2.087-1.55c0.326-0.246,0.63-0.526,0.975-0.743
		c0.47-0.297,0.972-0.105,1.145,0.418c0.316,0.969,0.614,1.942,0.918,2.916c0.262,0.845-0.135,1.454-1.02,1.458
		c-0.417,0.001-0.848-0.141-1.251-0.28c-0.562-0.196-1.187-0.345-1.633-0.704C30.267,112.448,29.931,111.833,29.549,111.34"/>
	<path fill="#007180" d="M26.495,108.816c-0.616,1.041-0.649,2.375-1.844,3.04c-0.21,0.116-0.422,0.238-0.607,0.391
		c-0.679,0.56-0.751,0.54-0.988-0.34c-0.422-1.557-0.414-1.545,0.994-2.398c0.511-0.309,0.964-0.718,1.469-1.038
		c0.183-0.117,0.454-0.174,0.663-0.137C26.299,108.355,26.375,108.62,26.495,108.816"/>
	<path fill="#007180" d="M25.307,74.21c0.23,0.133,0.449,0.297,0.694,0.392c0.671,0.257,0.945,0.743,0.812,1.425
		c-0.132,0.685-0.549,1.117-1.288,1.15c-0.277,0.014-0.556,0.001-1.012,0.001c0.667-0.976,1.165-1.887,0.809-2.98L25.307,74.21z"/>
	<path fill="#007180" d="M26.23,110.858c-0.058-0.876,0.301-1.264,0.857-1.499c0.119-0.05,0.298-0.062,0.407-0.007
		c0.371,0.182,0.751,0.369,1.068,0.626c0.125,0.103,0.189,0.467,0.105,0.592c-0.159,0.233-0.422,0.437-0.686,0.545
		c-0.236,0.098-0.537,0.026-0.799,0.075c-0.237,0.045-0.569,0.287-0.667,0.207C26.321,111.24,26.258,110.92,26.23,110.858"/>
	<path fill="#007180" d="M33.041,127.804c0.008,0.882-0.37,1.592-0.966,1.824C32.066,128.724,32.434,128.031,33.041,127.804"/>
	<path fill="#007180" d="M9.557,24.512c-0.561-1.306-1.124-2.613-1.684-3.918c0.052-0.025,0.107-0.051,0.162-0.076
		c0.592,1.291,1.186,2.583,1.776,3.874C9.727,24.432,9.643,24.472,9.557,24.512"/>
	<path fill="#007180" d="M8.932,29.563c0.514,0.227,1.026,0.453,1.537,0.679c-0.03,0.069-0.063,0.138-0.094,0.207
		c-0.495-0.247-0.987-0.494-1.48-0.74C8.907,29.659,8.919,29.611,8.932,29.563"/>
	<path fill="#007180" d="M61.559,102.52c-0.318,0.213-0.518,0.413-0.577,0.375c-0.268-0.161-0.497-0.391-0.74-0.596
		c0.106-0.102,0.251-0.313,0.312-0.292C60.843,102.113,61.108,102.281,61.559,102.52"/>
</g>
<g>
	<path fill="#161B20" d="M38.329,200c-1.292-5.104-2.91-10.097-4.84-14.997c-1.151-2.928-2.094-5.94-3.285-8.853
		c-1.393-3.406-2.983-6.729-4.434-10.115c-2.1-4.897-4.171-9.809-6.216-14.731c-0.883-2.127-1.633-4.312-1.677-6.649
		c-0.013-0.663,0.177-1.328,0.274-1.994c0.093,0.01,0.184,0.019,0.276,0.026c0,0.247,0.021,0.494-0.004,0.739
		c-0.237,2.327,0.438,4.479,1.408,6.522c1.184,2.49,2.542,4.896,3.774,7.364c0.842,1.691,1.516,3.469,2.41,5.13
		c1.204,2.236,2.558,4.392,3.824,6.593c0.447,0.776,0.831,1.589,1.234,2.39c0.539,1.07,1.107,2.126,1.587,3.221
		c0.387,0.875,0.583,1.843,1.013,2.693c0.409,0.808,1.03,1.506,1.527,2.271c0.551,0.844,1.063,1.709,1.602,2.561
		c0.141,0.224,0.287,0.453,0.472,0.64c0.575,0.575,1.029,1.173,1.124,2.046c0.102,0.944,1.043,1.118,1.698,1.539
		c0.319,0.203,0.599,0.469,0.928,0.648c0.276,0.152,0.602,0.314,0.9,0.304c0.71-0.024,1.276-0.063,1.358,0.927
		c0.03,0.351,0.572,0.662,0.889,0.982c0.113,0.115,0.255,0.2,0.337,0.261c-0.24,0.796-0.46,1.504-0.144,2.283
		c0.294,0.728,0.523,1.483,0.75,2.236c0.045,0.153,0.007,0.417-0.1,0.51c-0.112,0.1-0.429,0.143-0.521,0.06
		c-0.731-0.668-1.51-1.2-2.537-1.314c-0.113-0.014-0.251-0.487-0.244-0.744c0.029-0.975-0.272-1.38-1.233-1.543
		c-0.239-0.039-0.48-0.065-0.718-0.117c-1.198-0.263-2.041,0.553-1.708,1.737c0.443,1.575,0.959,3.104,1.696,4.604
		c0.542,1.1,1.116,1.594,2.22,1.76c0.53,0.078,0.917,0.434,1.018,1.012H38.329z"/>
	<path fill="#161B20" d="M55.508,200c0.168-0.767,0.312-1.541,0.523-2.296c0.058-0.204,0.33-0.352,0.501-0.524
		c0.13,0.184,0.359,0.359,0.373,0.551c0.057,0.754,0.044,1.513,0.06,2.27H55.508z"/>
	<path fill="#161B20" d="M56.725,69.815c-0.021-0.138-0.039-0.276-0.058-0.414c-0.29,0.045-0.58,0.088-0.868,0.134
		c0.045,0.146,0.098,0.418,0.134,0.417C56.198,69.938,56.461,69.867,56.725,69.815 M54.955,74.178
		c-0.306-0.156-0.506-0.339-0.626-0.296c-0.172,0.061-0.364,0.271-0.399,0.448c-0.023,0.11,0.287,0.416,0.338,0.392
		C54.478,74.627,54.646,74.438,54.955,74.178 M35.104,138.655c0.119,0.079,0.237,0.159,0.356,0.237
		c0.171-0.262,0.342-0.523,0.512-0.786c-0.123-0.079-0.246-0.157-0.367-0.239C35.438,138.13,35.273,138.393,35.104,138.655
		 M46.165,65.963c-0.204,0.33-0.397,0.509-0.4,0.694c-0.003,0.142,0.229,0.289,0.356,0.435c0.139-0.168,0.348-0.32,0.393-0.51
		C46.546,66.454,46.35,66.27,46.165,65.963 M19.775,7.952c0.051,0.045,0.102,0.093,0.153,0.138c0.675-0.387,1.394-1.32,1.315-1.981
		C20.685,6.808,20.23,7.38,19.775,7.952 M35.608,117.101c-0.17,0.292-0.371,0.487-0.333,0.603c0.077,0.237,0.282,0.599,0.436,0.602
		c0.224,0.001,0.447-0.273,0.67-0.432C36.159,117.651,35.936,117.428,35.608,117.101 M58.547,77.764
		c-0.434,0.197-0.86,0.36-1.25,0.586c-0.111,0.066-0.166,0.319-0.146,0.476c0.007,0.065,0.276,0.156,0.416,0.138
		c0.396-0.045,0.787-0.142,1.219-0.227C58.732,78.521,58.658,78.213,58.547,77.764 M38.491,104.443
		c0.576-0.123,1.053-0.15,1.457-0.338c0.276-0.13,0.563-0.45,0.646-0.741c0.337-1.18-0.567-2.722-1.833-3.236
		c-0.512-0.21-1.043-0.382-1.538-0.632c-0.569-0.289-0.843-0.036-1.081,0.443c-0.25,0.509-0.159,0.864,0.366,1.127
		c0.361,0.183,0.704,0.415,1.035,0.65c0.352,0.25,0.365,0.519,0.146,0.929c-0.21,0.393-0.412,0.959-0.276,1.317
		C37.521,104.239,38.158,104.311,38.491,104.443 M45.61,75.338c1.212-0.594,2.322-1.063,3.354-1.669
		c1.244-0.725,2.402-1.593,3.63-2.345c0.696-0.429,1.469-0.728,2.179-1.138c0.188-0.11,0.403-0.451,0.356-0.616
		c-0.053-0.19-0.389-0.435-0.591-0.424c-0.536,0.026-1.06,0.183-1.59,0.28c-0.182,0.035-0.367,0.068-0.552,0.083
		c-0.439,0.04-0.969-0.075-1.302,0.13c-1.371,0.842-2.746,1.702-3.987,2.717C46.281,73.034,45.709,74,45.61,75.338 M59.237,65.168
		c-1.003-0.25-1.968-0.497-2.938-0.724c-0.181-0.042-0.406-0.047-0.571,0.02c-1.822,0.734-3.885,0.585-5.635,1.543
		c-0.285,0.156-0.663,0.396-0.718,0.655c-0.104,0.489,0.091,1,0.644,1.16c0.577,0.167,1.176,0.272,1.77,0.352
		c0.595,0.082,1.2,0.091,1.799,0.146c1.564,0.145,3.129,0.295,4.692,0.446c1.235,0.12,2.474,0.232,3.707,0.379
		c0.476,0.056,0.772-0.098,0.839-0.564c0.166-1.12-0.217-1.673-1.34-1.964c-0.304-0.08-0.617-0.122-0.928-0.181
		C59.944,66.318,59.293,65.646,59.237,65.168 M53.339,71.521c-0.349,0.12-0.487,0.148-0.606,0.214
		c-0.149,0.079-0.269,0.214-0.419,0.28c-1.889,0.814-3.175,2.356-4.542,3.792c-0.406,0.424-0.218,0.911,0.315,1.11
		c0.152,0.057,0.271,0.207,0.406,0.316c-0.162,0.12-0.312,0.319-0.489,0.345c-0.379,0.056-0.773,0.004-1.16,0.027
		c-1.019,0.066-1.3,0.712-0.747,1.596c0.33,0.527,0.62,1.091,0.86,1.667c0.348,0.848,0.588,1.744,0.968,2.576
		c0.247,0.542,0.142,0.851-0.25,1.27c-0.357,0.382-0.787,0.968-0.734,1.411c0.125,1.107,0.489,2.189,0.795,3.271
		c0.168,0.589,0.458,1.147,0.613,1.739c0.225,0.883,0.224,1.855,0.599,2.662c0.613,1.325,1.402,2.561,1.596,4.05
		c0.04,0.309,0.127,0.626,0.259,0.905c0.279,0.585,0.199,1.041-0.305,1.477c-0.245,0.212-0.43,0.541-0.534,0.852
		c-0.446,1.307-1.558,1.91-2.615,2.591c-0.603,0.387-1.379,0.711-1.698,1.28c-0.348,0.62-0.312,1.485-0.333,2.247
		c-0.007,0.271,0.253,0.63,0.494,0.811c0.54,0.406,1.128,0.762,1.73,1.073c0.733,0.379,1.485,0.602,2.225-0.061
		c0.124-0.112,0.496-0.123,0.629-0.021c0.533,0.403,0.964,0.218,1.475-0.053c0.299-0.157,0.704-0.139,1.064-0.161
		c0.733-0.047,1.466-0.094,2.199-0.093c1.092,0.003,2.082-1.354,3.262-0.088c0.042-0.061,0.087-0.121,0.129-0.184
		c-0.125-0.511-0.251-1.021-0.391-1.584c0.602-0.075,1.43,0.069,1.002-1.026c0.856-0.107,0.671-0.521,0.356-0.973
		c-0.069-0.099-0.15-0.204-0.177-0.317c-0.055-0.245-0.079-0.497-0.116-0.747c0.226-0.022,0.461-0.095,0.671-0.052
		c0.356,0.07,0.584-0.026,0.466-0.382c-0.185-0.569-0.386-1.161-0.715-1.654c-0.709-1.062-0.663-1.741,0.389-2.479
		c0.707-0.494,1.488-0.881,2.218-1.343c0.253-0.162,0.614-0.383,0.645-0.615c0.102-0.787,0.16-1.597,0.067-2.378
		c-0.052-0.441,0.001-0.747,0.178-1.14c0.202-0.449,0.434-0.614,0.911-0.636c0.156-0.007,0.406-0.374,0.422-0.591
		c0.102-1.4-0.035-2.789-0.895-3.944c-0.375-0.503-0.315-0.778,0.058-1.159c0.475-0.487,0.726-1.027,0.354-1.705
		c-0.078-0.139-0.09-0.331-0.082-0.497c0.045-0.815-0.512-1.198-1.095-1.573c-1.185-0.764-2.376-1.515-3.542-2.304
		c-0.538-0.363-1.016-0.821-1.55-1.191c-0.137-0.095-0.394-0.04-0.591-0.014c-0.272,0.035-0.736,0.212-0.771,0.146
		c-0.156-0.292-0.341-0.717-0.229-0.968c0.272-0.613,0.043-0.842-0.491-1.001c-0.187-0.054-0.357-0.147-0.537-0.224
		c-2.418-1.041-3.275-3.457-2.05-5.777C53.13,72.112,53.186,71.912,53.339,71.521 M69.03,169.018c0.345-0.624,0.61-1.271,0.42-2.056
		c0.069,0.014,0.139,0.024,0.209,0.037c0.065,0.189,0.13,0.38,0.257,0.741c0.395-0.314,0.709-0.565,1.129-0.898
		c-0.37-0.146-0.547-0.215-0.852-0.337c0.828-0.398-0.507-1.249,0.404-1.609c0.239,0.181,0.434,0.33,0.629,0.478
		c0.116-0.221,0.301-0.435,0.332-0.67c0.029-0.2-0.111-0.428-0.188-0.638c-0.078-0.21-0.254-0.418-0.245-0.618
		c0.056-1.022,0.184-2.026-0.142-3.047c-0.212-0.658-0.458-1.453-0.272-2.058c0.298-0.972-0.407-1.428-0.722-2.071
		c-0.21-0.431-0.573-0.499-0.961-0.014c-0.723,0.904-1.502,1.769-2.645,2.182c-0.149,0.054-0.301,0.184-0.381,0.318
		c-0.431,0.743-1.307,1.271-1.124,2.313c0.011,0.063-0.046,0.137-0.066,0.205c-0.58,1.874-1.198,3.733-1.729,5.619
		c-0.475,1.693,0.125,3.145,1.243,4.409c0.139,0.158,0.422,0.19,0.728,0.315c-0.021-0.385-0.035-0.611-0.057-1.039
		c0.836,0.383,0.763,1.118,0.98,1.655c0.227,0.561,0.4,1.145,0.598,1.719c0.072-0.014,0.145-0.026,0.217-0.042
		c-0.044-0.716-0.088-1.433-0.14-2.253c0.407,0.169,0.617,0.256,0.816,0.337c0.069-0.074,0.107-0.107,0.131-0.146
		c0.026-0.04,0.054-0.088,0.055-0.134c0.032-0.688-0.134-1.479,0.907-1.623c0.093-0.016,0.158-0.273,0.224-0.425
		c0.093-0.219,0.171-0.443,0.257-0.667c0.2,0.177,0.4,0.352,0.599,0.527c0.218-0.27,0.439-0.538,0.657-0.808
		c-0.05-0.05-0.097-0.097-0.146-0.146C69.78,168.722,69.406,168.87,69.03,169.018 M11.226,13.044
		c0.073,0.475,0.146,0.95,0.218,1.424c0.082,0.008,0.16,0.017,0.242,0.025c0.349-0.744,0.7-1.488,1.05-2.231
		c0.055,0.014,0.113,0.026,0.168,0.04c-0.094,0.43-0.19,0.859-0.284,1.288c0.058,0.033,0.116,0.063,0.177,0.095
		c0.166-0.203,0.366-0.389,0.495-0.613c0.424-0.734,0.802-1.495,1.24-2.22c0.258-0.427,0.791-0.784,0.846-1.218
		c0.066-0.567,0.384-0.835,0.725-1.152c0.042-0.04,0.134-0.026,0.156-0.029c-0.464,1.408-0.93,2.826-1.455,4.414
		c0.823-0.334,0.583,0.234,0.672,0.494c0.981-0.461,0.973-0.926,1.339-2.56c0.118,0.14,0.222,0.262,0.37,0.434
		c1.487-2.518,3.072-4.878,5.166-6.727v1.376c0.301-0.04,0.479-0.065,0.824-0.11c-0.312,0.45-0.536,0.773-0.809,1.168
		c0.174-0.02,0.298,0.002,0.383-0.046c1.016-0.56,2.206-0.736,3.051-1.702c0.549-0.63,1.393-1.049,2.176-1.41
		c0.486-0.225,1.107-0.159,1.667-0.233c0.116-0.015,0.244-0.058,0.34-0.127c1.266-0.915,2.835-0.691,4.223-1.139
		c0.366-0.118,0.716-0.338,1.025-0.573c0.583-0.446,1.134-0.936,1.698-1.408c0.047,0.052,0.095,0.104,0.142,0.153
		c-0.464,0.479-0.929,0.957-1.394,1.434c0.034,0.05,0.067,0.097,0.101,0.146c0.127-0.01,0.271,0.015,0.378-0.036
		c0.555-0.254,1.069-0.706,1.731-0.207c0.087,0.066,0.363-0.076,0.53-0.163c0.858-0.44,1.747-0.59,2.721-0.503
		c0.472,0.043,0.97-0.181,1.454-0.298c0.505-0.125,1.005-0.366,1.511-0.377c1.276-0.026,2.553,0.085,3.828,0.072
		c0.668-0.008,1.332-0.193,2.002-0.245c0.57-0.042,1.148,0.026,1.72-0.016c0.696-0.054,1.387-0.177,2.082-0.255
		c0.212-0.025,0.428-0.003,0.643-0.003c0.007,0.062,0.014,0.125,0.022,0.189c-0.719,0.287-1.438,0.574-2.159,0.863
		c0.014,0.055,0.03,0.11,0.046,0.165c1.07-0.231,2.138-0.461,3.209-0.693c0.019,0.022,0.039,0.043,0.058,0.066l-1.24,0.603
		c0.005,0.076,0.011,0.153,0.015,0.229c1.398-0.823,2.746-0.06,4.129-0.051c-0.787,0.362-1.786-0.194-2.48,0.555
		c0.675,0.828,1.496,0.217,2.395,0.258c-0.269,0.192-0.422,0.301-0.654,0.465c2.049-0.16,4.018-0.314,6.066-0.475
		c-0.085,0.266-0.119,0.367-0.163,0.501h0.873c0.02,0.052,0.04,0.105,0.061,0.156c-1.068,0.362-2.137,0.724-3.204,1.085
		c0.021,0.082,0.04,0.162,0.061,0.242c0.879,0.218,1.674-0.493,2.592-0.4c-0.15,0.334-0.271,0.61-0.388,0.871h3.845
		c-0.181,0.148-0.289,0.235-0.397,0.323c-0.014,0.062-0.029,0.124-0.043,0.185c2.004-0.11,3.335,1.883,5.439,1.634
		c-0.409,0.145-0.82,0.292-1.231,0.435c0.012,0.079,0.023,0.16,0.036,0.239c0.694-0.058,1.389-0.116,2.054-0.173
		c-0.03,0.115-0.083,0.308-0.135,0.501c0.294,0.067,0.588,0.134,0.812,0.186c-0.156,0.187-0.361,0.432-0.565,0.676
		c0.225,0.152,0.447,0.303,0.692,0.465c-0.077,0.073-0.19,0.18-0.383,0.36c0.564,0.09,1.047,0.168,1.209,0.758
		c0.028,0.106,0.384,0.148,0.596,0.174c0.671,0.085,1.345,0.149,2.021,0.342h-0.983c0.042,0.074,0.084,0.152,0.129,0.228
		c-0.303,0.341-0.606,0.681-0.894,1.005c0.609,0,1.278-0.162,1.803,0.045c0.522,0.203,0.897,0.777,1.384,1.234
		c-0.293,0.018-0.562,0.036-1,0.065c0.675,0.666,1.405,0.451,2.109,0.471c-0.348,0.306-0.657,0.579-1.085,0.953
		c0.42,0.132,0.616,0.193,0.848,0.268c-0.034,0.215-0.072,0.437-0.122,0.733c1.052-0.378,1.955-0.116,2.877,0.409
		c-0.482,0.106-0.919,0.203-1.424,0.315c0.231,0.479,0.836,0.722,0.58,1.303c0.149,0.057,0.297,0.138,0.453,0.167
		c0.224,0.044,0.456,0.051,0.707,0.212c-0.237,0.113-0.475,0.227-0.875,0.418c0.4,0.088,0.638,0.141,0.919,0.203
		c-0.122,0.746,0.367,0.74,0.903,0.652c0.16,0.95,0.986,0.798,1.608,0.999c-0.292,0.26-0.559,0.496-0.907,0.804
		c0.583,0.29,1.024,0.512,1.466,0.731c0.014,0.068,0.026,0.134,0.04,0.202c-0.512,0.178-1.023,0.356-1.694,0.589
		c1.033,0.301,1.949,0.569,2.867,0.837c-0.001,0.041-0.004,0.081-0.005,0.124h-1.567c-0.021,0.067-0.042,0.138-0.064,0.206
		c0.398,0.159,0.802,0.302,1.19,0.483c0.211,0.099,0.395,0.264,0.588,0.4c-0.193,0.122-0.375,0.268-0.583,0.356
		c-0.235,0.097-0.492,0.14-0.74,0.349c0.778,0.282,1.557,0.565,2.33,0.846c-0.084,0.097-0.235,0.272-0.45,0.518
		c0.706,0.293,1.35,0.561,2.026,0.841c-0.668,1.073-1.674,0.395-2.45,0.764c0.824,0.333,1.581,0.638,2.337,0.942
		c-1.109,0.063-1.764,0.64-2.239,1.745c0.657,0.547,1.374,1.143,2.09,1.739c-0.025,0.068-0.049,0.137-0.075,0.203
		c-0.552-0.104-1.107-0.208-1.659-0.312c-0.034,0.059-0.069,0.119-0.104,0.179c0.203,0.218,0.407,0.437,0.672,0.719
		c-0.323,0.065-0.561,0.113-0.812,0.162c0.585,0.706,1.135,1.372,1.684,2.036c-0.31,0.32,0.185,1.485,0.958,2.205h-0.685
		c0.221,0.519,0.555,0.965,0.568,1.419c0.022,0.625-0.199,1.259-0.317,1.889c-0.077,0.002-0.154,0.004-0.232,0.007
		c0.279,0.322,0.558,0.643,0.956,1.104c-0.409-0.165-0.65-0.262-0.972-0.392c0.213,0.564,0.389,1.04,0.612,1.632
		c-0.41-0.109-0.689-0.185-1.158-0.31c0.438,0.587,0.759,1.021,1.082,1.452c-0.022,0.035-0.043,0.068-0.063,0.103
		c-0.348-0.155-0.696-0.308-1.045-0.461c-0.044,0.066-0.087,0.133-0.134,0.199c0.591,0.442,1.183,0.884,1.774,1.327
		c-0.015,0.048-0.026,0.1-0.04,0.149c-0.369-0.079-0.737-0.158-1.135-0.245c-0.014,0.128-0.025,0.258-0.04,0.416
		c-0.078-0.037-0.145-0.057-0.196-0.097c-0.416-0.333-0.81-0.696-1.249-0.992c-0.165-0.111-0.434-0.066-0.654-0.093
		c0.042,0.24,0.017,0.527,0.142,0.709c0.171,0.246,0.459,0.412,0.733,0.644c-0.197,0.092-0.351,0.164-0.545,0.254
		c0.227,0.25,0.41,0.451,0.733,0.806c-0.414-0.127-0.63-0.193-1.071-0.329c0.678,1.129,1.253,2.087,1.839,3.062
		c-0.848,0.459-0.046,0.977,0.102,1.724c-0.45-0.36-0.734-0.589-0.914-0.734c-0.271,0.301-0.546,0.524-0.704,0.814
		c-0.099,0.184-0.102,0.509-0.002,0.694c0.468,0.889,0.982,1.752,1.484,2.622c-0.065,0.045-0.13,0.091-0.195,0.136
		c-0.16-0.207-0.32-0.411-0.48-0.618c-0.05,0.021-0.101,0.04-0.15,0.06c0.173,0.4,0.344,0.802,0.527,1.231
		c-0.13,0.151-0.311,0.358-0.526,0.607c-0.063-0.051-0.196-0.16-0.351-0.29c-0.057,0.107-0.125,0.175-0.113,0.226
		c0.127,0.614,0.279,1.223,0.402,1.839c0.208,1.042,0.19,1.063-0.849,1.226c-0.206,1.695-0.391,3.409-0.636,5.116
		c-0.082,0.564-0.244,1.145-0.499,1.651c-0.558,1.11-0.491,2.264-0.326,3.415c0.088,0.601-0.105,1.08-0.345,1.58
		c-0.237,0.493-0.45,0.998-0.69,1.488c-0.097,0.202-0.236,0.38-0.384,0.61c0.638,0.19,1.13-0.085,1.603-0.422
		c1.028-0.733,2.053-1.447,3.363-1.626c1.108-0.151,1.967,0.17,2.542,1.134c0.932,1.561,1.35,3.299,1.335,5.076
		c-0.016,1.612-0.203,3.248-0.557,4.822c-0.232,1.037-0.912,1.966-1.347,2.962c-1.19,2.73-2.305,5.497-3.558,8.199
		c-0.543,1.177-1.357,2.227-2.033,3.345c-0.309,0.514-0.631,1.031-0.866,1.581c-0.628,1.473-1.484,2.78-3.027,3.348
		c-0.729,0.269-1.604,0.207-2.407,0.175c-0.591-0.021-1.013-0.042-0.991,0.726c0.005,0.221-0.116,0.478-0.249,0.668
		c-0.395,0.559-0.558,1.098-0.364,1.818c0.113,0.421-0.211,0.943-0.249,1.425c-0.05,0.668-0.011,1.345-0.011,2.01
		c-0.219,0.021-0.482,0.047-0.784,0.075c0.061,0.307,0.102,0.516,0.145,0.728c0.054-0.039,0.108-0.077,0.162-0.115
		c0.102,0.134,0.308,0.283,0.292,0.399c-0.137,0.933-0.12,1.958-0.523,2.767c-0.618,1.24-0.587,2.595-1.016,3.846
		c-0.304,0.885-0.77,1.715-1.118,2.587c-0.179,0.444-0.317,0.922-0.367,1.396c-0.11,1.036-0.171,2.078-0.218,3.117
		c-0.125,2.782-0.249,5.567-0.335,8.351c-0.038,1.212-0.011,2.425,0.037,3.636c0.029,0.688,0.389,1.164,0.922,1.682
		c1.45,1.399,3.258,2.584,3.54,4.867c0.055,0.443,0.275,0.88,0.475,1.289c0.185,0.376,0.304,0.702,0.003,1.074
		c-0.066,0.084-0.025,0.272-0.011,0.409c0.055,0.586,0.206,1.177,0.164,1.756c-0.153,2.224-0.286,4.453-0.576,6.663
		c-0.614,4.68-0.977,9.407-2.364,13.958c-0.473,1.55-0.943,3.103-1.44,4.646c-0.085,0.264-0.304,0.484-0.533,0.839
		c0.014,0.133,0.044,0.43,0.074,0.725c-0.07,0.046-0.141,0.089-0.21,0.134c-0.419-0.424-0.838-0.845-1.132-1.142
		c0.31-0.756,0.604-1.413,0.839-2.091c0.083-0.232,0.105-0.567-0.005-0.768c-0.2-0.369-0.574-0.974-0.777-0.937
		c-0.438,0.079-0.99,0.417-1.178,0.803c-0.389,0.81-0.6,1.712-0.817,2.591c-0.05,0.191,0.119,0.566,0.292,0.661
		c0.855,0.458,1.745,0.852,2.618,1.268c0.158,0.864-0.654,0.883-0.988,0.982c-0.911,0.27-1.041,0.354-0.708,1.282
		c0.244,0.687,0.048,1.031-0.614,0.977c-0.204-0.017-0.406-0.247-0.58-0.412c-0.116-0.11-0.234-0.405-0.258-0.397
		c-0.686,0.289-1.448-0.339-2.108,0.176c-0.131,0.101-0.29,0.211-0.445,0.224c-1.311,0.113-1.963,1.067-2.812,1.915
		c-0.927,0.926-0.829,2.193-1.518,3.146c-0.132,0.184-0.052,0.514-0.084,0.774c-0.032,0.26-0.069,0.52-0.119,0.774
		c-0.082,0.437-0.174,0.868-0.261,1.302c-0.005,0.022,0.006,0.05,0,0.072c-0.432,1.085-0.864,2.17-1.294,3.255
		c-0.142,0.36-0.278,0.722-0.409,1.086c-0.055,0.153-0.047,0.351-0.142,0.466c-0.405,0.484-0.921,0.893-1.238,1.423
		c-0.58,0.968-1.11,1.979-1.552,3.021c-0.395,0.928-0.631,1.922-0.969,2.875c-0.08,0.22-0.298,0.391-0.453,0.587
		c-0.083-0.015-0.168-0.029-0.254-0.043c-0.076-0.819-0.152-1.639-0.224-2.457c-0.005-0.07-0.011-0.181,0.03-0.21
		c0.766-0.561,0.547-1.462,0.776-2.206c0.042-0.131,0.127-0.328,0.225-0.349c0.738-0.159,0.747-0.656,0.703-1.268
		c-0.028-0.403-0.025-0.875,0.61-0.984c0.147-0.023,0.259-0.488,0.314-0.766c0.107-0.534,0.157-1.081,0.255-1.616
		c0.015-0.09,0.162-0.153,0.214-0.201c0.144,0.231,0.271,0.432,0.395,0.633c0.101-0.24,0.273-0.475,0.29-0.72
		c0.041-0.628,0.014-1.26,0.014-1.89l0.194-0.015c0.181,0.241,0.362,0.484,0.541,0.728c0.06-0.007,0.119-0.014,0.178-0.021
		c0-0.275,0.025-0.556-0.005-0.83c-0.036-0.332-0.187-0.664-0.163-0.987c0.035-0.449,0.046-1.042,0.867-0.633
		c0-0.468-0.066-0.842,0.015-1.179c0.137-0.563,0.366-1.105,0.567-1.65c0.088-0.24,0.25-0.462,0.305-0.707
		c0.132-0.581,0.206-1.131,0.703-1.607c0.224-0.214-0.085-0.887,0.305-1.262c0.119-0.114,0.206-0.338,0.33-0.357
		c0.846-0.13,0.552-0.532,0.227-0.919c-0.182-0.216-0.4-0.418-0.641-0.567c-0.527-0.336-1.055-0.606-1.263-1.311
		c-0.145-0.492-0.663-0.591-1.208-0.586c-0.997,0.011-2.004-0.028-2.988-0.173c-0.305-0.046-0.747-0.487-0.777-0.783
		c-0.066-0.626,0.072-1.282,0.171-1.917c0.213-1.335,0.477-2.663,0.68-3.998c0.251-1.639,0.643-3.221,1.517-4.657
		c0.562-0.924,0.913-2.025,1.636-2.78c0.936-0.98,1.231-2.166,1.629-3.342c0.559-1.662,1.234-3.31,1.565-5.02
		c0.469-2.443,0.599-4.939,0.345-7.434c-0.022-0.21-0.113-0.42-0.202-0.616c-0.25-0.562-0.545-1.104-0.762-1.678
		c-0.185-0.494-0.454-0.649-0.991-0.586c-0.628,0.072-1.278,0.045-1.909-0.023c-0.813-0.087-2.204,0.725-2.823,1.307
		c-0.746,0.701-0.809,1.519-0.949,2.399c-0.248,1.568-1.118,2.881-2.207,3.928c-0.508,0.485-1.262,1.269-2.326,0.822
		c0.09-0.23,0.163-0.422,0.276-0.715c-0.979-0.106-1.116-0.87-1.353-1.592c-0.302-0.923-1.165-1.38-2.066-1.038
		c-0.599,0.227-1.108,0.673-1.695,0.938c-1.275,0.579-2.551,1.184-3.882,1.612c-0.626,0.203-1.38-0.019-2.071,0.035
		c-0.718,0.057-1.426,0.214-2.197,0.337c-0.053-0.146-0.125-0.336-0.22-0.597c-0.161,0.105-0.321,0.163-0.414,0.277
		c-0.366,0.451-0.738,0.69-1.26,0.199c-0.108-0.101-0.312-0.156-0.467-0.148c-0.588,0.033-1.173,0.103-1.975,0.177
		c0.581-0.565,0.429-0.929-0.001-1.233c-0.456-0.324-0.723,0.015-1.071,0.255c-0.436,0.306-0.95,0.503-1.476,0.77
		c-0.119-0.302-0.247-0.626-0.36-0.911c-0.527-0.24-1.083,0.603-1.509-0.143c-0.493,0.425-0.968,0.717-1.677,0.523
		c-0.614-0.166-1.281-0.13-1.917-0.239c-0.808-0.137-1.417-0.563-1.804-1.315c-0.11-0.217-0.333-0.425-0.555-0.524
		c-0.64-0.286-1.294-0.678-1.965-0.729c-1.438-0.11-2.152-1.127-2.993-2.032c-0.425-0.457-0.671-1.145-1.488-1.138
		c-0.104,0-0.262-0.416-0.313-0.656c-0.165-0.77-0.305-1.55-0.424-2.33c-0.025-0.165,0.033-0.406,0.146-0.511
		c0.111-0.101,0.365-0.145,0.514-0.092c1.361,0.471,2.319,0.056,2.797-0.859c0.508,0.255,1.013,0.508,1.516,0.762
		c0.47,0.236,0.57,0.653,0.301,1.032c-0.405,0.57-0.092,0.903,0.227,1.335c0.467,0.629,0.837,1.327,1.281,1.974
		c0.149,0.216,0.375,0.469,0.602,0.51c0.196,0.036,0.53-0.145,0.652-0.33c0.359-0.558,0.643-1.165,0.979-1.796
		c0.272,0.133,0.452,0.167,0.551,0.276c0.398,0.431,0.762,0.301,1.287,0.168c0.663-0.168,1.417-0.001,2.129,0.045
		c0.258,0.017,0.511,0.107,0.704,0.149c0.283-0.496,0.571-0.91,0.762-1.367c0.1-0.241,0.086-0.568,0.02-0.832
		c-0.246-0.994,0.252-1.626,1.496-1.565c0.02-0.737,0.03-1.477,0.058-2.214c0.007-0.189,0.085-0.379,0.075-0.564
		c-0.017-0.243-0.094-0.483-0.14-0.725c-0.047-0.255-0.171-0.535-0.114-0.769c0.196-0.798-0.097-1.385-0.881-1.621
		c-0.094-0.028-0.193-0.035-0.283-0.069c-0.604-0.217-1.481-0.129-2.033,0.198c-0.135,0.08-0.295,0.123-0.599,0.246
		c0.192-0.799,0.505-1.524-0.229-2.112c-0.116,0.048-0.283,0.119-0.51,0.214c-0.026-0.16-0.081-0.281-0.052-0.373
		c0.244-0.745,0.496-1.492,0.773-2.227c0.061-0.159,0.242-0.388,0.369-0.388c0.759,0.002,1.517,0.055,2.275,0.106
		c0.287,0.018,0.573,0.063,0.856,0.12c0.986,0.195,1.97,0.4,2.954,0.605c0.141,0.029,0.279,0.081,0.421,0.094
		c0.66,0.052,0.893,0.509,0.468,1.049c-0.384,0.486-0.185,0.794,0.184,1.107c0.868,0.745,1.741,1.486,2.616,2.225
		c0.367,0.313,0.709,0.632,1.292,0.48c0.18-0.048,0.502,0.225,0.679,0.424c0.534,0.602,1.183,0.766,2.083,0.403
		c0.64-0.258,1.048-0.698,0.907-1.462c-0.008-0.036,0.039-0.084,0.102-0.214c0.203,0.063,0.428,0.205,0.634,0.184
		c0.403-0.042,0.976-0.044,1.153-0.294c0.368-0.518,0.71-0.583,1.319-0.217c-0.085-0.542-0.112-0.969-0.228-1.372
		c-0.251-0.875,0.034-1.506,0.918-1.713c0.832-0.198,1.482-0.545,1.816-1.389c0.061-0.153,0.418-0.344,0.555-0.292
		c0.758,0.283,1.027-0.051,1.115-0.744c0.042-0.333,0.144-0.657,0.232-1.04c0.134,0.051,0.262,0.084,0.378,0.146
		c0.353,0.189,0.602,0.097,0.585-0.309c-0.065-1.346,0.958-1.739,1.877-2.258c0.221-0.126,0.515-0.467,0.478-0.644
		c-0.137-0.629-0.397-1.233-0.618-1.841c-0.03-0.091-0.141-0.173-0.135-0.254c0.069-0.979-0.721-1.158-1.361-1.318
		c-0.917-0.232-1.88-0.286-2.819-0.428c-0.604-0.094-1.205-0.224-1.811-0.312c-0.159-0.022-0.333,0.057-0.5,0.088
		c0.094,0.149,0.157,0.397,0.284,0.435c0.935,0.287,1.336,0.962,1.679,1.839c0.345,0.89,0.234,1.678,0.069,2.551
		c-0.167,0.881-0.404,1.684-1.065,2.322c-0.492,0.472-0.935,1.004-1.462,1.43c-0.427,0.345-0.983,0.326-1.278-0.166
		c-0.512-0.849-1.216-0.779-2.021-0.649c-0.372,0.06-0.783-0.059-1.164-0.147c-0.516-0.118-1.112-0.159-1.51-0.454
		c-0.911-0.677-1.688-0.32-2.61-0.04c-1.116,0.336-2.291,0.645-3.502,0.309c-0.588-0.165-0.826-0.412-0.74-1.08
		c0.098-0.754-0.03-1.532,0.011-2.297c0.014-0.261,0.254-0.504,0.373-0.765c0.102-0.228,0.248-0.472,0.232-0.7
		c-0.006-0.12-0.315-0.301-0.492-0.308c-0.232-0.011-0.563,0.051-0.69,0.212c-0.643,0.813-1.01,0.856-1.693,0.092
		c-0.162-0.181-0.308-0.376-0.446-0.575c-0.298-0.431-0.69-0.522-1.143-0.301c-0.879,0.427-1.712,0.587-2.587-0.077
		c-0.21-0.16-0.679,0.045-1.03,0.042c-0.206-0.003-0.56-0.04-0.593-0.145c-0.337-1.048-1.278-1.02-2.076-1.168
		c-0.429-0.08-0.903,0.112-1.357,0.116c-0.261,0.003-0.536-0.104-0.779-0.214c-0.067-0.029-0.097-0.351-0.048-0.378
		c0.21-0.126,0.472-0.297,0.688-0.267c1.615,0.239,3.217,0.58,4.837,0.766c1.019,0.117,2.064,0.023,3.185,0.023
		c-0.109-0.157-0.289-0.306-0.316-0.48c-0.055-0.379-0.134-0.809-0.005-1.144c0.077-0.205,0.509-0.311,0.802-0.387
		c0.463-0.12,0.943-0.159,1.41-0.264c0.773-0.174,1.541-0.373,2.123-0.516c0.439,0.301,0.759,0.521,1.08,0.743
		c0.225-0.428,0.486-0.844,0.654-1.293c0.046-0.126-0.13-0.425-0.281-0.521c-0.447-0.277-0.942-0.479-1.403-0.736
		c-0.522-0.29-1.013-0.644-1.546-0.91c-1.089-0.544-1.179-1.547-1.216-2.566c-0.015-0.395-0.001-0.7,0.623-0.827
		c0.37-0.077,0.768-0.882,0.831-1.4c0.113-0.925,0.017-1.881-0.052-2.82c-0.083-1.129-0.388-1.419-1.491-1.581
		c-1.347-0.194-1.593-0.776-0.756-1.909c0.334-0.457,0.768-0.839,1.153-1.259c0.493-0.536,0.414-1.163,0.076-1.68
		c-0.434-0.66-0.768-1.31-0.839-2.115c-0.03-0.34-0.284-0.657-0.434-0.985c-0.08-0.174-0.221-0.354-0.218-0.527
		c0.03-1.414-0.004-2.838,0.157-4.24c0.193-1.681,0.552-3.346,0.858-5.012c0.061-0.33,0.158-0.675,0.33-0.958
		c0.404-0.663,0.854-1.282,0.649-2.145c-0.045-0.187,0.132-0.467,0.277-0.65c0.548-0.681,0.595-1.465,0.514-2.276
		c-0.085-0.875-0.095-1.644,0.579-2.417c0.443-0.509,0.542-1.365,0.675-2.09c0.312-1.723,1.234-2.972,2.642-3.989
		c1.262-0.913,2.479-1.919,3.558-3.036c0.548-0.566,0.846-1.369,1.587-1.815c0.119-0.07,0.095-0.614-0.04-0.83
		c-0.743-1.182-0.685-1.594,0.457-2.452c0.17-0.127,0.319-0.282,0.614-0.548c-0.246-0.17-0.475-0.272-0.624-0.444
		c-0.404-0.47-0.384-1.194,0.036-1.672c0.504-0.579,0.966-1.218,1.92-0.998c0.247,0.057,0.591-0.076,0.824-0.227
		c0.762-0.484,1.574-0.515,2.443-0.472c1.659,0.082,3.08-0.752,4.566-1.321c0.444-0.17,0.914-0.272,1.365-0.425
		c0.311-0.106,0.669-0.177,0.901-0.385c0.997-0.896,0.806-1.946-0.432-2.5c-0.142-0.063-0.363-0.11-0.484-0.045
		c-0.666,0.352-0.867-0.079-1.036-0.577c-0.466-1.365-0.925-2.733-1.394-4.097c-0.063-0.181-0.141-0.37-0.257-0.518
		c-0.339-0.428-0.329-0.856-0.009-1.267c0.36-0.465,0.432-0.958,0.247-1.505c-0.029-0.092-0.087-0.237-0.05-0.277
		c0.519-0.536,0.419-1.25,0.574-1.891c0.113-0.479,0.295-0.964,0.29-1.447c-0.009-0.876-0.257-1.77-0.163-2.628
		c0.058-0.53,0.574-1.006,0.87-1.516c0.149-0.257,0.268-0.532,0.4-0.799c-0.289-0.127-0.577-0.254-0.864-0.381
		c-0.196-0.086-0.5-0.122-0.569-0.27c-0.389-0.828-1.242-1.458-1.107-2.517c0.012-0.091-0.014-0.196-0.051-0.28
		c-0.197-0.442-1.72-1.163-2.199-1.15c-0.315,0.009-0.636-0.167-0.953-0.27c-0.304-0.099-0.638-0.352-0.895-0.287
		c-0.798,0.197-1.46-0.073-2.057-0.494c-0.622-0.44-1.168-0.991-1.822-1.56c-0.511-0.094-1.231-0.229-1.952-0.363
		c-0.234-0.044-0.469-0.109-0.707-0.12c-0.83-0.036-1.624-0.105-2.355-0.609c-0.235-0.162-0.87-0.125-1.038,0.069
		c-0.889,1.016-1.775,0.45-2.641,0.069c-0.793-0.349-1.542-0.801-2.312-1.201c-0.104-0.055-0.24-0.137-0.335-0.107
		c-1.125,0.323-1.785-0.536-2.616-0.978c-0.321-0.171-0.74-0.16-1.118-0.217c-0.088-0.014-0.218,0.084-0.277,0.047
		c-1.128-0.701-2.113,0.308-3.201,0.261c-1.077-0.047-2.162,0.141-3.244,0.174c-0.577,0.018-1.157-0.101-1.735-0.104
		c-0.206,0-0.554,0.115-0.595,0.251c-0.138,0.44-0.413,0.429-0.781,0.455c-0.354,0.025-0.693,0.208-1.04,0.322
		c-0.374,0.123-0.759,0.22-1.121,0.37c-1,0.413-1.992,0.848-3.061,1.304c0.028,1.135-1.248,1.273-1.819,2.029
		c-0.668,0.882-1.499,1.62-2.178,2.514c-0.593,0.78-0.937,1.651-1.394,2.465c-0.9,1.607-1.673,3.296-2.375,5.002
		c-0.519,1.263-0.917,2.591-1.229,3.922c-0.297,1.263-0.406,2.568-0.61,3.853c-0.117,0.738-0.204,1.491-0.403,2.208
		c-0.444,1.599-0.966,3.175-1.423,4.771c-0.097,0.338-0.061,0.719-0.057,1.082c0.022,1.962,0.057,3.923,0.08,5.886
		c0.001,0.135-0.05,0.272-0.193,0.415c-0.29-1.278-0.578-2.558-0.865-3.836c-0.038-0.163-0.04-0.341-0.104-0.492
		c-0.695-1.609-0.295-3.133,0.315-4.764c-0.224,0.091-0.451,0.157-0.651,0.272c-0.414,0.235-0.631,0.15-0.676-0.344
		c-0.113-1.176-0.216-2.354-0.367-3.524c-0.05-0.382-0.236-0.75-0.453-1.102c0.098-0.562,0.456-1.137-0.076-1.745
		c-0.084-0.096,0.061-0.399,0.12-0.601c0.072-0.249,0.167-0.49,0.292-0.851C0.392,47.823,0.229,47.869,0,47.936
		c0.066-0.192,0.104-0.327,0.16-0.454c0.149-0.33,0.529-0.765,0.428-0.965c-0.574-1.142,0.31-1.905,0.632-2.884
		c-0.186-0.008-0.353-0.017-0.524-0.025C0.4,42.563,1.04,41.831,1.593,41.098c0.829-1.101,1.77-2.109,2.242-3.459
		C4,37.166,4.423,36.664,4.862,36.436c0.645-0.333,0.993-0.8,1.312-1.409c0.237-0.45,0.671-0.798,1.085-1.267
		c-0.367-0.192-0.668-0.352-0.972-0.511c0.004-0.042,0.011-0.083,0.017-0.125c0.607,0.088,1.216,0.177,1.825,0.265
		c0.025-0.082,0.048-0.162,0.072-0.244c-0.258-0.177-0.516-0.352-0.883-0.602h2.013c-0.257-0.596-0.69-0.685-1.237-0.641
		c-0.188,0.015-0.388-0.141-0.583-0.218c0.16-0.112,0.309-0.251,0.483-0.332c0.367-0.168,0.746-0.308,1.259-0.516
		c-0.685-0.671-1.646-1.107-1.141-2.274c0.533,1.303,1.515,0.004,2.308,0.66c-0.102-0.667-0.168-1.1-0.237-1.535
		c0.066-0.036,0.13-0.07,0.196-0.106c-0.208-0.105-0.422-0.2-0.624-0.316c-0.12-0.07-0.332-0.206-0.315-0.251
		c0.229-0.708-0.348-1.019-0.861-1.542c0.397,0.088,0.607,0.134,1.024,0.227c-0.45-1.167-0.873-2.178-1.231-3.212
		c-0.37-1.071-0.127-2.108,0.182-3.258c0.348,0.264,0.549,0.417,0.801,0.607C10.561,17.691,10.29,15.208,11.226,13.044"/>
	<path fill="#161B20" d="M15.297,73.367c-0.208,0.283-0.414,0.444-0.43,0.621c-0.014,0.142,0.202,0.307,0.316,0.461
		c0.161-0.184,0.36-0.348,0.467-0.56C15.685,73.819,15.48,73.63,15.297,73.367 M22.32,74.196c-0.747,0.015-1.19,0.402-1.63,1.013
		c-0.569,0.792-1.281,1.523-2.057,2.111c-1.104,0.836-3.296,0.313-4.174-0.769c-1.118-1.377-1.327-2.79-0.47-4.359
		c0.079-0.142,0.091-0.429,0.003-0.522c-0.095-0.097-0.356-0.083-0.529-0.047c-1.681,0.335-3.251,0.966-4.691,1.894
		c-0.523,0.335-0.825,0.252-1.078-0.356c0.989-0.529,1.914-1.176,2.938-1.528c1.143-0.394,2.37-0.571,3.575-0.734
		c0.736-0.097,1.502,0.047,2.25,0.008c0.395-0.019,0.784-0.195,1.176-0.301c-0.003-0.082-0.003-0.165-0.005-0.247
		c-0.388-0.246-0.776-0.492-1.347-0.852c0.4-0.095,0.598-0.185,0.789-0.181c1.784,0.04,3.454,0.458,4.915,1.531
		c0.269,0.198,0.527,0.435,0.728,0.702c0.19,0.256,0.496,0.71,0.405,0.839c-0.257,0.372-0.7,0.637-1.198,0.36
		c-0.591-0.327-1.154-0.705-1.745-1.028c-0.177-0.095-0.414-0.079-0.624-0.115c0.115,0.168,0.202,0.372,0.349,0.502
		c0.794,0.707,1.603,1.397,2.408,2.092L22.32,74.196z"/>
	<path fill="#161B20" d="M40.342,167.627c-0.106-0.594-0.011-1.145,0.644-1.271c0.611-0.117,1,0.283,1.295,0.836
		c0.271,0.501,0.725,0.901,1.021,1.392c0.648,1.072,1.272,2.164,1.858,3.272c0.185,0.354,0.188,0.8,0.337,1.179
		c0.225,0.571,0.533,1.113,0.753,1.688c0.126,0.328,0.199,0.695,0.205,1.048c0.011,0.939,0.072,1.896-0.075,2.818
		c-0.091,0.578-0.502,1.112-0.8,1.649c-0.04,0.072-0.271,0.09-0.394,0.059c-1.063-0.272-1.804-1.062-1.875-2.152
		c-0.076-1.183-0.526-2.207-0.938-3.301C41.496,172.509,40.563,170.157,40.342,167.627"/>
	<path fill="#161B20" d="M18.503,63.376c-0.178,0.362-0.426,0.706-0.522,1.088c-0.237,0.963-0.502,1.071-1.43,0.683
		c-0.583-0.243-1.233-0.327-1.858-0.464c-0.486-0.106-0.981-0.181-1.474-0.276c-0.116-0.023-0.227-0.087-0.345-0.112
		c-1.068-0.239-2.16-0.412-3.205-0.733c-0.656-0.202-1.258-0.605-1.853-0.966c-0.102-0.063-0.124-0.398-0.063-0.565
		c0.345-0.951,0.619-1.134,1.676-1.096c0.381,0.012,0.691,0.125,0.998-0.297c0.153-0.214,0.669-0.21,1.022-0.222
		c0.869-0.035,1.739-0.033,2.609-0.022c0.885,0.01,1.698,0.126,2.367,0.86c0.427,0.471,1.073,0.738,1.585,1.139
		c0.316,0.249,0.564,0.577,0.845,0.871C18.738,63.302,18.622,63.341,18.503,63.376"/>
	<path fill="#161B20" d="M26.549,111.34c0.828-0.616,1.46-1.08,2.087-1.55c0.326-0.246,0.63-0.526,0.975-0.743
		c0.47-0.297,0.972-0.105,1.145,0.418c0.316,0.969,0.614,1.942,0.918,2.916c0.262,0.845-0.135,1.454-1.02,1.458
		c-0.417,0.001-0.848-0.141-1.251-0.28c-0.562-0.196-1.187-0.345-1.633-0.704C27.267,112.448,26.931,111.833,26.549,111.34"/>
	<path fill="#161B20" d="M23.495,108.816c-0.616,1.041-0.649,2.375-1.844,3.04c-0.21,0.116-0.422,0.238-0.607,0.391
		c-0.679,0.56-0.751,0.54-0.988-0.34c-0.422-1.557-0.414-1.545,0.994-2.398c0.511-0.309,0.964-0.718,1.469-1.038
		c0.183-0.117,0.454-0.174,0.663-0.137C23.299,108.355,23.375,108.62,23.495,108.816"/>
	<path fill="#161B20" d="M22.307,74.21c0.23,0.133,0.449,0.297,0.694,0.392c0.671,0.257,0.945,0.743,0.812,1.425
		c-0.132,0.685-0.549,1.117-1.288,1.15c-0.277,0.014-0.556,0.001-1.012,0.001c0.667-0.976,1.165-1.887,0.809-2.98L22.307,74.21z"/>
	<path fill="#161B20" d="M23.23,110.858c-0.058-0.876,0.301-1.264,0.857-1.499c0.119-0.05,0.298-0.062,0.407-0.007
		c0.372,0.182,0.751,0.369,1.068,0.626c0.125,0.103,0.189,0.467,0.105,0.592c-0.159,0.233-0.422,0.437-0.686,0.545
		c-0.236,0.098-0.537,0.026-0.799,0.075c-0.237,0.045-0.569,0.287-0.667,0.207C23.321,111.24,23.258,110.92,23.23,110.858"/>
	<path fill="#161B20" d="M30.041,127.804c0.008,0.882-0.37,1.592-0.966,1.824C29.066,128.724,29.434,128.031,30.041,127.804"/>
	<path fill="#161B20" d="M6.557,24.512c-0.561-1.306-1.124-2.613-1.684-3.918c0.052-0.025,0.107-0.051,0.162-0.076
		c0.592,1.291,1.186,2.583,1.776,3.874C6.727,24.432,6.643,24.472,6.557,24.512"/>
	<path fill="#161B20" d="M5.932,29.563c0.514,0.227,1.026,0.453,1.537,0.679c-0.03,0.069-0.063,0.138-0.094,0.207
		c-0.495-0.247-0.987-0.494-1.48-0.74C5.907,29.659,5.919,29.611,5.932,29.563"/>
	<path fill="#161B20" d="M58.559,102.52c-0.318,0.213-0.518,0.413-0.577,0.375c-0.268-0.161-0.497-0.391-0.74-0.596
		c0.106-0.102,0.251-0.313,0.312-0.292C57.843,102.113,58.108,102.281,58.559,102.52"/>
</g>
<g>
</g>
<g>
</g>
<g>
</g>
<g>
</g>
<g>
</g>
<g>
</g>
</svg>
