<?xml version="1.0" encoding="utf-8"?>
<!-- Generator: Adobe Illustrator 16.0.0, SVG Export Plug-In . SVG Version: 6.00 Build 0)  -->
<!DOCTYPE svg PUBLIC "-//W3C//DTD SVG 1.1//EN" "http://www.w3.org/Graphics/SVG/1.1/DTD/svg11.dtd">
<svg version="1.1" id="Calque_1" xmlns="http://www.w3.org/2000/svg" xmlns:xlink="http://www.w3.org/1999/xlink" x="0px" y="0px"
	 width="52px" height="50px" viewBox="0 0 52 50" enable-background="new 0 0 52 50" xml:space="preserve">
<g>
	<path fill="#161B20" d="M46.047,2.52c1.893,0,3.433,1.54,3.433,3.434v38.094c0,1.894-1.54,3.434-3.433,3.434H7.953
		c-1.894,0-3.433-1.54-3.433-3.434V5.953c0-1.894,1.54-3.434,3.433-3.434H46.047 M46.047,0H7.953C4.665,0,2,2.665,2,5.953v38.094
		C2,47.335,4.665,50,7.953,50h38.095C49.335,50,52,47.335,52,44.047V5.953C52,2.665,49.335,0,46.047,0L46.047,0z"/>
	<g>
		<path fill="#161B20" d="M13.162,13.5c1.498-0.271,3.575-0.477,6.4-0.477c3.064,0,5.311,0.647,6.774,1.873
			c1.361,1.123,2.247,2.927,2.247,5.071c0,2.179-0.681,3.983-1.975,5.209c-1.668,1.668-4.289,2.45-7.25,2.45
			c-0.783,0-1.498-0.033-2.042-0.136v8.646h-4.153V13.5z M17.315,24.189c0.511,0.136,1.191,0.17,2.042,0.17
			c3.132,0,5.038-1.532,5.038-4.221c0-2.554-1.77-3.915-4.664-3.915c-1.157,0-1.975,0.103-2.417,0.204V24.189z"/>
		<path fill="#161B20" d="M31.102,32.291c0.953,0.578,2.757,1.191,4.255,1.191c1.838,0,2.655-0.749,2.655-1.838
			c0-1.124-0.681-1.702-2.724-2.417c-3.233-1.124-4.595-2.894-4.561-4.834c0-2.928,2.417-5.208,6.263-5.208
			c1.838,0,3.438,0.477,4.392,0.986l-0.817,2.962c-0.715-0.408-2.042-0.953-3.506-0.953c-1.498,0-2.315,0.715-2.315,1.736
			c0,1.056,0.783,1.565,2.894,2.314c2.996,1.09,4.391,2.621,4.425,5.072c0,2.995-2.349,5.174-6.74,5.174
			c-2.008,0-3.813-0.477-5.038-1.157L31.102,32.291z"/>
	</g>
</g>
<g>
	<path fill="#FFFFFF" d="M44.047,2.52c1.893,0,3.433,1.54,3.433,3.434v38.094c0,1.894-1.54,3.434-3.433,3.434H5.953
		c-1.894,0-3.433-1.54-3.433-3.434V5.953c0-1.894,1.54-3.434,3.433-3.434H44.047 M44.047,0H5.953C2.665,0,0,2.665,0,5.953v38.094
		C0,47.335,2.665,50,5.953,50h38.095C47.335,50,50,47.335,50,44.047V5.953C50,2.665,47.335,0,44.047,0L44.047,0z"/>
	<g>
		<path fill="#FFFFFF" d="M11.162,13.5c1.498-0.271,3.575-0.477,6.4-0.477c3.064,0,5.311,0.647,6.774,1.873
			c1.361,1.123,2.247,2.927,2.247,5.071c0,2.179-0.681,3.983-1.975,5.209c-1.668,1.668-4.289,2.45-7.25,2.45
			c-0.783,0-1.498-0.033-2.042-0.136v8.646h-4.153V13.5z M15.315,24.189c0.511,0.136,1.191,0.17,2.042,0.17
			c3.132,0,5.038-1.532,5.038-4.221c0-2.554-1.77-3.915-4.664-3.915c-1.157,0-1.975,0.103-2.417,0.204V24.189z"/>
		<path fill="#FFFFFF" d="M29.102,32.291c0.953,0.578,2.757,1.191,4.255,1.191c1.838,0,2.655-0.749,2.655-1.838
			c0-1.124-0.681-1.702-2.724-2.417c-3.233-1.124-4.595-2.894-4.561-4.834c0-2.928,2.417-5.208,6.263-5.208
			c1.838,0,3.438,0.477,4.392,0.986l-0.817,2.962c-0.715-0.408-2.042-0.953-3.506-0.953c-1.498,0-2.315,0.715-2.315,1.736
			c0,1.056,0.783,1.565,2.894,2.314c2.996,1.09,4.391,2.621,4.425,5.072c0,2.995-2.349,5.174-6.74,5.174
			c-2.008,0-3.813-0.477-5.038-1.157L29.102,32.291z"/>
	</g>
</g>
</svg>
