<?xml version="1.0" encoding="utf-8"?>
<!-- Generator: Adobe Illustrator 16.0.0, SVG Export Plug-In . SVG Version: 6.00 Build 0)  -->
<!DOCTYPE svg PUBLIC "-//W3C//DTD SVG 1.1//EN" "http://www.w3.org/Graphics/SVG/1.1/DTD/svg11.dtd">
<svg version="1.1" id="Calque_1" xmlns="http://www.w3.org/2000/svg" xmlns:xlink="http://www.w3.org/1999/xlink" x="0px" y="0px"
	 width="48.067px" height="65px" viewBox="0 0 48.067 65" enable-background="new 0 0 48.067 65" xml:space="preserve">
<g>
	<path fill="#161B20" d="M2,12.667l4.12,47.086L25.042,65l18.907-5.243l4.118-47.09H2z M27.873,49.834v4.245v0.066v0.005h-0.019
		l-2.829,0.785L22.2,54.15h-0.003l0,0v-0.071v-4.25v-1.426h0.518h4.624h0.535V49.834z M38.909,28.084l-0.215,2.452l-0.132,1.511
		l-0.146,1.668l0,0l-0.218,2.499l-0.342,3.905l-5.917,2.512l-4.066,1.725v1.131h-2.66h-3.017V40.6l3.751-1.592l6.551-2.782
		l0.001-0.012l0.497-5.678L33,30.504l-7.974-2.211h-0.001l-7.927,2.198v0.001l0.004,0.044l0.305,3.484h-5.699l-0.172-1.985
		l-0.132-1.499l-0.214-2.452l-0.156-1.8l3.375-0.937l2.188-0.607l8.417-2.334l0.014-0.004l0.015,0.004l8.463,2.347l2.143,0.595
		l3.42,0.948L38.909,28.084z"/>
	<polygon fill="#161B20" points="26.534,0 26.534,2.789 23.811,2.789 23.811,0 20.926,0 20.926,2.789 20.926,5.674 20.926,8.555 
		23.811,8.555 23.811,5.674 26.534,5.674 26.534,8.555 29.417,8.555 29.417,5.674 29.417,2.789 29.417,0 	"/>
	<path fill="#161B20" d="M19.318,0h-7.042v0.012v2.871v5.686h2.883V6.573h1.274h2.885V3.69V2.883l0,0V0z M16.433,3.69h-1.274V2.883
		h1.274V3.69z"/>
	<path fill="#161B20" d="M38.056,0h-7.042v0.012v2.871v5.686h2.883V6.573h1.274h2.885V3.69V2.883l0,0V0z M35.171,3.69h-1.274V2.883
		h1.274V3.69z"/>
</g>
<g>
	<path fill="#FFFFFF" d="M0,12.667l4.12,47.086L23.042,65l18.907-5.243l4.118-47.09H0z M25.873,49.834v4.245v0.066v0.005h-0.019
		l-2.829,0.785L20.2,54.15h-0.003l0,0v-0.071v-4.25v-1.426h0.518h4.624h0.535V49.834z M36.909,28.084l-0.215,2.452l-0.132,1.511
		l-0.146,1.668l0,0l-0.218,2.499l-0.342,3.905l-5.917,2.512l-4.066,1.725v1.131h-2.66h-3.017V40.6l3.751-1.592l6.551-2.782
		l0.001-0.012l0.497-5.678L31,30.504l-7.974-2.211h-0.001l-7.927,2.198v0.001l0.004,0.044l0.305,3.484H9.708l-0.172-1.985
		l-0.132-1.499l-0.214-2.452l-0.156-1.8l3.375-0.937l2.188-0.607l8.417-2.334l0.014-0.004l0.015,0.004l8.463,2.347l2.143,0.595
		l3.42,0.948L36.909,28.084z"/>
	<polygon fill="#FFFFFF" points="24.534,0 24.534,2.789 21.811,2.789 21.811,0 18.926,0 18.926,2.789 18.926,5.674 18.926,8.555 
		21.811,8.555 21.811,5.674 24.534,5.674 24.534,8.555 27.417,8.555 27.417,5.674 27.417,2.789 27.417,0 	"/>
	<path fill="#FFFFFF" d="M17.318,0h-7.042v0.012v2.871v5.686h2.883V6.573h1.274h2.885V3.69V2.883l0,0V0z M14.433,3.69h-1.274V2.883
		h1.274V3.69z"/>
	<path fill="#FFFFFF" d="M36.056,0h-7.042v0.012v2.871v5.686h2.883V6.573h1.274h2.885V3.69V2.883l0,0V0z M33.171,3.69h-1.274V2.883
		h1.274V3.69z"/>
</g>
</svg>
