<?xml version="1.0" encoding="utf-8"?>
<!-- Generator: Adobe Illustrator 16.0.0, SVG Export Plug-In . SVG Version: 6.00 Build 0)  -->
<!DOCTYPE svg PUBLIC "-//W3C//DTD SVG 1.1//EN" "http://www.w3.org/Graphics/SVG/1.1/DTD/svg11.dtd">
<svg version="1.1" id="Calque_1" xmlns="http://www.w3.org/2000/svg" xmlns:xlink="http://www.w3.org/1999/xlink" x="0px" y="0px"
	 width="48.067px" height="64.959px" viewBox="0 0 48.067 64.959" enable-background="new 0 0 48.067 64.959" xml:space="preserve">
<g>
	<g>
		<path fill="#161B20" d="M43.949,59.716l4.119-47.09H2l4.12,47.086l18.921,5.247L43.949,59.716z M11.524,31.872l-0.335-3.829
			l-0.065-0.736L11.02,26.12l3.379-0.938l-0.2-0.055v-0.003l0.206,0.058h0.001l2.177-0.606l7.975-2.211l0.459-0.128h0.001h0.005
			h0.001l0.466,0.128l8.021,2.225l2.131,0.593h0.001l1.818,0.504l-0.001,0.002l1.613,0.447l-0.102,1.157l-0.066,0.75l-0.336,3.844
			l-0.125,1.443l-2.341,0.649l-0.459,0.127l-3.039,0.844l-7.582,2.102l-7.533-2.089l-3.085-0.856l-0.459-0.127l-2.295-0.637
			L11.524,31.872z M12.206,39.656l-0.282-3.212l1.271,0.354h0.001l4.567,1.266l1.807,0.502l3.936,1.091l1.521,0.423l1.52-0.423
			l3.936-1.091l1.854-0.514l4.522-1.254l1.318-0.366l-0.282,3.225l-0.246,2.813l-2.001,0.555l-3.839,1.063l-6.782,1.882
			l-6.733-1.869l-3.885-1.076l-1.955-0.543L12.206,39.656z M14.739,52.042l-0.332-0.093l-1.155-0.32l-0.528-6.036l0.475,0.131
			l5.365,1.487l0.992,0.276l5.472,1.517l5.47-1.517l0,0l1.039-0.289l5.319-1.475l0.521-0.146l-0.528,6.038l-0.86,0.238h-0.001
			l-0.34,0.095l-10.621,2.945L14.739,52.042z"/>
		<polygon fill="#161B20" points="30.491,29.646 25.021,28.128 25.021,28.128 19.555,29.645 25.027,31.161 		"/>
	</g>
	<polygon fill="#161B20" points="33.052,5.672 33.052,0 30.168,0 30.168,5.672 30.168,8.555 33.052,8.555 37.195,8.555 
		37.195,5.672 	"/>
	<polygon fill="#161B20" points="19.716,5.672 16.929,2.883 16.929,2.883 19.896,2.883 19.896,0 12.851,0 12.851,2.883 
		12.851,2.883 12.851,2.883 15.639,5.672 12.851,5.672 12.851,8.555 18.522,8.555 19.186,8.555 19.896,8.555 19.896,7.846 
		19.896,5.852 	"/>
	<path fill="#161B20" d="M29.347,7.351l-0.792-0.534V5.672h-0.009V2.883h0.009V0h-0.009h-2.883h-1.266h-2.884v2.883v2.789v2.883
		h2.884h1.266h0.313l0.486,0.329l0.702,0.473h2.191v-2L29.347,7.351z M24.397,2.883h1.266v2.789h-1.266V2.883z"/>
</g>
<g>
	<g>
		<path fill="#FFFFFF" d="M41.949,59.716l4.119-47.09H0l4.12,47.086l18.921,5.247L41.949,59.716z M9.524,31.872l-0.335-3.829
			l-0.065-0.736L9.02,26.12l3.379-0.938l-0.2-0.055v-0.003l0.206,0.058h0.001l2.177-0.606l7.975-2.211l0.459-0.128h0.001h0.005
			h0.001l0.466,0.128l8.021,2.225l2.131,0.593h0.001l1.818,0.504l-0.001,0.002l1.613,0.447l-0.102,1.157l-0.066,0.75l-0.336,3.844
			l-0.125,1.443l-2.341,0.649l-0.459,0.127l-3.039,0.844l-7.582,2.102l-7.533-2.089l-3.085-0.856l-0.459-0.127l-2.295-0.637
			L9.524,31.872z M10.206,39.656l-0.282-3.212l1.271,0.354h0.001l4.567,1.266l1.807,0.502l3.936,1.091l1.521,0.423l1.52-0.423
			l3.936-1.091l1.854-0.514l4.522-1.254l1.318-0.366l-0.282,3.225l-0.246,2.813l-2.001,0.555l-3.839,1.063l-6.782,1.882
			l-6.733-1.869l-3.885-1.076l-1.955-0.543L10.206,39.656z M12.739,52.042l-0.332-0.093l-1.155-0.32l-0.528-6.036l0.475,0.131
			l5.365,1.487l0.992,0.276l5.472,1.517l5.47-1.517l0,0l1.039-0.289l5.319-1.475l0.521-0.146l-0.528,6.038l-0.86,0.238h-0.001
			l-0.34,0.095l-10.621,2.945L12.739,52.042z"/>
		<polygon fill="#FFFFFF" points="28.491,29.646 23.021,28.128 23.021,28.128 17.555,29.645 23.027,31.161 		"/>
	</g>
	<polygon fill="#FFFFFF" points="31.052,5.672 31.052,0 28.168,0 28.168,5.672 28.168,8.555 31.052,8.555 35.195,8.555 
		35.195,5.672 	"/>
	<polygon fill="#FFFFFF" points="17.716,5.672 14.929,2.883 14.929,2.883 17.896,2.883 17.896,0 10.851,0 10.851,2.883 
		10.851,2.883 10.851,2.883 13.639,5.672 10.851,5.672 10.851,8.555 16.522,8.555 17.186,8.555 17.896,8.555 17.896,7.846 
		17.896,5.852 	"/>
	<path fill="#FFFFFF" d="M27.347,7.351l-0.792-0.534V5.672h-0.009V2.883h0.009V0h-0.009h-2.883h-1.266h-2.884v2.883v2.789v2.883
		h2.884h1.266h0.313l0.486,0.329l0.702,0.473h2.191v-2L27.347,7.351z M22.397,2.883h1.266v2.789h-1.266V2.883z"/>
</g>
</svg>
