<?xml version="1.0" encoding="utf-8"?>
<!-- Generator: Adobe Illustrator 16.0.0, SVG Export Plug-In . SVG Version: 6.00 Build 0)  -->
<!DOCTYPE svg PUBLIC "-//W3C//DTD SVG 1.1//EN" "http://www.w3.org/Graphics/SVG/1.1/DTD/svg11.dtd">
<svg version="1.1" id="Calque_1" xmlns="http://www.w3.org/2000/svg" xmlns:xlink="http://www.w3.org/1999/xlink" x="0px" y="0px"
	 width="46.068px" height="64.925px" viewBox="0 0 46.068 64.925" enable-background="new 0 0 46.068 64.925" xml:space="preserve">
<path fill="#FFFFFF" d="M0,12.591l4.12,47.086l18.923,5.248l18.906-5.244l4.119-47.09H0z M21.577,27.816l-0.021,0.19h-6.67l0.2,2.3
	l0.109,1.25l0.211,2.39h6.17v20.5l-2.271-0.619v-0.011l-2.21-0.609l-1.21-0.33l-3.15-0.87l-0.329-0.09l-1.16-0.33l-0.521-6.03
	l5.16,1.43v-7.37h-5.68l-0.03-0.279l-0.47-5.39l-0.011-0.06l-0.05-0.56l-0.029-0.31l-0.091-1.16l-0.34-3.83v-0.02l-0.17-1.9
	l-0.33-3.77h12.891V27.816z M37.077,26.116l-0.051,0.53l-0.119,1.34v0.02h-6.711v5.94h6.19l-0.5,5.669h-5.69v13.25l-1.18,0.33
	l-2.21,0.61l-2.3,0.64V22.336h12.9L37.077,26.116z"/>
<g>
	<polygon fill="#FFFFFF" points="22.051,5.673 19.264,2.886 19.262,2.886 22.23,2.886 22.23,0.001 15.185,0.001 15.185,2.886 
		15.185,2.886 15.185,2.886 17.973,5.673 15.185,5.673 15.185,8.558 20.857,8.558 21.52,8.558 22.23,8.558 22.23,7.848 22.23,5.853 
			"/>
	<g>
		<polygon fill="#FFFFFF" points="26.723,2.883 30.883,2.883 30.883,0 23.84,0 23.84,0.012 23.84,2.883 23.84,8.568 26.723,8.568 
			26.723,6.573 27.998,6.573 30.883,6.573 30.883,3.69 26.723,3.69 		"/>
	</g>
</g>
<g>
</g>
<g>
</g>
<g>
</g>
<g>
</g>
<g>
</g>
<g>
</g>
</svg>
